<svg width="18" height="19" viewBox="0 0 18 19" fill="none" xmlns="http://www.w3.org/2000/svg">
<path d="M7.89375 12.9125L13.2 7.60625L12.3375 6.7625L7.89375 11.2063L5.64375 8.95625L4.8 9.8L7.89375 12.9125ZM9 17C7.975 17 7.00625 16.8031 6.09375 16.4094C5.18125 16.0156 4.38438 15.4781 3.70312 14.7969C3.02188 14.1156 2.48438 13.3188 2.09063 12.4062C1.69688 11.4938 1.5 10.525 1.5 9.5C1.5 8.4625 1.69688 7.4875 2.09063 6.575C2.48438 5.6625 3.02188 4.86875 3.70312 4.19375C4.38438 3.51875 5.18125 2.98438 6.09375 2.59063C7.00625 2.19688 7.975 2 9 2C10.0375 2 11.0125 2.19688 11.925 2.59063C12.8375 2.98438 13.6313 3.51875 14.3063 4.19375C14.9813 4.86875 15.5156 5.6625 15.9094 6.575C16.3031 7.4875 16.5 8.4625 16.5 9.5C16.5 10.525 16.3031 11.4938 15.9094 12.4062C15.5156 13.3188 14.9813 14.1156 14.3063 14.7969C13.6313 15.4781 12.8375 16.0156 11.925 16.4094C11.0125 16.8031 10.0375 17 9 17Z" fill="#98CC5D"/>
</svg>
