<svg width="21" height="21" viewBox="0 0 21 21" fill="none" fill="#9CA3AF" xmlns="http://www.w3.org/2000/svg">
<path d="M4.2 0H16.8C19.1196 0 21 1.8804 21 4.2V16.8C21 19.1196 19.1196 21 16.8 21H4.2C1.8804 21 0 19.1196 0 16.8V4.2C0 1.8804 1.8804 0 4.2 0Z" />
<path fill-rule="evenodd" clip-rule="evenodd" d="M11.2867 6.3002C11.2867 5.86527 10.9341 5.5127 10.4992 5.5127C10.0643 5.5127 9.71172 5.86527 9.71172 6.3002V9.7127H6.29922C5.8643 9.7127 5.51172 10.0653 5.51172 10.5002C5.51172 10.9351 5.8643 11.2877 6.29922 11.2877H9.71172V14.7002C9.71172 15.1351 10.0643 15.4877 10.4992 15.4877C10.9341 15.4877 11.2867 15.1351 11.2867 14.7002V11.2877H14.6992C15.1341 11.2877 15.4867 10.9351 15.4867 10.5002C15.4867 10.0653 15.1341 9.7127 14.6992 9.7127H11.2867V6.3002Z" fill="white"/>
</svg>
