<svg width="166.6" height="122.5" viewBox="0 0 200 147" fill="none" xmlns="http://www.w3.org/2000/svg">
<g filter="url(#filter0_dd_947_60863)">
<g clip-path="url(#clip0_947_60863)">
<path d="M5.5 25C5.5 11.7452 16.2452 1 29.5 1H170.5C183.755 1 194.5 11.7452 194.5 25V114C194.5 127.255 183.755 138 170.5 138H29.5C16.2452 138 5.5 127.255 5.5 114V25Z" fill="#3B73B9"/>
<path d="M-49.9482 -98.4532C39.3585 -388.724 496.208 -269.81 183.593 -187.731C153.588 -181.363 142.753 -157.172 165.344 -149.065C320.186 -93.4306 249.161 46.3308 131.904 -8.59797C89.4385 -32.0741 77.6903 13.5088 85.3941 43.3092C92.9109 72.318 103.446 133.104 43.4599 161.491C-16.5265 189.878 -97.0803 23.3869 -49.9482 -98.4532Z" fill="url(#paint0_linear_947_60863)"/>
<g clip-path="url(#clip1_947_60863)">
<path d="M104.55 35.43H96.45C96.3659 35.4297 96.2826 35.4461 96.2048 35.4782C96.127 35.5102 96.0564 35.5574 95.9969 35.6169C95.9374 35.6763 95.8903 35.747 95.8582 35.8248C95.8261 35.9025 95.8098 35.9859 95.81 36.07V38.77C95.8116 38.9383 95.8798 39.0992 95.9998 39.2173C96.1198 39.3354 96.2817 39.4011 96.45 39.4H104.55C104.718 39.4011 104.88 39.3354 105 39.2173C105.12 39.0992 105.188 38.9383 105.19 38.77V36.07C105.19 35.9859 105.174 35.9025 105.142 35.8248C105.11 35.747 105.063 35.6763 105.003 35.6169C104.944 35.5574 104.873 35.5102 104.795 35.4782C104.717 35.4461 104.634 35.4297 104.55 35.43ZM104.55 35.43H96.45C96.3659 35.4297 96.2826 35.4461 96.2048 35.4782C96.127 35.5102 96.0564 35.5574 95.9969 35.6169C95.9374 35.6763 95.8903 35.747 95.8582 35.8248C95.8261 35.9025 95.8098 35.9859 95.81 36.07V38.77C95.8116 38.9383 95.8798 39.0992 95.9998 39.2173C96.1198 39.3354 96.2817 39.4011 96.45 39.4H104.55C104.718 39.4011 104.88 39.3354 105 39.2173C105.12 39.0992 105.188 38.9383 105.19 38.77V36.07C105.19 35.9859 105.174 35.9025 105.142 35.8248C105.11 35.747 105.063 35.6763 105.003 35.6169C104.944 35.5574 104.873 35.5102 104.795 35.4782C104.717 35.4461 104.634 35.4297 104.55 35.43ZM100.86 44.2C100.753 44.1293 100.628 44.0911 100.5 44.09C100.371 44.0848 100.244 44.1236 100.14 44.2L95.86 47.06V54.89C95.859 54.9376 95.8676 54.9848 95.8853 55.029C95.903 55.0731 95.9295 55.1132 95.9631 55.1469C95.9968 55.1805 96.0369 55.207 96.081 55.2247C96.1252 55.2424 96.1725 55.251 96.22 55.25H98.07V53.39C98.07 52.7455 98.326 52.1274 98.7817 51.6717C99.2375 51.216 99.8555 50.96 100.5 50.96C101.144 50.96 101.763 51.216 102.218 51.6717C102.674 52.1274 102.93 52.7455 102.93 53.39V55.25H104.78C104.828 55.251 104.875 55.2424 104.919 55.2247C104.963 55.207 105.003 55.1805 105.037 55.1469C105.071 55.1132 105.097 55.0731 105.115 55.029C105.132 54.9848 105.141 54.9376 105.14 54.89V47.06L100.86 44.2ZM104.55 35.43H96.45C96.3659 35.4297 96.2826 35.4461 96.2048 35.4782C96.127 35.5102 96.0564 35.5574 95.9969 35.6169C95.9374 35.6763 95.8903 35.747 95.8582 35.8248C95.8261 35.9025 95.8098 35.9859 95.81 36.07V38.77C95.8116 38.9383 95.8798 39.0992 95.9998 39.2173C96.1198 39.3354 96.2817 39.4011 96.45 39.4H104.55C104.718 39.4011 104.88 39.3354 105 39.2173C105.12 39.0992 105.188 38.9383 105.19 38.77V36.07C105.19 35.9859 105.174 35.9025 105.142 35.8248C105.11 35.747 105.063 35.6763 105.003 35.6169C104.944 35.5574 104.873 35.5102 104.795 35.4782C104.717 35.4461 104.634 35.4297 104.55 35.43ZM104.55 35.43H96.45C96.3659 35.4297 96.2826 35.4461 96.2048 35.4782C96.127 35.5102 96.0564 35.5574 95.9969 35.6169C95.9374 35.6763 95.8903 35.747 95.8582 35.8248C95.8261 35.9025 95.8098 35.9859 95.81 36.07V38.77C95.8116 38.9383 95.8798 39.0992 95.9998 39.2173C96.1198 39.3354 96.2817 39.4011 96.45 39.4H104.55C104.718 39.4011 104.88 39.3354 105 39.2173C105.12 39.0992 105.188 38.9383 105.19 38.77V36.07C105.19 35.9859 105.174 35.9025 105.142 35.8248C105.11 35.747 105.063 35.6763 105.003 35.6169C104.944 35.5574 104.873 35.5102 104.795 35.4782C104.717 35.4461 104.634 35.4297 104.55 35.43ZM100.86 44.2C100.753 44.1293 100.628 44.0911 100.5 44.09C100.371 44.0848 100.244 44.1236 100.14 44.2L95.86 47.06V54.89C95.859 54.9376 95.8676 54.9848 95.8853 55.029C95.903 55.0731 95.9295 55.1132 95.9631 55.1469C95.9968 55.1805 96.0369 55.207 96.081 55.2247C96.1252 55.2424 96.1725 55.251 96.22 55.25H98.07V53.39C98.07 52.7455 98.326 52.1274 98.7817 51.6717C99.2375 51.216 99.8555 50.96 100.5 50.96C101.144 50.96 101.763 51.216 102.218 51.6717C102.674 52.1274 102.93 52.7455 102.93 53.39V55.25H104.78C104.828 55.251 104.875 55.2424 104.919 55.2247C104.963 55.207 105.003 55.1805 105.037 55.1469C105.071 55.1132 105.097 55.0731 105.115 55.029C105.132 54.9848 105.141 54.9376 105.14 54.89V47.06L100.86 44.2ZM100.86 44.2C100.753 44.1293 100.628 44.0911 100.5 44.09C100.371 44.0848 100.244 44.1236 100.14 44.2L95.86 47.06V54.89C95.859 54.9376 95.8676 54.9848 95.8853 55.029C95.903 55.0731 95.9295 55.1132 95.9631 55.1469C95.9968 55.1805 96.0369 55.207 96.081 55.2247C96.1252 55.2424 96.1725 55.251 96.22 55.25H98.07V53.39C98.07 52.7455 98.326 52.1274 98.7817 51.6717C99.2375 51.216 99.8555 50.96 100.5 50.96C101.144 50.96 101.763 51.216 102.218 51.6717C102.674 52.1274 102.93 52.7455 102.93 53.39V55.25H104.78C104.828 55.251 104.875 55.2424 104.919 55.2247C104.963 55.207 105.003 55.1805 105.037 55.1469C105.071 55.1132 105.097 55.0731 105.115 55.029C105.132 54.9848 105.141 54.9376 105.14 54.89V47.06L100.86 44.2ZM104.55 35.43H96.45C96.3659 35.4297 96.2826 35.4461 96.2048 35.4782C96.127 35.5102 96.0564 35.5574 95.9969 35.6169C95.9374 35.6763 95.8903 35.747 95.8582 35.8248C95.8261 35.9025 95.8098 35.9859 95.81 36.07V38.77C95.8116 38.9383 95.8798 39.0992 95.9998 39.2173C96.1198 39.3354 96.2817 39.4011 96.45 39.4H104.55C104.718 39.4011 104.88 39.3354 105 39.2173C105.12 39.0992 105.188 38.9383 105.19 38.77V36.07C105.19 35.9859 105.174 35.9025 105.142 35.8248C105.11 35.747 105.063 35.6763 105.003 35.6169C104.944 35.5574 104.873 35.5102 104.795 35.4782C104.717 35.4461 104.634 35.4297 104.55 35.43ZM104.55 35.43H96.45C96.3659 35.4297 96.2826 35.4461 96.2048 35.4782C96.127 35.5102 96.0564 35.5574 95.9969 35.6169C95.9374 35.6763 95.8903 35.747 95.8582 35.8248C95.8261 35.9025 95.8098 35.9859 95.81 36.07V38.77C95.8116 38.9383 95.8798 39.0992 95.9998 39.2173C96.1198 39.3354 96.2817 39.4011 96.45 39.4H104.55C104.718 39.4011 104.88 39.3354 105 39.2173C105.12 39.0992 105.188 38.9383 105.19 38.77V36.07C105.19 35.9859 105.174 35.9025 105.142 35.8248C105.11 35.747 105.063 35.6763 105.003 35.6169C104.944 35.5574 104.873 35.5102 104.795 35.4782C104.717 35.4461 104.634 35.4297 104.55 35.43ZM100.86 44.2C100.753 44.1293 100.628 44.0911 100.5 44.09C100.371 44.0848 100.244 44.1236 100.14 44.2L95.86 47.06V54.89C95.859 54.9376 95.8676 54.9848 95.8853 55.029C95.903 55.0731 95.9295 55.1132 95.9631 55.1469C95.9968 55.1805 96.0369 55.207 96.081 55.2247C96.1252 55.2424 96.1725 55.251 96.22 55.25H98.07V53.39C98.07 52.7455 98.326 52.1274 98.7817 51.6717C99.2375 51.216 99.8555 50.96 100.5 50.96C101.144 50.96 101.763 51.216 102.218 51.6717C102.674 52.1274 102.93 52.7455 102.93 53.39V55.25H104.78C104.828 55.251 104.875 55.2424 104.919 55.2247C104.963 55.207 105.003 55.1805 105.037 55.1469C105.071 55.1132 105.097 55.0731 105.115 55.029C105.132 54.9848 105.141 54.9376 105.14 54.89V47.06L100.86 44.2ZM100.5 22C94.171 22 87.9841 23.8768 82.7218 27.393C77.4594 30.9092 73.3579 35.9069 70.9359 41.7541C68.5139 47.6014 67.8802 54.0355 69.1149 60.2429C70.3496 66.4503 73.3973 72.1521 77.8726 76.6274C82.3479 81.1027 88.0497 84.1504 94.2571 85.3851C100.465 86.6199 106.899 85.9861 112.746 83.5641C118.593 81.1421 123.591 77.0406 127.107 71.7782C130.623 66.5159 132.5 60.329 132.5 54C132.499 45.5134 129.127 37.3747 123.126 31.3738C117.125 25.3728 108.987 22.0011 100.5 22ZM114.72 71.86C114.719 72.4274 114.494 72.9713 114.093 73.3725C113.691 73.7737 113.147 73.9994 112.58 74H88.42C87.8526 73.9994 87.3087 73.7737 86.9075 73.3725C86.5063 72.9713 86.2807 72.4274 86.28 71.86V68.75C86.28 68.5604 86.3553 68.3785 86.4894 68.2444C86.6235 68.1103 86.8054 68.035 86.995 68.035C87.1846 68.035 87.3665 68.1103 87.5006 68.2444C87.6347 68.3785 87.71 68.5604 87.71 68.75V71.86C87.7107 72.0481 87.7858 72.2283 87.9188 72.3612C88.0518 72.4942 88.2319 72.5693 88.42 72.57H112.58C112.768 72.5693 112.948 72.4942 113.081 72.3612C113.214 72.2283 113.289 72.0481 113.29 71.86V47.39C113.29 47.2004 113.365 47.0185 113.499 46.8844C113.634 46.7503 113.815 46.675 114.005 46.675C114.195 46.675 114.377 46.7503 114.511 46.8844C114.645 47.0185 114.72 47.2004 114.72 47.39V71.86ZM99.5 53.39V55.96C99.5007 56.0539 99.4828 56.147 99.4475 56.234C99.4122 56.321 99.3601 56.4002 99.2942 56.4671C99.2282 56.5339 99.1498 56.5872 99.0633 56.6237C98.9768 56.6602 98.8839 56.6794 98.79 56.68H96.22C95.7456 56.6788 95.2911 56.4898 94.9556 56.1544C94.6202 55.819 94.4312 55.3644 94.43 54.89V48C94.2739 48.0932 94.0878 48.1224 93.9107 48.0814C93.7336 48.0404 93.5792 47.9324 93.48 47.78C93.4278 47.702 93.3915 47.6144 93.3733 47.5223C93.3551 47.4302 93.3553 47.3354 93.3739 47.2434C93.3924 47.1513 93.4291 47.0639 93.4816 46.9861C93.5342 46.9083 93.6016 46.8416 93.68 46.79L99.35 43.01C99.6913 42.785 100.091 42.665 100.5 42.665C100.909 42.665 101.309 42.785 101.65 43.01L107.32 46.79C107.472 46.8933 107.578 47.0513 107.616 47.2311C107.654 47.4108 107.622 47.5983 107.525 47.7545C107.428 47.9106 107.275 48.0234 107.097 48.0691C106.919 48.1149 106.73 48.0901 106.57 48V54.89C106.569 55.3644 106.38 55.819 106.044 56.1544C105.709 56.4898 105.254 56.6788 104.78 56.68H102.21C102.116 56.6794 102.023 56.6602 101.937 56.6237C101.85 56.5872 101.772 56.5339 101.706 56.4671C101.64 56.4002 101.588 56.321 101.553 56.234C101.517 56.147 101.499 56.0539 101.5 55.96V53.39C101.497 53.1265 101.391 52.8747 101.204 52.6893C101.016 52.5039 100.764 52.4 100.5 52.4C100.237 52.4 99.9837 52.5039 99.7964 52.6893C99.6092 52.8747 99.5026 53.1265 99.5 53.39ZM109.66 59.31C109.85 59.31 110.032 59.3853 110.166 59.5194C110.3 59.6535 110.375 59.8354 110.375 60.025C110.375 60.2146 110.3 60.3965 110.166 60.5306C110.032 60.6647 109.85 60.74 109.66 60.74H91.34C91.1504 60.74 90.9685 60.6647 90.8344 60.5306C90.7003 60.3965 90.625 60.2146 90.625 60.025C90.625 59.8354 90.7003 59.6535 90.8344 59.5194C90.9685 59.3853 91.1504 59.31 91.34 59.31H109.66ZM91.34 67.88C91.1527 67.8764 90.9744 67.7995 90.8432 67.6658C90.712 67.5321 90.6385 67.3523 90.6385 67.165C90.6385 66.9777 90.712 66.7979 90.8432 66.6642C90.9744 66.5305 91.1527 66.4536 91.34 66.45H109.66C109.847 66.4536 110.026 66.5305 110.157 66.6642C110.288 66.7979 110.362 66.9777 110.362 67.165C110.362 67.3523 110.288 67.5321 110.157 67.6658C110.026 67.7995 109.847 67.8764 109.66 67.88H91.34ZM105.08 70.74H95.92C95.7327 70.7364 95.5544 70.6595 95.4232 70.5258C95.292 70.3921 95.2185 70.2123 95.2185 70.025C95.2185 69.8377 95.292 69.6579 95.4232 69.5242C95.5544 69.3905 95.7327 69.3136 95.92 69.31H105.08C105.267 69.3136 105.446 69.3905 105.577 69.5242C105.708 69.6579 105.782 69.8377 105.782 70.025C105.782 70.2123 105.708 70.3921 105.577 70.5258C105.446 70.6595 105.267 70.7364 105.08 70.74ZM95.92 62.06H105.08C105.267 62.0636 105.446 62.1405 105.577 62.2742C105.708 62.4079 105.782 62.5877 105.782 62.775C105.782 62.9623 105.708 63.1421 105.577 63.2758C105.446 63.4095 105.267 63.4864 105.08 63.49H95.92C95.7327 63.4864 95.5544 63.4095 95.4232 63.2758C95.292 63.1421 95.2185 62.9623 95.2185 62.775C95.2185 62.5877 95.292 62.4079 95.4232 62.2742C95.5544 62.1405 95.7327 62.0636 95.92 62.06ZM114.72 43.38C114.72 43.5696 114.645 43.7515 114.511 43.8856C114.377 44.0197 114.195 44.095 114.005 44.095C113.815 44.095 113.634 44.0197 113.499 43.8856C113.365 43.7515 113.29 43.5696 113.29 43.38V38.84C113.289 38.6519 113.214 38.4717 113.081 38.3387C112.948 38.2058 112.768 38.1307 112.58 38.13H106.62V38.77C106.619 39.3176 106.4 39.8422 106.011 40.2285C105.623 40.6148 105.098 40.8312 104.55 40.83H96.45C95.9024 40.8312 95.3767 40.6148 94.9886 40.2285C94.6004 39.8422 94.3815 39.3176 94.38 38.77V38.13H88.42C88.2319 38.1307 88.0518 38.2058 87.9188 38.3387C87.7858 38.4717 87.7107 38.6519 87.71 38.84V64.55C87.71 64.7396 87.6347 64.9215 87.5006 65.0556C87.3665 65.1897 87.1846 65.265 86.995 65.265C86.8054 65.265 86.6235 65.1897 86.4894 65.0556C86.3553 64.9215 86.28 64.7396 86.28 64.55V38.84C86.2806 38.2726 86.5063 37.7287 86.9075 37.3275C87.3087 36.9263 87.8526 36.7006 88.42 36.7H94.38V36.07C94.3811 35.5213 94.5996 34.9955 94.9875 34.6075C95.3755 34.2195 95.9014 34.0011 96.45 34H104.55C105.099 34.0011 105.625 34.2195 106.013 34.6075C106.4 34.9955 106.619 35.5213 106.62 36.07V36.7H112.58C113.147 36.7006 113.691 36.9263 114.093 37.3275C114.494 37.7287 114.719 38.2726 114.72 38.84V43.38ZM104.55 35.43H96.45C96.3659 35.4297 96.2826 35.4461 96.2048 35.4782C96.127 35.5102 96.0564 35.5574 95.9969 35.6169C95.9374 35.6763 95.8903 35.747 95.8582 35.8248C95.8261 35.9025 95.8098 35.9859 95.81 36.07V38.77C95.8116 38.9383 95.8798 39.0992 95.9998 39.2173C96.1198 39.3354 96.2817 39.4011 96.45 39.4H104.55C104.718 39.4011 104.88 39.3354 105 39.2173C105.12 39.0992 105.188 38.9383 105.19 38.77V36.07C105.19 35.9859 105.174 35.9025 105.142 35.8248C105.11 35.747 105.063 35.6763 105.003 35.6169C104.944 35.5574 104.873 35.5102 104.795 35.4782C104.717 35.4461 104.634 35.4297 104.55 35.43ZM102.93 53.39V55.25H104.78C104.828 55.251 104.875 55.2424 104.919 55.2247C104.963 55.207 105.003 55.1805 105.037 55.1469C105.071 55.1132 105.097 55.0731 105.115 55.029C105.132 54.9848 105.141 54.9376 105.14 54.89V47.06L100.86 44.2C100.753 44.1293 100.628 44.0911 100.5 44.09C100.371 44.0848 100.244 44.1236 100.14 44.2L95.86 47.06V54.89C95.859 54.9376 95.8676 54.9848 95.8853 55.029C95.903 55.0731 95.9295 55.1132 95.9631 55.1469C95.9968 55.1805 96.0369 55.207 96.081 55.2247C96.1252 55.2424 96.1725 55.251 96.22 55.25H98.07V53.39C98.07 52.7455 98.326 52.1274 98.7817 51.6717C99.2375 51.216 99.8555 50.96 100.5 50.96C101.144 50.96 101.763 51.216 102.218 51.6717C102.674 52.1274 102.93 52.7455 102.93 53.39ZM100.86 44.2C100.753 44.1293 100.628 44.0911 100.5 44.09C100.371 44.0848 100.244 44.1236 100.14 44.2L95.86 47.06V54.89C95.859 54.9376 95.8676 54.9848 95.8853 55.029C95.903 55.0731 95.9295 55.1132 95.9631 55.1469C95.9968 55.1805 96.0369 55.207 96.081 55.2247C96.1252 55.2424 96.1725 55.251 96.22 55.25H98.07V53.39C98.07 52.7455 98.326 52.1274 98.7817 51.6717C99.2375 51.216 99.8555 50.96 100.5 50.96C101.144 50.96 101.763 51.216 102.218 51.6717C102.674 52.1274 102.93 52.7455 102.93 53.39V55.25H104.78C104.828 55.251 104.875 55.2424 104.919 55.2247C104.963 55.207 105.003 55.1805 105.037 55.1469C105.071 55.1132 105.097 55.0731 105.115 55.029C105.132 54.9848 105.141 54.9376 105.14 54.89V47.06L100.86 44.2ZM104.55 35.43H96.45C96.3659 35.4297 96.2826 35.4461 96.2048 35.4782C96.127 35.5102 96.0564 35.5574 95.9969 35.6169C95.9374 35.6763 95.8903 35.747 95.8582 35.8248C95.8261 35.9025 95.8098 35.9859 95.81 36.07V38.77C95.8116 38.9383 95.8798 39.0992 95.9998 39.2173C96.1198 39.3354 96.2817 39.4011 96.45 39.4H104.55C104.718 39.4011 104.88 39.3354 105 39.2173C105.12 39.0992 105.188 38.9383 105.19 38.77V36.07C105.19 35.9859 105.174 35.9025 105.142 35.8248C105.11 35.747 105.063 35.6763 105.003 35.6169C104.944 35.5574 104.873 35.5102 104.795 35.4782C104.717 35.4461 104.634 35.4297 104.55 35.43ZM104.55 35.43H96.45C96.3659 35.4297 96.2826 35.4461 96.2048 35.4782C96.127 35.5102 96.0564 35.5574 95.9969 35.6169C95.9374 35.6763 95.8903 35.747 95.8582 35.8248C95.8261 35.9025 95.8098 35.9859 95.81 36.07V38.77C95.8116 38.9383 95.8798 39.0992 95.9998 39.2173C96.1198 39.3354 96.2817 39.4011 96.45 39.4H104.55C104.718 39.4011 104.88 39.3354 105 39.2173C105.12 39.0992 105.188 38.9383 105.19 38.77V36.07C105.19 35.9859 105.174 35.9025 105.142 35.8248C105.11 35.747 105.063 35.6763 105.003 35.6169C104.944 35.5574 104.873 35.5102 104.795 35.4782C104.717 35.4461 104.634 35.4297 104.55 35.43ZM100.86 44.2C100.753 44.1293 100.628 44.0911 100.5 44.09C100.371 44.0848 100.244 44.1236 100.14 44.2L95.86 47.06V54.89C95.859 54.9376 95.8676 54.9848 95.8853 55.029C95.903 55.0731 95.9295 55.1132 95.9631 55.1469C95.9968 55.1805 96.0369 55.207 96.081 55.2247C96.1252 55.2424 96.1725 55.251 96.22 55.25H98.07V53.39C98.07 52.7455 98.326 52.1274 98.7817 51.6717C99.2375 51.216 99.8555 50.96 100.5 50.96C101.144 50.96 101.763 51.216 102.218 51.6717C102.674 52.1274 102.93 52.7455 102.93 53.39V55.25H104.78C104.828 55.251 104.875 55.2424 104.919 55.2247C104.963 55.207 105.003 55.1805 105.037 55.1469C105.071 55.1132 105.097 55.0731 105.115 55.029C105.132 54.9848 105.141 54.9376 105.14 54.89V47.06L100.86 44.2ZM100.86 44.2C100.753 44.1293 100.628 44.0911 100.5 44.09C100.371 44.0848 100.244 44.1236 100.14 44.2L95.86 47.06V54.89C95.859 54.9376 95.8676 54.9848 95.8853 55.029C95.903 55.0731 95.9295 55.1132 95.9631 55.1469C95.9968 55.1805 96.0369 55.207 96.081 55.2247C96.1252 55.2424 96.1725 55.251 96.22 55.25H98.07V53.39C98.07 52.7455 98.326 52.1274 98.7817 51.6717C99.2375 51.216 99.8555 50.96 100.5 50.96C101.144 50.96 101.763 51.216 102.218 51.6717C102.674 52.1274 102.93 52.7455 102.93 53.39V55.25H104.78C104.828 55.251 104.875 55.2424 104.919 55.2247C104.963 55.207 105.003 55.1805 105.037 55.1469C105.071 55.1132 105.097 55.0731 105.115 55.029C105.132 54.9848 105.141 54.9376 105.14 54.89V47.06L100.86 44.2ZM104.55 35.43H96.45C96.3659 35.4297 96.2826 35.4461 96.2048 35.4782C96.127 35.5102 96.0564 35.5574 95.9969 35.6169C95.9374 35.6763 95.8903 35.747 95.8582 35.8248C95.8261 35.9025 95.8098 35.9859 95.81 36.07V38.77C95.8116 38.9383 95.8798 39.0992 95.9998 39.2173C96.1198 39.3354 96.2817 39.4011 96.45 39.4H104.55C104.718 39.4011 104.88 39.3354 105 39.2173C105.12 39.0992 105.188 38.9383 105.19 38.77V36.07C105.19 35.9859 105.174 35.9025 105.142 35.8248C105.11 35.747 105.063 35.6763 105.003 35.6169C104.944 35.5574 104.873 35.5102 104.795 35.4782C104.717 35.4461 104.634 35.4297 104.55 35.43ZM104.55 35.43H96.45C96.3659 35.4297 96.2826 35.4461 96.2048 35.4782C96.127 35.5102 96.0564 35.5574 95.9969 35.6169C95.9374 35.6763 95.8903 35.747 95.8582 35.8248C95.8261 35.9025 95.8098 35.9859 95.81 36.07V38.77C95.8116 38.9383 95.8798 39.0992 95.9998 39.2173C96.1198 39.3354 96.2817 39.4011 96.45 39.4H104.55C104.718 39.4011 104.88 39.3354 105 39.2173C105.12 39.0992 105.188 38.9383 105.19 38.77V36.07C105.19 35.9859 105.174 35.9025 105.142 35.8248C105.11 35.747 105.063 35.6763 105.003 35.6169C104.944 35.5574 104.873 35.5102 104.795 35.4782C104.717 35.4461 104.634 35.4297 104.55 35.43ZM100.86 44.2C100.753 44.1293 100.628 44.0911 100.5 44.09C100.371 44.0848 100.244 44.1236 100.14 44.2L95.86 47.06V54.89C95.859 54.9376 95.8676 54.9848 95.8853 55.029C95.903 55.0731 95.9295 55.1132 95.9631 55.1469C95.9968 55.1805 96.0369 55.207 96.081 55.2247C96.1252 55.2424 96.1725 55.251 96.22 55.25H98.07V53.39C98.07 52.7455 98.326 52.1274 98.7817 51.6717C99.2375 51.216 99.8555 50.96 100.5 50.96C101.144 50.96 101.763 51.216 102.218 51.6717C102.674 52.1274 102.93 52.7455 102.93 53.39V55.25H104.78C104.828 55.251 104.875 55.2424 104.919 55.2247C104.963 55.207 105.003 55.1805 105.037 55.1469C105.071 55.1132 105.097 55.0731 105.115 55.029C105.132 54.9848 105.141 54.9376 105.14 54.89V47.06L100.86 44.2Z" fill="white"/>
</g>
<path d="M73.932 111V109.144H75.612V111H73.932ZM67.404 111C65.6867 111 64.38 110.669 63.484 110.008C62.588 109.336 62.14 108.344 62.14 107.032C62.14 106.776 62.156 106.509 62.188 106.232C62.22 105.944 62.2573 105.672 62.3 105.416C62.3533 105.149 62.4013 104.915 62.444 104.712C62.4867 104.509 62.5187 104.36 62.54 104.264L64.62 104.664C64.588 104.835 64.5453 105.053 64.492 105.32C64.4387 105.587 64.3907 105.869 64.348 106.168C64.3053 106.456 64.284 106.733 64.284 107C64.284 107.555 64.4013 107.992 64.636 108.312C64.8707 108.621 65.228 108.84 65.708 108.968C66.188 109.085 66.7907 109.144 67.516 109.144H73.036L71.788 110.184V99.688H73.932V111H67.404ZM75.612 111V109.144C75.74 109.144 75.8253 109.229 75.868 109.4C75.9107 109.56 75.932 109.784 75.932 110.072C75.932 110.349 75.9107 110.573 75.868 110.744C75.8253 110.915 75.74 111 75.612 111ZM67.068 104.968C66.8653 104.723 66.7107 104.488 66.604 104.264C66.4973 104.04 66.444 103.8 66.444 103.544C66.444 103.181 66.54 102.856 66.732 102.568C66.924 102.269 67.1747 102.04 67.484 101.88C67.7933 101.709 68.1347 101.624 68.508 101.624C68.7107 101.624 68.9187 101.651 69.132 101.704C69.3453 101.757 69.5267 101.837 69.676 101.944L69.132 102.92C69.036 102.867 68.94 102.835 68.844 102.824C68.7587 102.803 68.668 102.792 68.572 102.792C68.316 102.792 68.1187 102.861 67.98 103C67.8413 103.128 67.772 103.304 67.772 103.528C67.772 103.656 67.7987 103.779 67.852 103.896C67.9053 104.013 67.9853 104.141 68.092 104.28L67.068 104.968ZM66.092 105.096V103.928H69.964V105.096H66.092ZM79.4334 111V109.144H81.1134V111H79.4334ZM75.6094 111V109.144H78.5374L77.2894 110.184V102.968H79.4334V111H75.6094ZM75.6094 111C75.4814 111 75.396 110.915 75.3534 110.744C75.3107 110.573 75.2894 110.349 75.2894 110.072C75.2894 109.784 75.3107 109.56 75.3534 109.4C75.396 109.229 75.4814 109.144 75.6094 109.144V111ZM81.1134 111V109.144C81.2414 109.144 81.3267 109.229 81.3694 109.4C81.412 109.56 81.4334 109.784 81.4334 110.072C81.4334 110.349 81.412 110.573 81.3694 110.744C81.3267 110.915 81.2414 111 81.1134 111ZM77.2894 114.408V112.584H79.4334V114.408H77.2894ZM85.0614 111V109.144H86.7414V111H85.0614ZM82.9174 111V99.688H85.0614V111H82.9174ZM81.1094 111V109.144H82.9174V111H81.1094ZM81.1094 111C80.9814 111 80.896 110.915 80.8534 110.744C80.8107 110.573 80.7894 110.349 80.7894 110.072C80.7894 109.784 80.8107 109.56 80.8534 109.4C80.896 109.229 80.9814 109.144 81.1094 109.144V111ZM86.7414 111V109.144C86.8694 109.144 86.9547 109.229 86.9974 109.4C87.04 109.56 87.0614 109.784 87.0614 110.072C87.0614 110.349 87.04 110.573 86.9974 110.744C86.9547 110.915 86.8694 111 86.7414 111ZM86.7344 111V109.144H97.9024L96.0944 110.712V107.352C96.0944 106.744 96.0144 106.259 95.8544 105.896C95.6944 105.523 95.4597 105.251 95.1504 105.08C94.8517 104.909 94.489 104.824 94.0624 104.824C93.6037 104.824 93.1717 104.915 92.7664 105.096C92.361 105.277 91.977 105.512 91.6144 105.8C91.2624 106.088 90.937 106.397 90.6384 106.728C90.3397 107.059 90.073 107.379 89.8384 107.688C89.6037 107.987 89.401 108.243 89.2304 108.456L88.7504 106.904C89.1877 106.349 89.593 105.832 89.9664 105.352C90.3504 104.872 90.7504 104.456 91.1664 104.104C91.5824 103.741 92.041 103.464 92.5424 103.272C93.0437 103.069 93.625 102.968 94.2864 102.968C95.001 102.968 95.6037 103.091 96.0944 103.336C96.5957 103.571 97.0064 103.896 97.3264 104.312C97.6464 104.728 97.8757 105.197 98.0144 105.72C98.153 106.243 98.2224 106.787 98.2224 107.352V111H86.7344ZM87.8384 109.144V99.688H89.9664V109.144H87.8384ZM86.7344 111C86.6064 111 86.521 110.915 86.4784 110.744C86.4357 110.573 86.4144 110.349 86.4144 110.072C86.4144 109.784 86.4357 109.56 86.4784 109.4C86.521 109.229 86.6064 109.144 86.7344 109.144V111ZM118.364 111V109.144H120.044V111H118.364ZM108.956 111C107.239 111 105.932 110.669 105.036 110.008C104.14 109.336 103.692 108.344 103.692 107.032C103.692 106.776 103.708 106.509 103.74 106.232C103.772 105.944 103.809 105.672 103.852 105.416C103.905 105.149 103.953 104.915 103.996 104.712C104.039 104.509 104.071 104.36 104.092 104.264L106.172 104.664C106.14 104.835 106.097 105.053 106.044 105.32C105.991 105.587 105.943 105.869 105.9 106.168C105.857 106.456 105.836 106.733 105.836 107C105.836 107.555 105.953 107.992 106.188 108.312C106.423 108.621 106.78 108.84 107.26 108.968C107.74 109.085 108.343 109.144 109.068 109.144H116.86L116.22 109.704V104.36L116.764 104.824H114.748C114.268 104.824 113.895 104.883 113.628 105C113.372 105.117 113.185 105.336 113.068 105.656C112.961 105.965 112.908 106.408 112.908 106.984C112.908 107.613 112.961 108.083 113.068 108.392C113.185 108.691 113.372 108.893 113.628 109C113.895 109.096 114.268 109.144 114.748 109.144V110.808C113.831 110.808 113.079 110.68 112.492 110.424C111.916 110.168 111.484 109.763 111.196 109.208C110.919 108.643 110.78 107.901 110.78 106.984C110.78 106.109 110.919 105.373 111.196 104.776C111.484 104.179 111.916 103.731 112.492 103.432C113.079 103.123 113.831 102.968 114.748 102.968H118.364V111H108.956ZM120.044 111V109.144C120.172 109.144 120.257 109.229 120.3 109.4C120.343 109.56 120.364 109.784 120.364 110.072C120.364 110.349 120.343 110.573 120.3 110.744C120.257 110.915 120.172 111 120.044 111ZM113.9 101.496V99.672H116.044V101.496H113.9ZM120.047 111V109.144H132.143L130.335 110.712V107.352C130.335 106.744 130.255 106.259 130.095 105.896C129.935 105.523 129.7 105.251 129.391 105.08C129.092 104.909 128.73 104.824 128.303 104.824C127.844 104.824 127.407 104.915 126.991 105.096C126.586 105.277 126.207 105.512 125.855 105.8C125.503 106.088 125.178 106.397 124.879 106.728C124.58 107.059 124.314 107.379 124.079 107.688C123.844 107.987 123.642 108.243 123.471 108.456L122.991 106.904C123.407 106.403 123.78 105.944 124.111 105.528C124.442 105.112 124.756 104.744 125.055 104.424C125.364 104.104 125.684 103.837 126.015 103.624C126.356 103.411 126.724 103.251 127.119 103.144C127.524 103.027 127.994 102.968 128.527 102.968C129.242 102.968 129.85 103.091 130.351 103.336C130.852 103.571 131.258 103.896 131.567 104.312C131.887 104.728 132.116 105.197 132.255 105.72C132.404 106.243 132.479 106.787 132.479 107.352V111H120.047ZM122.063 109.144V102.968H124.207V109.144H122.063ZM120.047 111C119.919 111 119.834 110.915 119.791 110.744C119.748 110.573 119.727 110.349 119.727 110.072C119.727 109.784 119.748 109.56 119.791 109.4C119.834 109.229 119.919 109.144 120.047 109.144V111ZM126.383 101.512V99.688H128.527V101.512H126.383ZM135.018 111V99.688H137.146V111H135.018ZM135.114 98.408C134.911 98.1627 134.757 97.928 134.65 97.704C134.543 97.48 134.49 97.24 134.49 96.984C134.49 96.6213 134.586 96.296 134.778 96.008C134.97 95.7093 135.221 95.48 135.53 95.32C135.839 95.1493 136.181 95.064 136.554 95.064C136.757 95.064 136.965 95.0907 137.178 95.144C137.391 95.1973 137.573 95.2773 137.722 95.384L137.178 96.36C137.082 96.3067 136.986 96.2747 136.89 96.264C136.805 96.2427 136.714 96.232 136.618 96.232C136.362 96.232 136.165 96.3013 136.026 96.44C135.887 96.568 135.818 96.744 135.818 96.968C135.818 97.096 135.845 97.2187 135.898 97.336C135.951 97.4533 136.031 97.5813 136.138 97.72L135.114 98.408ZM134.138 98.536V97.368H138.01V98.536H134.138Z" fill="white"/>
</g>
</g>
<defs>
<filter id="filter0_dd_947_60863" x="0.5" y="0" width="199" height="147" filterUnits="userSpaceOnUse" color-interpolation-filters="sRGB">
<feFlood flood-opacity="0" result="BackgroundImageFix"/>
<feColorMatrix in="SourceAlpha" type="matrix" values="0 0 0 0 0 0 0 0 0 0 0 0 0 0 0 0 0 0 127 0" result="hardAlpha"/>
<feMorphology radius="2" operator="erode" in="SourceAlpha" result="effect1_dropShadow_947_60863"/>
<feOffset dy="2"/>
<feGaussianBlur stdDeviation="2"/>
<feColorMatrix type="matrix" values="0 0 0 0 0 0 0 0 0 0 0 0 0 0 0 0 0 0 0.05 0"/>
<feBlend mode="normal" in2="BackgroundImageFix" result="effect1_dropShadow_947_60863"/>
<feColorMatrix in="SourceAlpha" type="matrix" values="0 0 0 0 0 0 0 0 0 0 0 0 0 0 0 0 0 0 127 0" result="hardAlpha"/>
<feMorphology radius="1" operator="erode" in="SourceAlpha" result="effect2_dropShadow_947_60863"/>
<feOffset dy="4"/>
<feGaussianBlur stdDeviation="3"/>
<feColorMatrix type="matrix" values="0 0 0 0 0 0 0 0 0 0 0 0 0 0 0 0 0 0 0.1 0"/>
<feBlend mode="normal" in2="effect1_dropShadow_947_60863" result="effect2_dropShadow_947_60863"/>
<feBlend mode="normal" in="SourceGraphic" in2="effect2_dropShadow_947_60863" result="shape"/>
</filter>
<linearGradient id="paint0_linear_947_60863" x1="-17.9157" y1="-169.937" x2="204.441" y2="21.7647" gradientUnits="userSpaceOnUse">
<stop stop-color="white"/>
<stop offset="1" stop-color="white" stop-opacity="0"/>
</linearGradient>
<clipPath id="clip0_947_60863">
<path d="M5.5 25C5.5 11.7452 16.2452 1 29.5 1H170.5C183.755 1 194.5 11.7452 194.5 25V114C194.5 127.255 183.755 138 170.5 138H29.5C16.2452 138 5.5 127.255 5.5 114V25Z" fill="white"/>
</clipPath>
<clipPath id="clip1_947_60863">
<rect width="64" height="64" fill="white" transform="translate(68.5 22)"/>
</clipPath>
</defs>
</svg>
