<svg width="166.6" height="122.5" viewBox="0 0 200 147" fill="none" xmlns="http://www.w3.org/2000/svg">
<g filter="url(#filter0_dd_947_60862)">
<g clip-path="url(#clip0_947_60862)">
<path d="M5.5 25C5.5 11.7452 16.2452 1 29.5 1H170.5C183.755 1 194.5 11.7452 194.5 25V114C194.5 127.255 183.755 138 170.5 138H29.5C16.2452 138 5.5 127.255 5.5 114V25Z" fill="#98CC5D"/>
<path d="M-49.9482 -98.4532C39.3585 -388.724 496.208 -269.81 183.593 -187.731C153.588 -181.363 142.753 -157.172 165.344 -149.065C320.186 -93.4306 249.161 46.3308 131.904 -8.59797C89.4385 -32.0741 77.6903 13.5088 85.3941 43.3092C92.9109 72.318 103.446 133.104 43.4599 161.491C-16.5265 189.878 -97.0803 23.3869 -49.9482 -98.4532Z" fill="url(#paint0_linear_947_60862)"/>
<g clip-path="url(#clip1_947_60862)">
<path d="M109.07 56.66C98.65 57.09 98.64 71.94 109.07 72.37C111.153 72.37 113.151 71.5424 114.624 70.0693C116.097 68.5962 116.925 66.5983 116.925 64.515C116.925 62.4317 116.097 60.4338 114.624 58.9607C113.151 57.4876 111.153 56.66 109.07 56.66ZM112.65 65.23H109.79V68.09C109.79 68.2796 109.715 68.4615 109.581 68.5956C109.446 68.7296 109.265 68.805 109.075 68.805C108.885 68.805 108.703 68.7296 108.569 68.5956C108.435 68.4615 108.36 68.2796 108.36 68.09V65.23H105.5C105.313 65.2255 105.136 65.1481 105.005 65.0145C104.875 64.8809 104.802 64.7017 104.802 64.515C104.802 64.3283 104.875 64.149 105.005 64.0154C105.136 63.8818 105.313 63.8045 105.5 63.8H108.36V60.94C108.364 60.7533 108.442 60.5759 108.575 60.4455C108.709 60.3151 108.888 60.2421 109.075 60.2421C109.262 60.2421 109.441 60.3151 109.575 60.4455C109.708 60.5759 109.785 60.7533 109.79 60.94V63.8H112.65C112.84 63.8 113.021 63.8753 113.156 64.0094C113.29 64.1435 113.365 64.3253 113.365 64.515C113.365 64.7046 113.29 64.8865 113.156 65.0206C113.021 65.1546 112.84 65.23 112.65 65.23Z" fill="white"/>
<path d="M100.5 22C94.171 22 87.9841 23.8768 82.7218 27.393C77.4594 30.9092 73.3579 35.9069 70.9359 41.7541C68.5139 47.6014 67.8802 54.0355 69.1149 60.2429C70.3496 66.4503 73.3973 72.1521 77.8726 76.6274C82.3479 81.1027 88.0497 84.1504 94.2571 85.3851C100.465 86.6199 106.899 85.9861 112.746 83.5641C118.593 81.1421 123.591 77.0406 127.107 71.7782C130.623 66.5159 132.5 60.329 132.5 54C132.499 45.5134 129.127 37.3747 123.126 31.3738C117.125 25.3728 108.987 22.0011 100.5 22ZM109.07 73.8C106.607 73.8 104.246 72.8218 102.505 71.0805C100.763 69.3392 99.785 66.9775 99.785 64.515C99.785 62.0525 100.763 59.6908 102.505 57.9495C104.246 56.2082 106.607 55.23 109.07 55.23C121.39 55.74 121.39 73.29 109.07 73.8ZM120.41 51.36C120.307 51.6378 120.121 51.8776 119.878 52.0473C119.635 52.217 119.346 52.3087 119.05 52.31H114.78V54.23C114.777 54.4176 114.7 54.5964 114.566 54.7279C114.433 54.8594 114.253 54.9331 114.065 54.9331C113.877 54.9331 113.697 54.8594 113.564 54.7279C113.43 54.5964 113.353 54.4176 113.35 54.23V51.59C113.351 51.4019 113.426 51.2217 113.559 51.0888C113.692 50.9558 113.872 50.8807 114.06 50.88H119.05L113.6 46.16C113.522 46.0935 113.459 46.0108 113.416 45.9175C113.372 45.8243 113.35 45.7228 113.35 45.62V37.63H109.45V41.05C109.447 41.1855 109.407 41.3176 109.332 41.431C109.258 41.5443 109.153 41.6344 109.03 41.6908C108.906 41.7472 108.77 41.7677 108.635 41.7498C108.501 41.732 108.374 41.6766 108.27 41.59L101.94 36.16C101.537 35.8163 101.025 35.6276 100.495 35.6276C99.9654 35.6276 99.453 35.8163 99.05 36.16L81.93 50.84L86.93 50.88C87.1181 50.8807 87.2983 50.9558 87.4313 51.0888C87.5643 51.2217 87.6393 51.4019 87.64 51.59V65.82C87.6401 67.0701 88.136 68.2691 89.019 69.154C89.902 70.0388 91.0999 70.5373 92.35 70.54H99.84C100.027 70.5436 100.206 70.6205 100.337 70.7542C100.468 70.8879 100.542 71.0677 100.542 71.255C100.542 71.4423 100.468 71.6221 100.337 71.7558C100.206 71.8895 100.027 71.9664 99.84 71.97H92.35C90.7212 71.9657 89.1604 71.3161 88.0096 70.1634C86.8588 69.0107 86.2117 67.4488 86.21 65.82V52.31H81.94C81.6467 52.3039 81.362 52.2096 81.1231 52.0393C80.8842 51.8691 80.7021 51.6308 80.6006 51.3555C80.4992 51.0802 80.483 50.7807 80.5542 50.4961C80.6255 50.2115 80.7808 49.955 81 49.76L98.12 35.08C98.7796 34.5092 99.6227 34.195 100.495 34.195C101.367 34.195 102.21 34.5092 102.87 35.08L108.02 39.49V36.92C108.019 36.8261 108.037 36.733 108.072 36.646C108.108 36.559 108.16 36.4798 108.226 36.4129C108.292 36.3461 108.37 36.2928 108.457 36.2563C108.543 36.2198 108.636 36.2006 108.73 36.2H114.06C114.155 36.1996 114.248 36.218 114.336 36.254C114.424 36.29 114.503 36.3431 114.57 36.41C114.637 36.4769 114.69 36.5565 114.726 36.644C114.762 36.7315 114.78 36.8253 114.78 36.92V45.29L119.99 49.75C120.217 49.9426 120.379 50.2006 120.454 50.4887C120.53 50.7768 120.514 51.081 120.41 51.36Z" fill="white"/>
</g>
<path d="M62.904 111C61.1867 111 59.88 110.669 58.984 110.008C58.088 109.336 57.64 108.344 57.64 107.032C57.64 106.776 57.656 106.509 57.688 106.232C57.72 105.944 57.7573 105.672 57.8 105.416C57.8533 105.149 57.9013 104.915 57.944 104.712C57.9867 104.509 58.0187 104.36 58.04 104.264L60.12 104.664C60.088 104.835 60.0453 105.053 59.992 105.32C59.9387 105.587 59.8907 105.869 59.848 106.168C59.8053 106.456 59.784 106.733 59.784 107C59.784 107.555 59.9013 107.992 60.136 108.312C60.3707 108.621 60.728 108.84 61.208 108.968C61.688 109.085 62.2907 109.144 63.016 109.144H68.536L67.288 110.184V99.688H69.432V111H62.904ZM62.568 104.968C62.3653 104.723 62.2107 104.488 62.104 104.264C61.9973 104.04 61.944 103.8 61.944 103.544C61.944 103.181 62.04 102.856 62.232 102.568C62.424 102.269 62.6747 102.04 62.984 101.88C63.2933 101.709 63.6347 101.624 64.008 101.624C64.2107 101.624 64.4187 101.651 64.632 101.704C64.8453 101.757 65.0267 101.837 65.176 101.944L64.632 102.92C64.536 102.867 64.44 102.835 64.344 102.824C64.2587 102.803 64.168 102.792 64.072 102.792C63.816 102.792 63.6187 102.861 63.48 103C63.3413 103.128 63.272 103.304 63.272 103.528C63.272 103.656 63.2987 103.779 63.352 103.896C63.4053 104.013 63.4853 104.141 63.592 104.28L62.568 104.968ZM61.592 105.096V103.928H65.464V105.096H61.592ZM71.1393 114.968C71.0006 114.968 70.8513 114.963 70.6913 114.952C70.5312 114.941 70.3659 114.925 70.1952 114.904L70.2752 113.08C70.4459 113.091 70.6059 113.101 70.7553 113.112C70.9153 113.123 71.0326 113.128 71.1073 113.128C71.5233 113.128 71.8539 112.963 72.0993 112.632C72.3553 112.301 72.4833 111.837 72.4833 111.24V102.968H74.6273V111.24C74.6273 111.965 74.4779 112.611 74.1793 113.176C73.8913 113.741 73.4859 114.179 72.9633 114.488C72.4406 114.808 71.8326 114.968 71.1393 114.968ZM79.2711 111V109.144H81.0951V111H79.2711ZM77.1431 111V99.688H79.2711V111H77.1431ZM81.0951 111V109.144C81.2231 109.144 81.3085 109.229 81.3511 109.4C81.3938 109.56 81.4151 109.784 81.4151 110.072C81.4151 110.349 81.3938 110.573 81.3511 110.744C81.3085 110.915 81.2231 111 81.0951 111ZM90.0538 111V109.144H91.7338V111H90.0538ZM81.0938 111V109.144H88.5658L87.9098 109.704V104.36L88.4538 104.824H86.4378C85.9684 104.824 85.6004 104.883 85.3338 105C85.0671 105.117 84.8804 105.336 84.7738 105.656C84.6671 105.965 84.6138 106.408 84.6138 106.984C84.6138 107.613 84.6671 108.083 84.7738 108.392C84.8804 108.691 85.0671 108.893 85.3338 109C85.6004 109.096 85.9684 109.144 86.4378 109.144V110.808C85.5311 110.808 84.7844 110.68 84.1978 110.424C83.6111 110.168 83.1738 109.763 82.8858 109.208C82.6084 108.643 82.4698 107.901 82.4698 106.984C82.4698 106.109 82.6084 105.373 82.8858 104.776C83.1738 104.179 83.6111 103.731 84.1978 103.432C84.7844 103.123 85.5311 102.968 86.4378 102.968H90.0538V111H81.0938ZM81.0938 111C80.9657 111 80.8804 110.915 80.8377 110.744C80.7951 110.573 80.7737 110.349 80.7737 110.072C80.7737 109.784 80.7951 109.56 80.8377 109.4C80.8804 109.229 80.9657 109.144 81.0938 109.144V111ZM91.7338 111V109.144C91.8618 109.144 91.9471 109.229 91.9898 109.4C92.0324 109.56 92.0538 109.784 92.0538 110.072C92.0538 110.349 92.0324 110.573 91.9898 110.744C91.9471 110.915 91.8618 111 91.7338 111ZM84.8058 102.008V100.184H86.9498V102.008H84.8058ZM86.9978 102.008V100.184H89.1418V102.008H86.9978ZM94.7424 110.744C94.1984 110.232 93.7877 109.688 93.5104 109.112C93.2437 108.536 93.1104 107.923 93.1104 107.272C93.1104 106.643 93.2277 106.067 93.4624 105.544C93.697 105.011 94.017 104.552 94.4224 104.168C94.8277 103.784 95.297 103.491 95.8304 103.288C96.3744 103.075 96.945 102.968 97.5424 102.968C97.8624 102.968 98.1984 103 98.5504 103.064C98.9024 103.128 99.2384 103.213 99.5584 103.32L98.9184 105.064C98.6944 104.989 98.4704 104.931 98.2464 104.888C98.033 104.845 97.825 104.824 97.6224 104.824C97.153 104.824 96.737 104.931 96.3744 105.144C96.0117 105.347 95.729 105.629 95.5264 105.992C95.3344 106.355 95.2384 106.771 95.2384 107.24C95.2384 108.115 95.5797 108.851 96.2624 109.448L94.7424 110.744ZM91.7344 111V109.144H99.7024V111H91.7344ZM91.7344 111C91.6064 111 91.521 110.915 91.4784 110.744C91.4357 110.573 91.4144 110.349 91.4144 110.072C91.4144 109.784 91.4357 109.56 91.4784 109.4C91.521 109.229 91.6064 109.144 91.7344 109.144V111ZM109.941 114.968C109.013 114.968 108.181 114.797 107.445 114.456C106.719 114.125 106.149 113.661 105.733 113.064C105.317 112.467 105.109 111.789 105.109 111.032C105.109 110.819 105.125 110.536 105.157 110.184C105.189 109.832 105.231 109.437 105.285 109C105.349 108.563 105.413 108.12 105.477 107.672C105.551 107.213 105.621 106.771 105.685 106.344L107.797 106.632C107.679 107.347 107.578 108.003 107.493 108.6C107.418 109.187 107.359 109.688 107.317 110.104C107.274 110.52 107.253 110.824 107.253 111.016C107.253 111.443 107.359 111.811 107.573 112.12C107.786 112.429 108.09 112.669 108.485 112.84C108.89 113.021 109.375 113.112 109.941 113.112C110.527 113.112 111.002 113.027 111.365 112.856C111.727 112.685 111.989 112.451 112.149 112.152C112.319 111.853 112.405 111.517 112.405 111.144V102.968H114.549V111.144C114.549 111.912 114.346 112.584 113.941 113.16C113.546 113.736 113.002 114.179 112.309 114.488C111.615 114.808 110.826 114.968 109.941 114.968ZM114.517 111L114.549 109.144H122.485L120.677 110.712V107.352C120.677 106.744 120.591 106.259 120.421 105.896C120.261 105.523 120.031 105.251 119.733 105.08C119.434 104.909 119.071 104.824 118.645 104.824C118.186 104.824 117.749 104.915 117.333 105.096C116.927 105.277 116.549 105.512 116.197 105.8C115.845 106.088 115.519 106.397 115.221 106.728C114.922 107.059 114.655 107.379 114.421 107.688C114.186 107.987 113.983 108.243 113.813 108.456L113.317 106.904C113.733 106.403 114.106 105.944 114.437 105.528C114.778 105.112 115.098 104.744 115.397 104.424C115.706 104.104 116.026 103.837 116.357 103.624C116.687 103.411 117.055 103.251 117.461 103.144C117.866 103.027 118.335 102.968 118.869 102.968C119.573 102.968 120.175 103.091 120.677 103.336C121.178 103.571 121.583 103.896 121.893 104.312C122.213 104.728 122.442 105.197 122.581 105.72C122.73 106.243 122.805 106.787 122.805 107.352V111H114.517ZM116.725 101.512V99.688H118.869V101.512H116.725ZM127.634 111V109.144H129.698V111H127.634ZM124.53 114.968C124.391 114.968 124.242 114.963 124.082 114.952C123.922 114.941 123.757 114.925 123.586 114.904L123.666 113.08C123.837 113.091 123.997 113.101 124.146 113.112C124.306 113.123 124.423 113.128 124.498 113.128C124.914 113.128 125.245 112.963 125.49 112.632C125.746 112.301 125.874 111.837 125.874 111.24V102.968H128.018V111.24C128.018 111.965 127.869 112.611 127.57 113.176C127.282 113.741 126.877 114.179 126.354 114.488C125.831 114.808 125.223 114.968 124.53 114.968ZM129.698 111V109.144C129.826 109.144 129.911 109.229 129.954 109.4C129.997 109.56 130.018 109.784 130.018 110.072C130.018 110.349 129.997 110.573 129.954 110.744C129.911 110.915 129.826 111 129.698 111ZM132.711 110.744C132.167 110.232 131.756 109.688 131.479 109.112C131.212 108.536 131.079 107.923 131.079 107.272C131.079 106.643 131.196 106.067 131.431 105.544C131.666 105.011 131.986 104.552 132.391 104.168C132.796 103.784 133.266 103.491 133.799 103.288C134.343 103.075 134.914 102.968 135.511 102.968C135.831 102.968 136.167 103 136.519 103.064C136.871 103.128 137.207 103.213 137.527 103.32L136.887 105.064C136.663 104.989 136.439 104.931 136.215 104.888C136.002 104.845 135.794 104.824 135.591 104.824C135.122 104.824 134.706 104.931 134.343 105.144C133.98 105.347 133.698 105.629 133.495 105.992C133.303 106.355 133.207 106.771 133.207 107.24C133.207 108.115 133.548 108.851 134.231 109.448L132.711 110.744ZM129.703 111V109.144H137.671V111H129.703ZM129.703 111C129.575 111 129.49 110.915 129.447 110.744C129.404 110.573 129.383 110.349 129.383 110.072C129.383 109.784 129.404 109.56 129.447 109.4C129.49 109.229 129.575 109.144 129.703 109.144V111ZM140.393 111V99.688H142.521V111H140.393Z" fill="white"/>
</g>
</g>
<defs>
<filter id="filter0_dd_947_60862" x="0.5" y="0" width="199" height="147" filterUnits="userSpaceOnUse" color-interpolation-filters="sRGB">
<feFlood flood-opacity="0" result="BackgroundImageFix"/>
<feColorMatrix in="SourceAlpha" type="matrix" values="0 0 0 0 0 0 0 0 0 0 0 0 0 0 0 0 0 0 127 0" result="hardAlpha"/>
<feMorphology radius="2" operator="erode" in="SourceAlpha" result="effect1_dropShadow_947_60862"/>
<feOffset dy="2"/>
<feGaussianBlur stdDeviation="2"/>
<feColorMatrix type="matrix" values="0 0 0 0 0 0 0 0 0 0 0 0 0 0 0 0 0 0 0.05 0"/>
<feBlend mode="normal" in2="BackgroundImageFix" result="effect1_dropShadow_947_60862"/>
<feColorMatrix in="SourceAlpha" type="matrix" values="0 0 0 0 0 0 0 0 0 0 0 0 0 0 0 0 0 0 127 0" result="hardAlpha"/>
<feMorphology radius="1" operator="erode" in="SourceAlpha" result="effect2_dropShadow_947_60862"/>
<feOffset dy="4"/>
<feGaussianBlur stdDeviation="3"/>
<feColorMatrix type="matrix" values="0 0 0 0 0 0 0 0 0 0 0 0 0 0 0 0 0 0 0.1 0"/>
<feBlend mode="normal" in2="effect1_dropShadow_947_60862" result="effect2_dropShadow_947_60862"/>
<feBlend mode="normal" in="SourceGraphic" in2="effect2_dropShadow_947_60862" result="shape"/>
</filter>
<linearGradient id="paint0_linear_947_60862" x1="-17.9157" y1="-169.937" x2="204.441" y2="21.7647" gradientUnits="userSpaceOnUse">
<stop stop-color="white"/>
<stop offset="1" stop-color="white" stop-opacity="0"/>
</linearGradient>
<clipPath id="clip0_947_60862">
<path d="M5.5 25C5.5 11.7452 16.2452 1 29.5 1H170.5C183.755 1 194.5 11.7452 194.5 25V114C194.5 127.255 183.755 138 170.5 138H29.5C16.2452 138 5.5 127.255 5.5 114V25Z" fill="white"/>
</clipPath>
<clipPath id="clip1_947_60862">
<rect width="64" height="64" fill="white" transform="translate(68.5 22)"/>
</clipPath>
</defs>
</svg>
