<svg width="84" height="84" viewBox="0 0 84 84" fill="none" xmlns="http://www.w3.org/2000/svg">
<g clip-path="url(#clip0_1119_12978)">
<path d="M42.0099 84.0204C65.2114 84.0204 84.0199 65.2119 84.0199 42.0104C84.0199 18.809 65.2114 0.000488281 42.0099 0.000488281C18.8085 0.000488281 0 18.809 0 42.0104C0 65.2119 18.8085 84.0204 42.0099 84.0204Z" fill="#3B73B9"/>
<path fill-rule="evenodd" clip-rule="evenodd" d="M42.0002 67.2991C41.8824 67.2991 41.7648 67.2636 41.663 67.1937L35.0188 62.5993L27.4774 62.5808C27.2263 62.5801 27.0026 62.421 26.9195 62.1838L24.2449 54.5622L18.154 50.1135C17.9511 49.9651 17.8634 49.7054 17.9359 49.4645L20.2521 41.7263L17.9392 34.5476C17.8622 34.3083 17.9443 34.0468 18.144 33.8945L24.5667 28.9954L26.9153 21.8286C26.9936 21.5897 27.2139 21.4263 27.4647 21.4206L35.5397 21.2319L41.6527 16.8145C41.856 16.6671 42.1308 16.6642 42.3374 16.8071L48.9816 21.4011L56.5229 21.4201C56.7737 21.4206 56.9973 21.5794 57.0804 21.8166L59.7555 29.4388L65.846 33.887C66.0487 34.0354 66.1363 34.2956 66.0642 34.536L63.7477 42.2747L66.0607 49.4533C66.1377 49.6925 66.0553 49.9539 65.8555 50.1062L59.4333 55.0058L57.0843 62.1721C57.0064 62.4111 56.7858 62.5749 56.5346 62.5802L48.4596 62.7688L42.3471 67.1866C42.2439 67.2616 42.122 67.2991 42.0002 67.2991ZM41.9499 62.4588C41.8321 62.4588 41.7145 62.4233 41.6127 62.3535L36.2569 58.65L30.2815 58.6355C30.0303 58.6348 29.8067 58.4757 29.7236 58.2386L27.5675 52.0947L22.742 48.5701C22.5391 48.4219 22.4513 48.162 22.5239 47.9211L24.3907 41.6833L22.5589 35.9956C22.4819 35.7565 22.5638 35.495 22.7635 35.3426L27.9406 31.3935L29.8014 25.7153C29.8796 25.4764 30.0999 25.313 30.3507 25.3073L36.8603 25.1553L41.7033 21.6553C41.9073 21.5082 42.181 21.5054 42.3881 21.6478L47.7439 25.3513L53.7193 25.3661C53.97 25.3666 54.1936 25.5254 54.2767 25.7626L56.433 31.9064L61.2586 35.431C61.4613 35.5793 61.5488 35.8391 61.4768 36.08L59.6094 42.3178L61.4418 48.0055C61.5188 48.2447 61.4365 48.5061 61.2367 48.6585L56.06 52.6081L54.1989 58.2863C54.1212 58.5252 53.9005 58.6891 53.6493 58.6943L47.1397 58.8459L42.297 62.3463C42.1938 62.421 42.0717 62.4588 41.9499 62.4588Z" fill="white"/>
<path fill-rule="evenodd" clip-rule="evenodd" d="M42.0002 56.4536C34.0311 56.4536 27.5474 49.9701 27.5474 42.0004C27.5474 34.0313 34.0309 27.5476 42.0002 27.5476C49.9695 27.5476 56.4534 34.0312 56.4534 42.0004C56.4534 49.9697 49.9693 56.4536 42.0002 56.4536ZM42.0002 52.575C36.1697 52.575 31.4258 47.831 31.4258 42.0004C31.4258 36.1699 36.1697 31.4265 42.0002 31.4265C47.8307 31.4265 52.5746 36.1699 52.5746 42.0004C52.5746 47.831 47.8307 52.575 42.0002 52.575Z" fill="white"/>
<path fill-rule="evenodd" clip-rule="evenodd" d="M40.3171 47.5057C39.8592 47.5057 39.429 47.3279 39.107 47.005L35.7326 43.6315C34.895 42.7936 34.895 41.4307 35.7326 40.5931C36.155 40.171 36.7178 39.9389 37.3174 39.9389C37.9173 39.9389 38.4803 40.171 38.9024 40.5931L40.3176 42.0083L45.2039 37.1227C45.608 36.7184 46.1477 36.4956 46.7225 36.4956C47.2974 36.4956 47.8371 36.7183 48.2414 37.1231C49.1151 37.9968 49.1151 39.4188 48.2414 40.2924L41.5277 47.0054C41.2052 47.3279 40.7754 47.5057 40.3171 47.5057Z" fill="white"/>
</g>
<defs>
<clipPath id="clip0_1119_12978">
<rect width="84" height="84" fill="white" transform="translate(0 0.000488281)"/>
</clipPath>
</defs>
</svg>
