<svg width="21" height="21" viewBox="0 0 21 21" fill="none" xmlns="http://www.w3.org/2000/svg">
<path d="M16.9286 9.3473H6.65849L9.11514 6.67267C9.21747 6.56507 9.29909 6.43636 9.35524 6.29405C9.41139 6.15174 9.44094 5.99868 9.44218 5.84381C9.44342 5.68893 9.41631 5.53533 9.36244 5.39198C9.30857 5.24863 9.22902 5.1184 9.12842 5.00888C9.02783 4.89936 8.90821 4.81275 8.77654 4.7541C8.64487 4.69545 8.5038 4.66593 8.36154 4.66728C8.21929 4.66863 8.0787 4.7008 7.94799 4.76194C7.81728 4.82307 7.69906 4.91193 7.60023 5.02333L3.31476 9.68907C3.21498 9.79742 3.13582 9.92614 3.08181 10.0678C3.0278 10.2096 3 10.3615 3 10.5149C3 10.6683 3.0278 10.8202 3.08181 10.962C3.13582 11.1037 3.21498 11.2324 3.31476 11.3407L7.60023 16.0065C7.80229 16.2189 8.07292 16.3365 8.35383 16.3339C8.63474 16.3312 8.90345 16.2085 9.10209 15.9923C9.30073 15.776 9.41341 15.4834 9.41585 15.1776C9.41829 14.8718 9.3103 14.5771 9.11514 14.3571L6.65849 11.6802H16.9286C17.2128 11.6802 17.4853 11.5573 17.6862 11.3385C17.8871 11.1198 18 10.8231 18 10.5137C18 10.2044 17.8871 9.90769 17.6862 9.68894C17.4853 9.47019 17.2128 9.3473 16.9286 9.3473Z" fill="#3B73B9"/>
</svg>
