<svg width="14" height="17" viewBox="0 0 14 17" fill="none" xmlns="http://www.w3.org/2000/svg">
<path d="M4.5 9.33301C4.26389 9.33301 4.06597 9.25315 3.90625 9.09342C3.74653 8.9337 3.66667 8.73579 3.66667 8.49967V3.35384L2.10417 4.91634C1.95139 5.06912 1.76042 5.14551 1.53125 5.14551C1.30208 5.14551 1.10417 5.06912 0.9375 4.91634C0.770833 4.74967 0.6875 4.55176 0.6875 4.32259C0.6875 4.09342 0.770833 3.89551 0.9375 3.72884L3.91667 0.749674C4 0.666341 4.09028 0.607313 4.1875 0.572591C4.28472 0.537869 4.38889 0.520508 4.5 0.520508C4.61111 0.520508 4.71528 0.537869 4.8125 0.572591C4.90972 0.607313 5 0.666341 5.08333 0.749674L8.08333 3.74967C8.25 3.91634 8.32986 4.11079 8.32292 4.33301C8.31597 4.55523 8.22917 4.74967 8.0625 4.91634C7.89583 5.06912 7.70139 5.14898 7.47917 5.15592C7.25694 5.16287 7.0625 5.08301 6.89583 4.91634L5.33333 3.35384V8.49967C5.33333 8.73579 5.25347 8.9337 5.09375 9.09342C4.93403 9.25315 4.73611 9.33301 4.5 9.33301ZM9.5 16.4788C9.38889 16.4788 9.28472 16.4615 9.1875 16.4268C9.09028 16.392 9 16.333 8.91667 16.2497L5.91667 13.2497C5.75 13.083 5.67014 12.8886 5.67708 12.6663C5.68403 12.4441 5.77083 12.2497 5.9375 12.083C6.10417 11.9302 6.29861 11.8504 6.52083 11.8434C6.74306 11.8365 6.9375 11.9163 7.10417 12.083L8.66667 13.6455V8.49967C8.66667 8.26356 8.74653 8.06565 8.90625 7.90592C9.06597 7.7462 9.26389 7.66634 9.5 7.66634C9.73611 7.66634 9.93403 7.7462 10.0938 7.90592C10.2535 8.06565 10.3333 8.26356 10.3333 8.49967V13.6455L11.8958 12.083C12.0486 11.9302 12.2396 11.8538 12.4688 11.8538C12.6979 11.8538 12.8958 11.9302 13.0625 12.083C13.2292 12.2497 13.3125 12.4476 13.3125 12.6768C13.3125 12.9059 13.2292 13.1038 13.0625 13.2705L10.0833 16.2497C10 16.333 9.90972 16.392 9.8125 16.4268C9.71528 16.4615 9.61111 16.4788 9.5 16.4788Z" fill="#3B73B9"/>
</svg>
