<svg width="44" height="44" viewBox="0 0 44 44" fill="none" xmlns="http://www.w3.org/2000/svg">
<g filter="url(#filter0_d_2813_55809)">
<path d="M2 21C2 9.95431 10.9543 1 22 1C33.0457 1 42 9.95431 42 21C42 32.0457 33.0457 41 22 41C10.9543 41 2 32.0457 2 21Z" fill="#F3F4F6"/>
<path d="M2.5 21C2.5 10.2304 11.2304 1.5 22 1.5C32.7696 1.5 41.5 10.2304 41.5 21C41.5 31.7696 32.7696 40.5 22 40.5C11.2304 40.5 2.5 31.7696 2.5 21Z" stroke="#E5E7EB"/>
<path d="M32.7357 17.86C32.7458 17.8426 32.7595 17.8279 32.7687 17.8096C32.7696 17.8078 32.7705 17.8059 32.7705 17.8041C32.7925 17.7629 32.8072 17.7189 32.8227 17.6749C32.8612 17.5631 32.8768 17.4477 32.8731 17.3341C32.8722 17.3103 32.8749 17.2864 32.8722 17.2626C32.8649 17.2021 32.853 17.1408 32.8346 17.0821C32.8319 17.0711 32.8246 17.062 32.8218 17.051C32.8053 17.0015 32.7852 16.9538 32.7595 16.909C32.7586 16.9071 32.7586 16.9053 32.7577 16.9034C32.7485 16.8879 32.7366 16.8741 32.7265 16.8586C32.7036 16.8228 32.6807 16.7862 32.6532 16.7532C32.6331 16.7294 32.6102 16.7101 32.5872 16.6881C32.5643 16.6671 32.5433 16.6432 32.5185 16.624C32.4865 16.5974 32.4507 16.5773 32.4159 16.5562C32.3994 16.5461 32.3848 16.5333 32.3664 16.5241L24.7975 12.5642C24.5254 12.4222 24.2038 12.4194 23.9289 12.556L22.2559 13.3934L17.6152 11.0992C17.3404 10.9626 17.0151 10.9672 16.7448 11.112L11.5049 13.9074C11.1906 14.0742 10.9955 14.4031 11.0001 14.7595C11.0037 15.115 11.2062 15.4393 11.5242 15.5997L19.4733 19.6109L12.0253 23.634C12.0079 23.6441 11.9942 23.656 11.9768 23.6661C11.941 23.6881 11.9044 23.7092 11.8723 23.7376C11.8467 23.7577 11.8256 23.7825 11.8027 23.8054C11.7816 23.8265 11.7596 23.8457 11.7404 23.8686C11.712 23.9043 11.6881 23.9428 11.6652 23.9804C11.6561 23.995 11.6451 24.007 11.6368 24.0216C11.6359 24.0234 11.6359 24.0244 11.635 24.0253C11.6075 24.0775 11.5874 24.1316 11.569 24.1865C11.559 24.2204 11.5535 24.2543 11.5461 24.2873C11.5406 24.3185 11.5324 24.3496 11.5287 24.3808C11.5251 24.4147 11.5287 24.4495 11.5287 24.4834C11.5287 24.5118 11.5269 24.5384 11.5287 24.5668C11.5333 24.6098 11.5434 24.651 11.5535 24.6941C11.558 24.7124 11.559 24.7308 11.5645 24.7482C11.5828 24.8077 11.6075 24.8664 11.6368 24.9223C11.6378 24.9232 11.6378 24.9241 11.6378 24.925C11.6405 24.9287 11.6442 24.9314 11.6451 24.9351C11.6808 24.9992 11.7257 25.0578 11.7761 25.1128C11.7908 25.1293 11.8063 25.1449 11.8219 25.1596C11.8641 25.1999 11.9117 25.2356 11.9621 25.2695C11.9777 25.2796 11.9933 25.2924 12.0107 25.3016C12.0171 25.3043 12.0216 25.3098 12.0271 25.3126L21.489 30.3793C21.5303 30.4013 21.5733 30.4123 21.6155 30.4288C21.643 30.4388 21.6677 30.4517 21.6961 30.4599C21.7758 30.481 21.8573 30.4929 21.9389 30.4929C22.0168 30.4929 22.0974 30.4819 22.1753 30.4608C22.2018 30.4544 22.2257 30.4416 22.2513 30.4324C22.2916 30.4196 22.3319 30.4077 22.3713 30.3894L31.7746 25.6149C32.2446 25.3758 32.4315 24.8022 32.1933 24.3331C32.1823 24.3102 32.1667 24.2928 32.1539 24.2717C32.0943 24.0014 31.923 23.7559 31.6564 23.6212L26.936 21.2399L32.3756 18.2091C32.3774 18.2082 32.3793 18.2072 32.3811 18.2063L32.3894 18.2017C32.4013 18.1944 32.4123 18.1853 32.4242 18.177C32.4636 18.1523 32.503 18.1266 32.5405 18.0964C32.5616 18.079 32.5799 18.057 32.5992 18.0368C32.623 18.013 32.6487 17.9901 32.6697 17.9635C32.6945 17.9296 32.7146 17.8948 32.7357 17.86ZM17.2093 13.0232L20.2274 14.5149L17.1186 16.285L14.0227 14.7228L17.2093 13.0232ZM29.4602 24.6492L21.9499 28.4625L14.49 24.4678L21.5467 20.6554L29.4602 24.6492ZM21.9728 18.7359L19.1618 17.3167L22.7094 15.2973L24.3449 14.4782L29.9183 17.3936L24.879 20.2009L21.9728 18.7359Z" fill="#374151"/>
</g>
<defs>
<filter id="filter0_d_2813_55809" x="0" y="0" width="44" height="44" filterUnits="userSpaceOnUse" color-interpolation-filters="sRGB">
<feFlood flood-opacity="0" result="BackgroundImageFix"/>
<feColorMatrix in="SourceAlpha" type="matrix" values="0 0 0 0 0 0 0 0 0 0 0 0 0 0 0 0 0 0 127 0" result="hardAlpha"/>
<feOffset dy="1"/>
<feGaussianBlur stdDeviation="1"/>
<feColorMatrix type="matrix" values="0 0 0 0 0 0 0 0 0 0 0 0 0 0 0 0 0 0 0.08 0"/>
<feBlend mode="normal" in2="BackgroundImageFix" result="effect1_dropShadow_2813_55809"/>
<feBlend mode="normal" in="SourceGraphic" in2="effect1_dropShadow_2813_55809" result="shape"/>
</filter>
</defs>
</svg>
