<svg width="137" height="48" viewBox="0 0 137 48" fill="none" xmlns="http://www.w3.org/2000/svg">
<path d="M0 8.00049C0 3.58221 3.58172 0.000488281 8 0.000488281H129C133.418 0.000488281 137 3.58221 137 8.00049V40.0005C137 44.4188 133.418 48.0005 129 48.0005H8C3.58172 48.0005 0 44.4188 0 40.0005V8.00049Z" fill="#31C48D"/>
<path d="M23.118 29.5005V28.3385H24.798V29.5005H23.118ZM21.816 29.5005V19.5045H23.118V29.5005H21.816ZM24.798 29.5005V28.3385C24.91 28.3385 24.9847 28.3898 25.022 28.4925C25.0593 28.5952 25.078 28.7352 25.078 28.9125C25.078 29.0898 25.0593 29.2345 25.022 29.3465C24.9847 29.4492 24.91 29.5005 24.798 29.5005ZM27.607 29.5005V28.3385H29.105V29.5005H27.607ZM24.793 29.5005V28.3385H26.963L26.291 28.8705V22.4865H27.607V29.5005H24.793ZM24.793 29.5005C24.6716 29.5005 24.597 29.4492 24.569 29.3465C24.5316 29.2345 24.513 29.0898 24.513 28.9125C24.513 28.7352 24.5316 28.5952 24.569 28.4925C24.597 28.3898 24.6716 28.3385 24.793 28.3385V29.5005ZM29.105 29.5005V28.3385C29.2263 28.3385 29.301 28.3898 29.329 28.4925C29.3663 28.5952 29.385 28.7352 29.385 28.9125C29.385 29.0898 29.3663 29.2345 29.329 29.3465C29.301 29.4492 29.2263 29.5005 29.105 29.5005ZM26.291 21.2265V19.8685H27.607V21.2265H26.291ZM29.0996 29.5005V28.3385H31.2836C31.7969 28.3385 32.2869 28.2498 32.7536 28.0725C33.2296 27.8952 33.6683 27.6618 34.0696 27.3725C34.4709 27.0832 34.8163 26.7612 35.1056 26.4065C35.4043 26.0518 35.6376 25.6925 35.8056 25.3285C35.9736 24.9645 36.0576 24.6192 36.0576 24.2925V23.4385L36.7296 24.4885C36.1976 24.2085 35.6703 24.0032 35.1476 23.8725C34.6343 23.7325 34.1349 23.6625 33.6496 23.6625C33.1736 23.6625 32.6743 23.7325 32.1516 23.8725C31.6383 24.0032 31.1203 24.2085 30.5976 24.4885L31.2696 23.4385V24.2925C31.2696 24.6192 31.3536 24.9645 31.5216 25.3285C31.6896 25.6925 31.9183 26.0518 32.2076 26.4065C32.4969 26.7612 32.8423 27.0832 33.2436 27.3725C33.6449 27.6618 34.0789 27.8952 34.5456 28.0725C35.0216 28.2498 35.5163 28.3385 36.0296 28.3385H38.1296V29.5005H36.1976C35.4696 29.5005 34.7883 29.3838 34.1536 29.1505C33.5189 28.9172 32.9449 28.6092 32.4316 28.2265C31.9183 27.8345 31.4749 27.4098 31.1016 26.9525C30.7376 26.4858 30.4576 26.0238 30.2616 25.5665C30.0656 25.0998 29.9676 24.6752 29.9676 24.2925V23.4665C30.3689 23.2518 30.7796 23.0745 31.1996 22.9345C31.6196 22.7852 32.0396 22.6732 32.4596 22.5985C32.8796 22.5238 33.2763 22.4865 33.6496 22.4865C34.0416 22.4865 34.4429 22.5238 34.8536 22.5985C35.2643 22.6732 35.6796 22.7852 36.0996 22.9345C36.5289 23.0745 36.9443 23.2518 37.3456 23.4665V24.2925C37.3456 24.6752 37.2476 25.0998 37.0516 25.5665C36.8556 26.0238 36.5709 26.4858 36.1976 26.9525C35.8336 27.4098 35.3949 27.8345 34.8816 28.2265C34.3683 28.6092 33.7943 28.9172 33.1596 29.1505C32.5249 29.3838 31.8436 29.5005 31.1156 29.5005H29.0996ZM29.0996 29.5005C28.9783 29.5005 28.9036 29.4492 28.8756 29.3465C28.8383 29.2345 28.8196 29.0898 28.8196 28.9125C28.8196 28.7352 28.8383 28.5952 28.8756 28.4925C28.9036 28.3898 28.9783 28.3385 29.0996 28.3385V29.5005ZM38.1296 29.5005V28.3385C38.2509 28.3385 38.3256 28.3898 38.3536 28.4925C38.3909 28.5952 38.4096 28.7352 38.4096 28.9125C38.4096 29.0898 38.3909 29.2345 38.3536 29.3465C38.3256 29.4492 38.2509 29.5005 38.1296 29.5005ZM38.123 29.5005V28.3385H45.669L44.843 28.9545V26.0565C44.843 25.4405 44.773 24.9598 44.633 24.6145C44.5024 24.2692 44.269 24.0218 43.933 23.8725C43.597 23.7232 43.1397 23.6485 42.561 23.6485C42.169 23.6485 41.7817 23.6765 41.399 23.7325C41.0164 23.7885 40.7177 23.8632 40.503 23.9565L41.301 23.1725C41.245 23.3872 41.189 23.6625 41.133 23.9985C41.077 24.3345 41.0304 24.6985 40.993 25.0905C40.9557 25.4732 40.937 25.8558 40.937 26.2385C40.937 26.6212 40.9557 26.9992 40.993 27.3725C41.0304 27.7458 41.0724 28.0725 41.119 28.3525C41.1657 28.6325 41.203 28.8238 41.231 28.9265L39.985 29.2765C39.9477 29.1552 39.901 28.9452 39.845 28.6465C39.7984 28.3478 39.7517 27.9885 39.705 27.5685C39.6677 27.1485 39.649 26.7052 39.649 26.2385C39.649 25.7812 39.6677 25.3378 39.705 24.9085C39.7517 24.4698 39.803 24.0732 39.859 23.7185C39.9244 23.3638 39.985 23.0792 40.041 22.8645C40.2557 22.7805 40.587 22.6965 41.035 22.6125C41.4924 22.5285 42.001 22.4865 42.561 22.4865C43.3544 22.4865 44.017 22.6032 44.549 22.8365C45.0904 23.0698 45.4917 23.4478 45.753 23.9705C46.0237 24.4838 46.159 25.1792 46.159 26.0565V29.5005H38.123ZM38.123 29.5005C38.0017 29.5005 37.927 29.4492 37.899 29.3465C37.8617 29.2345 37.843 29.0898 37.843 28.9125C37.843 28.7352 37.8617 28.5952 37.899 28.4925C37.927 28.3898 38.0017 28.3385 38.123 28.3385V29.5005ZM58.678 29.5005V28.3385H60.176V29.5005H58.678ZM54.828 32.9725C54.072 32.9725 53.386 32.8325 52.77 32.5525C52.1633 32.2818 51.6827 31.8945 51.328 31.3905C50.9827 30.8958 50.81 30.3312 50.81 29.6965C50.81 29.5005 50.824 29.2438 50.852 28.9265C50.8893 28.6092 50.9313 28.2545 50.978 27.8625C51.034 27.4705 51.09 27.0738 51.146 26.6725C51.2113 26.2712 51.272 25.8838 51.328 25.5105L52.63 25.7065C52.5273 26.3505 52.434 26.9432 52.35 27.4845C52.2753 28.0165 52.2147 28.4738 52.168 28.8565C52.1307 29.2298 52.112 29.5098 52.112 29.6965C52.112 30.1072 52.224 30.4712 52.448 30.7885C52.672 31.1058 52.9893 31.3532 53.4 31.5305C53.8107 31.7172 54.2867 31.8105 54.828 31.8105C55.3693 31.8105 55.8267 31.7218 56.2 31.5445C56.5827 31.3765 56.872 31.1432 57.068 30.8445C57.264 30.5458 57.362 30.1912 57.362 29.7805V19.5045H58.678V29.7805C58.678 30.4432 58.5053 31.0125 58.16 31.4885C57.8147 31.9645 57.3527 32.3285 56.774 32.5805C56.1953 32.8418 55.5467 32.9725 54.828 32.9725ZM60.176 29.5005V28.3385C60.2973 28.3385 60.372 28.3898 60.4 28.4925C60.4373 28.5952 60.456 28.7352 60.456 28.9125C60.456 29.0898 60.4373 29.2345 60.4 29.3465C60.372 29.4492 60.2973 29.5005 60.176 29.5005ZM60.1758 29.5005V28.3385H70.5918L69.4158 29.3745V26.1685C69.4158 25.5992 69.3364 25.1325 69.1778 24.7685C69.0284 24.3952 68.7998 24.1198 68.4918 23.9425C68.1838 23.7558 67.8011 23.6625 67.3438 23.6625C66.9424 23.6625 66.5644 23.7325 66.2098 23.8725C65.8551 24.0125 65.5284 24.1992 65.2298 24.4325C64.9311 24.6565 64.6511 24.9038 64.3898 25.1745C64.1284 25.4452 63.8904 25.7158 63.6758 25.9865C63.4704 26.2572 63.2838 26.4998 63.1158 26.7145L62.7378 25.6225C63.0084 25.2958 63.2698 24.9785 63.5218 24.6705C63.7738 24.3532 64.0304 24.0638 64.2918 23.8025C64.5624 23.5412 64.8471 23.3125 65.1458 23.1165C65.4538 22.9205 65.7898 22.7665 66.1538 22.6545C66.5271 22.5425 66.9471 22.4865 67.4138 22.4865C68.0671 22.4865 68.6084 22.5985 69.0378 22.8225C69.4671 23.0465 69.8031 23.3405 70.0458 23.7045C70.2978 24.0685 70.4751 24.4698 70.5778 24.9085C70.6804 25.3378 70.7318 25.7578 70.7318 26.1685V29.5005H60.1758ZM62.1078 28.3385V22.4865H63.4098V28.3385H62.1078ZM60.1758 29.5005C60.0544 29.5005 59.9798 29.4492 59.9518 29.3465C59.9144 29.2345 59.8958 29.0898 59.8958 28.9125C59.8958 28.7352 59.9144 28.5952 59.9518 28.4925C59.9798 28.3898 60.0544 28.3385 60.1758 28.3385V29.5005ZM73.0719 29.5005V19.5045H74.3739V29.5005H73.0719ZM82.4414 29.5005V28.3385H83.9394V29.5005H82.4414ZM78.9974 32.7065C78.6614 32.7065 78.3067 32.6785 77.9334 32.6225C77.5694 32.5758 77.168 32.5058 76.7294 32.4125L76.9254 31.3625C77.42 31.4185 77.8307 31.4605 78.1574 31.4885C78.484 31.5165 78.764 31.5305 78.9974 31.5305C79.744 31.5305 80.2854 31.3905 80.6214 31.1105C80.9667 30.8305 81.1394 30.4245 81.1394 29.8925V23.3125L81.6714 23.6625H79.4734C78.9787 23.6625 78.5914 23.7232 78.3114 23.8445C78.0314 23.9565 77.8354 24.1852 77.7234 24.5305C77.6114 24.8665 77.5554 25.3612 77.5554 26.0145C77.5554 26.6585 77.6114 27.1485 77.7234 27.4845C77.8354 27.8112 78.0267 28.0352 78.2974 28.1565C78.5774 28.2778 78.9694 28.3385 79.4734 28.3385H81.1394V29.5005H79.4734C78.6614 29.5005 78.022 29.3792 77.5554 29.1365C77.0887 28.8845 76.7527 28.5018 76.5474 27.9885C76.3514 27.4658 76.2534 26.8078 76.2534 26.0145C76.2534 25.2118 76.3514 24.5492 76.5474 24.0265C76.7527 23.5038 77.0887 23.1165 77.5554 22.8645C78.022 22.6125 78.6614 22.4865 79.4734 22.4865H82.4414V29.8785C82.4414 30.4758 82.3014 30.9845 82.0214 31.4045C81.7414 31.8338 81.3447 32.1558 80.8314 32.3705C80.318 32.5945 79.7067 32.7065 78.9974 32.7065ZM83.9394 29.5005V28.3385C84.0607 28.3385 84.1354 28.3898 84.1634 28.4925C84.2007 28.5952 84.2194 28.7352 84.2194 28.9125C84.2194 29.0898 84.2007 29.2345 84.1634 29.3465C84.1354 29.4492 84.0607 29.5005 83.9394 29.5005ZM83.9375 29.5005V28.3385H86.3175L85.6455 28.8705V22.4865H86.9475V29.5005H83.9375ZM83.9375 29.5005C83.8162 29.5005 83.7415 29.4492 83.7135 29.3465C83.6762 29.2345 83.6575 29.0898 83.6575 28.9125C83.6575 28.7352 83.6762 28.5952 83.7135 28.4925C83.7415 28.3898 83.8162 28.3385 83.9375 28.3385V29.5005ZM84.4975 21.3525V19.9945H85.8135V21.3525H84.4975ZM86.4155 21.3525V19.9945H87.7315V21.3525H86.4155Z" fill="white"/>
<path d="M112.375 18.092C111.611 17.3203 110.701 16.7084 109.698 16.2921C108.695 15.8757 107.619 15.6633 106.533 15.667C101.983 15.667 98.2752 19.3754 98.2752 23.9254C98.2752 25.3837 98.6585 26.8004 99.3752 28.0504L98.2085 32.3337L102.583 31.1837C103.792 31.842 105.15 32.192 106.533 32.192C111.083 32.192 114.792 28.4837 114.792 23.9337C114.792 21.7254 113.933 19.6504 112.375 18.092ZM106.533 30.792C105.3 30.792 104.092 30.4587 103.033 29.8337L102.783 29.6837L100.183 30.367L100.875 27.8337L100.708 27.5754C100.023 26.4812 99.6594 25.2164 99.6585 23.9254C99.6585 20.142 102.742 17.0587 106.525 17.0587C108.358 17.0587 110.083 17.7754 111.375 19.0754C112.015 19.712 112.522 20.4693 112.866 21.3032C113.211 22.1372 113.387 23.0313 113.383 23.9337C113.4 27.717 110.317 30.792 106.533 30.792ZM110.3 25.6587C110.092 25.5587 109.075 25.0587 108.892 24.9837C108.7 24.917 108.567 24.8837 108.425 25.0837C108.283 25.292 107.892 25.7587 107.775 25.892C107.658 26.0337 107.533 26.0504 107.325 25.942C107.117 25.842 106.45 25.617 105.667 24.917C105.05 24.367 104.642 23.692 104.517 23.4837C104.4 23.2754 104.5 23.167 104.608 23.0587C104.7 22.967 104.817 22.817 104.917 22.7004C105.017 22.5837 105.058 22.492 105.125 22.3587C105.192 22.217 105.158 22.1004 105.108 22.0004C105.058 21.9004 104.642 20.8837 104.475 20.467C104.308 20.067 104.133 20.117 104.008 20.1087H103.608C103.467 20.1087 103.25 20.1587 103.058 20.367C102.875 20.5754 102.342 21.0754 102.342 22.092C102.342 23.1087 103.083 24.092 103.183 24.2254C103.283 24.367 104.642 26.4504 106.708 27.342C107.2 27.5587 107.583 27.6837 107.883 27.7754C108.375 27.9337 108.825 27.9087 109.183 27.8587C109.583 27.8004 110.408 27.3587 110.575 26.8754C110.75 26.392 110.75 25.9837 110.692 25.892C110.633 25.8004 110.508 25.7587 110.3 25.6587Z" fill="white"/>
</svg>
