<svg width="86" height="48" viewBox="0 0 86 48" fill="none" xmlns="http://www.w3.org/2000/svg">
<rect x="0.5" y="0.5" width="85" height="47" rx="23.5" fill="white"/>
<rect x="0.5" y="0.5" width="85" height="47" rx="23.5" stroke="#E5E7EB"/>
<mask id="path-2-inside-1_1101_36344" fill="white">
<path d="M27.7058 20.6667H18.2941C18.1277 20.6667 17.9681 20.5965 17.8504 20.4714C17.7327 20.3464 17.6666 20.1769 17.6666 20C17.6666 19.8232 17.7327 19.6537 17.8504 19.5286C17.9681 19.4036 18.1277 19.3334 18.2941 19.3334H27.7058C27.8723 19.3334 28.0318 19.4036 28.1495 19.5286C28.2672 19.6537 28.3333 19.8232 28.3333 20C28.3333 20.1769 28.2672 20.3464 28.1495 20.4714C28.0318 20.5965 27.8723 20.6667 27.7058 20.6667Z"/>
<path d="M27.7058 24.6667H18.2941C18.1277 24.6667 17.9681 24.5965 17.8504 24.4714C17.7327 24.3464 17.6666 24.1769 17.6666 24C17.6666 23.8232 17.7327 23.6537 17.8504 23.5286C17.9681 23.4036 18.1277 23.3334 18.2941 23.3334H27.7058C27.8723 23.3334 28.0318 23.4036 28.1495 23.5286C28.2672 23.6537 28.3333 23.8232 28.3333 24C28.3333 24.1769 28.2672 24.3464 28.1495 24.4714C28.0318 24.5965 27.8723 24.6667 27.7058 24.6667Z"/>
<path d="M27.7058 28.6667H18.2941C18.1277 28.6667 17.9681 28.5965 17.8504 28.4714C17.7327 28.3464 17.6666 28.1769 17.6666 28C17.6666 27.8232 17.7327 27.6537 17.8504 27.5286C17.9681 27.4036 18.1277 27.3334 18.2941 27.3334H27.7058C27.8723 27.3334 28.0318 27.4036 28.1495 27.5286C28.2672 27.6537 28.3333 27.8232 28.3333 28C28.3333 28.1769 28.2672 28.3464 28.1495 28.4714C28.0318 28.5965 27.8723 28.6667 27.7058 28.6667Z"/>
</mask>
<path d="M27.7058 20.6667H18.2941C18.1277 20.6667 17.9681 20.5965 17.8504 20.4714C17.7327 20.3464 17.6666 20.1769 17.6666 20C17.6666 19.8232 17.7327 19.6537 17.8504 19.5286C17.9681 19.4036 18.1277 19.3334 18.2941 19.3334H27.7058C27.8723 19.3334 28.0318 19.4036 28.1495 19.5286C28.2672 19.6537 28.3333 19.8232 28.3333 20C28.3333 20.1769 28.2672 20.3464 28.1495 20.4714C28.0318 20.5965 27.8723 20.6667 27.7058 20.6667Z" fill="#111928"/>
<path d="M27.7058 24.6667H18.2941C18.1277 24.6667 17.9681 24.5965 17.8504 24.4714C17.7327 24.3464 17.6666 24.1769 17.6666 24C17.6666 23.8232 17.7327 23.6537 17.8504 23.5286C17.9681 23.4036 18.1277 23.3334 18.2941 23.3334H27.7058C27.8723 23.3334 28.0318 23.4036 28.1495 23.5286C28.2672 23.6537 28.3333 23.8232 28.3333 24C28.3333 24.1769 28.2672 24.3464 28.1495 24.4714C28.0318 24.5965 27.8723 24.6667 27.7058 24.6667Z" fill="#111928"/>
<path d="M27.7058 28.6667H18.2941C18.1277 28.6667 17.9681 28.5965 17.8504 28.4714C17.7327 28.3464 17.6666 28.1769 17.6666 28C17.6666 27.8232 17.7327 27.6537 17.8504 27.5286C17.9681 27.4036 18.1277 27.3334 18.2941 27.3334H27.7058C27.8723 27.3334 28.0318 27.4036 28.1495 27.5286C28.2672 27.6537 28.3333 27.8232 28.3333 28C28.3333 28.1769 28.2672 28.3464 28.1495 28.4714C28.0318 28.5965 27.8723 28.6667 27.7058 28.6667Z" fill="#111928"/>
<path d="M17.8504 20.4714L18.9427 19.4434L18.9427 19.4434L17.8504 20.4714ZM17.8504 19.5286L18.9427 20.5567H18.9427L17.8504 19.5286ZM18.2941 19.3334V20.8334V19.3334ZM28.1495 19.5286L27.0572 20.5567L28.1495 19.5286ZM17.8504 24.4714L18.9427 23.4434H18.9427L17.8504 24.4714ZM17.8504 23.5286L18.9427 24.5567H18.9427L17.8504 23.5286ZM28.1495 23.5286L27.0572 24.5567L28.1495 23.5286ZM17.8504 28.4714L18.9427 27.4434L18.9427 27.4434L17.8504 28.4714ZM17.8504 27.5286L18.9427 28.5567H18.9427L17.8504 27.5286ZM28.1495 27.5286L27.0572 28.5567L28.1495 27.5286ZM27.7058 19.1667H18.2941V22.1667H27.7058V19.1667ZM18.2941 19.1667C18.5558 19.1667 18.7871 19.278 18.9427 19.4434L16.7581 21.4995C17.1491 21.9149 17.6995 22.1667 18.2941 22.1667V19.1667ZM18.9427 19.4434C19.0954 19.6057 19.1666 19.8074 19.1666 20H16.1666C16.1666 20.5463 16.37 21.0872 16.7581 21.4995L18.9427 19.4434ZM19.1666 20C19.1666 20.1927 19.0954 20.3944 18.9427 20.5567L16.7581 18.5006C16.37 18.9129 16.1666 19.4538 16.1666 20H19.1666ZM18.9427 20.5567C18.7871 20.7221 18.5558 20.8334 18.2941 20.8334V17.8334C17.6995 17.8334 17.1491 18.0852 16.7581 18.5006L18.9427 20.5567ZM18.2941 20.8334H27.7058V17.8334H18.2941V20.8334ZM27.7058 20.8334C27.4441 20.8334 27.2129 20.7221 27.0572 20.5567L29.2418 18.5006C28.8508 18.0852 28.3004 17.8334 27.7058 17.8334V20.8334ZM27.0572 20.5567C26.9045 20.3944 26.8333 20.1927 26.8333 20H29.8333C29.8333 19.4538 29.6299 18.9129 29.2418 18.5006L27.0572 20.5567ZM26.8333 20C26.8333 19.8074 26.9045 19.6057 27.0572 19.4434L29.2418 21.4995C29.6299 21.0872 29.8333 20.5463 29.8333 20H26.8333ZM27.0572 19.4434C27.2129 19.278 27.4441 19.1667 27.7058 19.1667V22.1667C28.3004 22.1667 28.8508 21.9149 29.2418 21.4995L27.0572 19.4434ZM27.7058 23.1667H18.2941V26.1667H27.7058V23.1667ZM18.2941 23.1667C18.5558 23.1667 18.7871 23.278 18.9427 23.4434L16.7581 25.4995C17.1491 25.9149 17.6995 26.1667 18.2941 26.1667V23.1667ZM18.9427 23.4434C19.0954 23.6057 19.1666 23.8074 19.1666 24H16.1666C16.1666 24.5463 16.37 25.0872 16.7581 25.4995L18.9427 23.4434ZM19.1666 24C19.1666 24.1927 19.0954 24.3944 18.9427 24.5567L16.7581 22.5006C16.37 22.9129 16.1666 23.4538 16.1666 24H19.1666ZM18.9427 24.5567C18.7871 24.7221 18.5558 24.8334 18.2941 24.8334V21.8334C17.6995 21.8334 17.1491 22.0852 16.7581 22.5006L18.9427 24.5567ZM18.2941 24.8334H27.7058V21.8334H18.2941V24.8334ZM27.7058 24.8334C27.4441 24.8334 27.2129 24.7221 27.0572 24.5567L29.2418 22.5006C28.8508 22.0852 28.3004 21.8334 27.7058 21.8334V24.8334ZM27.0572 24.5567C26.9045 24.3944 26.8333 24.1927 26.8333 24H29.8333C29.8333 23.4538 29.6299 22.9129 29.2418 22.5006L27.0572 24.5567ZM26.8333 24C26.8333 23.8074 26.9045 23.6057 27.0572 23.4434L29.2418 25.4995C29.6299 25.0872 29.8333 24.5463 29.8333 24H26.8333ZM27.0572 23.4434C27.2129 23.278 27.4441 23.1667 27.7058 23.1667V26.1667C28.3004 26.1667 28.8508 25.9149 29.2418 25.4995L27.0572 23.4434ZM27.7058 27.1667H18.2941V30.1667H27.7058V27.1667ZM18.2941 27.1667C18.5558 27.1667 18.7871 27.278 18.9427 27.4434L16.7581 29.4995C17.1491 29.9149 17.6995 30.1667 18.2941 30.1667V27.1667ZM18.9427 27.4434C19.0954 27.6057 19.1666 27.8074 19.1666 28H16.1666C16.1666 28.5463 16.37 29.0872 16.7581 29.4995L18.9427 27.4434ZM19.1666 28C19.1666 28.1927 19.0954 28.3944 18.9427 28.5567L16.7581 26.5006C16.37 26.9129 16.1666 27.4538 16.1666 28H19.1666ZM18.9427 28.5567C18.7871 28.7221 18.5558 28.8334 18.2941 28.8334V25.8334C17.6995 25.8334 17.1491 26.0852 16.7581 26.5006L18.9427 28.5567ZM18.2941 28.8334H27.7058V25.8334H18.2941V28.8334ZM27.7058 28.8334C27.4441 28.8334 27.2129 28.7221 27.0572 28.5567L29.2418 26.5006C28.8508 26.0852 28.3004 25.8334 27.7058 25.8334V28.8334ZM27.0572 28.5567C26.9045 28.3944 26.8333 28.1927 26.8333 28H29.8333C29.8333 27.4538 29.6299 26.9129 29.2418 26.5006L27.0572 28.5567ZM26.8333 28C26.8333 27.8074 26.9045 27.6057 27.0572 27.4434L29.2418 29.4995C29.6299 29.0872 29.8333 28.5463 29.8333 28H26.8333ZM27.0572 27.4434C27.2129 27.278 27.4441 27.1667 27.7058 27.1667V30.1667C28.3004 30.1667 28.8508 29.9149 29.2418 29.4995L27.0572 27.4434Z" fill="#111928" mask="url(#path-2-inside-1_1101_36344)"/>
<g clip-path="url(#clip0_1101_36344)">
<path d="M54.9992 8.69995C46.5592 8.69995 39.6992 15.56 39.6992 24C39.6992 32.44 46.5592 39.2999 54.9992 39.2999C63.4392 39.2999 70.2992 32.44 70.2992 24C70.2992 15.56 63.4392 8.69995 54.9992 8.69995ZM54.9992 36.7C50.9792 36.7 47.3992 34.82 45.0692 31.8899C46.6908 29.7686 48.9524 28.2258 51.5192 27.49C50.594 26.9035 49.832 26.0927 49.304 25.1329C48.7761 24.1731 48.4992 23.0954 48.4992 22C48.4992 20.276 49.184 18.6227 50.403 17.4038C51.622 16.1848 53.2753 15.5 54.9992 15.5C56.7231 15.5 58.3764 16.1848 59.5954 17.4038C60.8144 18.6227 61.4992 20.276 61.4992 22C61.5 23.0969 61.2235 24.1763 60.6956 25.1378C60.1676 26.0993 59.4052 26.9119 58.4792 27.5C61.0463 28.2351 63.3081 29.778 64.9292 31.9C63.7429 33.3967 62.2335 34.6059 60.5139 35.4371C58.7944 36.2684 56.9091 36.7 54.9992 36.7Z" fill="#6D6D6D"/>
</g>
<defs>
<clipPath id="clip0_1101_36344">
<rect width="32" height="32" fill="white" transform="translate(39 8)"/>
</clipPath>
</defs>
</svg>
