<svg width="20" height="21" viewBox="0 0 20 21" fill="none" xmlns="http://www.w3.org/2000/svg">
<path d="M5.0013 12.167H11.668V10.5003H5.0013V12.167ZM5.0013 9.66699H15.0013V8.00033H5.0013V9.66699ZM5.0013 7.16699H15.0013V5.50033H5.0013V7.16699ZM1.66797 18.8337V3.83366C1.66797 3.37533 1.83116 2.98296 2.15755 2.65658C2.48394 2.33019 2.8763 2.16699 3.33464 2.16699H16.668C17.1263 2.16699 17.5187 2.33019 17.8451 2.65658C18.1714 2.98296 18.3346 3.37533 18.3346 3.83366V13.8337C18.3346 14.292 18.1714 14.6844 17.8451 15.0107C17.5187 15.3371 17.1263 15.5003 16.668 15.5003H5.0013L1.66797 18.8337ZM4.29297 13.8337H16.668V3.83366H3.33464V14.7712L4.29297 13.8337Z" fill="#3B73B9"/>
</svg>
