<svg width="18" height="18" viewBox="0 0 18 18" fill="none" xmlns="http://www.w3.org/2000/svg">
<path d="M7.89375 12.4126L13.2 7.10631L12.3375 6.26256L7.89375 10.7063L5.64375 8.45631L4.8 9.30006L7.89375 12.4126ZM9 16.5001C7.975 16.5001 7.00625 16.3032 6.09375 15.9094C5.18125 15.5157 4.38438 14.9782 3.70312 14.2969C3.02188 13.6157 2.48438 12.8188 2.09063 11.9063C1.69688 10.9938 1.5 10.0251 1.5 9.00006C1.5 7.96256 1.69688 6.98756 2.09063 6.07506C2.48438 5.16256 3.02188 4.36881 3.70312 3.69381C4.38438 3.01881 5.18125 2.48444 6.09375 2.09069C7.00625 1.69694 7.975 1.50006 9 1.50006C10.0375 1.50006 11.0125 1.69694 11.925 2.09069C12.8375 2.48444 13.6313 3.01881 14.3063 3.69381C14.9813 4.36881 15.5156 5.16256 15.9094 6.07506C16.3031 6.98756 16.5 7.96256 16.5 9.00006C16.5 10.0251 16.3031 10.9938 15.9094 11.9063C15.5156 12.8188 14.9813 13.6157 14.3063 14.2969C13.6313 14.9782 12.8375 15.5157 11.925 15.9094C11.0125 16.3032 10.0375 16.5001 9 16.5001ZM9 15.3751C10.775 15.3751 12.2812 14.7532 13.5188 13.5094C14.7563 12.2657 15.375 10.7626 15.375 9.00006C15.375 7.22506 14.7563 5.71881 13.5188 4.48131C12.2812 3.24381 10.775 2.62506 9 2.62506C7.2375 2.62506 5.73438 3.24381 4.49063 4.48131C3.24688 5.71881 2.625 7.22506 2.625 9.00006C2.625 10.7626 3.24688 12.2657 4.49063 13.5094C5.73438 14.7532 7.2375 15.3751 9 15.3751Z" fill="#98CC5D"/>
</svg>
