<svg width="165" height="164" viewBox="0 0 165 164" fill="none" xmlns="http://www.w3.org/2000/svg">
<path d="M82.5 0.25C66.3314 0.25 50.5259 5.04455 37.0822 14.0274C23.6384 23.0102 13.1603 35.7778 6.97288 50.7156C0.785421 65.6535 -0.833501 82.0907 2.32084 97.9486C5.47518 113.807 13.2611 128.373 24.6941 139.806C36.127 151.239 50.6935 159.025 66.5514 162.179C82.4093 165.333 98.8465 163.715 113.784 157.527C128.722 151.34 141.49 140.862 150.473 127.418C159.455 113.974 164.25 98.1686 164.25 82C164.226 60.3258 155.606 39.5462 140.28 24.2203C124.954 8.89437 104.174 0.273802 82.5 0.25ZM112.805 71.4297L80.1047 104.13C78.5717 105.662 76.4927 106.523 74.325 106.523C72.1573 106.523 70.0783 105.662 68.5453 104.13L52.1953 87.7797C50.7062 86.2379 49.8822 84.1729 49.9008 82.0294C49.9194 79.8859 50.7792 77.8355 52.2949 76.3198C53.8106 74.8041 55.861 73.9444 58.0044 73.9257C60.1479 73.9071 62.2129 74.7311 63.7547 76.2203L74.325 86.7905L101.245 59.8703C102.787 58.3811 104.852 57.5571 106.996 57.5757C109.139 57.5944 111.189 58.4541 112.705 59.9698C114.221 61.4855 115.081 63.5359 115.099 65.6794C115.118 67.8229 114.294 69.8879 112.805 71.4297Z" fill="#3B73B9"/>
</svg>
