<svg width="14" height="13" viewBox="0 0 14 13" fill="none" xmlns="http://www.w3.org/2000/svg">
<path d="M8.30808 6.51094L13.16 1.65902C13.2476 1.57446 13.3174 1.47331 13.3654 1.36148C13.4135 1.24964 13.4388 1.12935 13.4398 1.00764C13.4409 0.885926 13.4177 0.765219 13.3716 0.652564C13.3255 0.539909 13.2574 0.437561 13.1714 0.351493C13.0853 0.265425 12.9829 0.197359 12.8703 0.151269C12.7576 0.105178 12.6369 0.0819848 12.5152 0.0830424C12.3935 0.0841001 12.2732 0.109388 12.1614 0.157429C12.0495 0.205471 11.9484 0.275305 11.8638 0.362856L7.01191 5.21477L2.16 0.362856C1.98711 0.195877 1.75556 0.103482 1.51521 0.105571C1.27487 0.107659 1.04496 0.204064 0.874998 0.374022C0.705041 0.543979 0.608636 0.77389 0.606547 1.01424C0.604459 1.25458 0.696854 1.48614 0.863832 1.65902L5.71575 6.51094L0.863832 11.3629C0.776281 11.4474 0.706447 11.5486 0.658406 11.6604C0.610364 11.7722 0.585077 11.8925 0.584019 12.0142C0.582961 12.136 0.606154 12.2567 0.652245 12.3693C0.698336 12.482 0.766401 12.5843 0.85247 12.6704C0.938538 12.7565 1.04089 12.8245 1.15354 12.8706C1.2662 12.9167 1.3869 12.9399 1.50862 12.9388C1.63033 12.9378 1.75062 12.9125 1.86245 12.8644C1.97429 12.8164 2.07544 12.7466 2.16 12.659L7.01191 7.80711L11.8638 12.659C12.0367 12.826 12.2683 12.9184 12.5086 12.9163C12.749 12.9142 12.9789 12.8178 13.1488 12.6479C13.3188 12.4779 13.4152 12.248 13.4173 12.0076C13.4194 11.7673 13.327 11.5357 13.16 11.3629L8.30808 6.51094Z" fill="#374151"/>
</svg>
