<svg width="423" height="270" viewBox="0 0 423 270" fill="none" xmlns="http://www.w3.org/2000/svg">
<g filter="url(#filter0_dd_947_60886)">
<g clip-path="url(#clip0_947_60886)">
<mask id="mask0_947_60886" style="mask-type:luminance" maskUnits="userSpaceOnUse" x="12" y="2" width="399" height="247">
<path d="M12.5 2.00049H410.5V248H12.5V2.00049Z" fill="white"/>
</mask>
<g mask="url(#mask0_947_60886)">
<path d="M12.5 2.00049H410.5V248H12.5V2.00049Z" fill="white"/>
<path d="M12.5 2.00049H410.5V248H12.5V2.00049Z" fill="url(#paint0_linear_947_60886)"/>
<path d="M-4.99023 583.001C-4.99023 716.263 170.049 3226.04 497.904 1794.89C825.758 363.743 436.99 -1303.59 315.421 -204.239C246.129 583.001 -4.99023 -250 -4.99023 583.001Z" fill="url(#paint1_linear_947_60886)"/>
</g>
</g>
<path d="M107.138 87.6224C106.098 87.6224 105.13 87.4704 104.234 87.1664C103.354 86.8784 102.586 86.4704 101.93 85.9424C101.274 85.4304 100.754 84.8144 100.37 84.0944C100.002 83.3904 99.8179 82.6224 99.8179 81.7904C99.8179 81.4864 99.8419 81.0944 99.8899 80.6144C99.9379 80.1344 100.002 79.5824 100.082 78.9584C100.178 78.3344 100.282 77.6704 100.394 76.9664L103.562 77.3984C103.402 78.4064 103.274 79.3024 103.178 80.0864C103.082 80.8704 103.034 81.4224 103.034 81.7424C103.034 82.3504 103.202 82.8864 103.538 83.3504C103.874 83.8144 104.346 84.1744 104.954 84.4304C105.578 84.7024 106.306 84.8384 107.138 84.8384H113.93C114.97 84.8384 115.746 84.5744 116.258 84.0464C116.77 83.5344 117.026 82.7504 117.026 81.6944C117.026 81.1664 116.938 80.7584 116.762 80.4704C116.586 80.1664 116.274 79.9104 115.826 79.7024C115.378 79.4784 114.73 79.2384 113.882 78.9824C112.922 78.6784 112.082 78.3904 111.362 78.1184C110.642 77.8464 110.05 77.5504 109.586 77.2304C109.122 76.8944 108.77 76.4944 108.53 76.0304C108.306 75.5664 108.194 74.9824 108.194 74.2784C108.194 73.2224 108.426 72.3584 108.89 71.6864C109.354 70.9984 110.018 70.4864 110.882 70.1504C111.746 69.7984 112.77 69.6224 113.954 69.6224C114.498 69.6224 115.146 69.6624 115.898 69.7424C116.65 69.8224 117.65 69.9504 118.898 70.1264L118.538 72.7904C117.386 72.6624 116.442 72.5664 115.706 72.5024C114.97 72.4384 114.346 72.4064 113.834 72.4064C112.954 72.4064 112.322 72.5504 111.938 72.8384C111.57 73.1104 111.386 73.5344 111.386 74.1104C111.386 74.5424 111.53 74.8944 111.818 75.1664C112.122 75.4224 112.538 75.6304 113.066 75.7904C113.594 75.9504 114.186 76.1344 114.842 76.3424C116.01 76.6944 116.994 77.0864 117.794 77.5184C118.594 77.9504 119.194 78.5024 119.594 79.1744C120.01 79.8304 120.218 80.6864 120.218 81.7424C120.218 82.8944 119.962 83.9104 119.45 84.7904C118.938 85.6704 118.21 86.3584 117.266 86.8544C116.338 87.3664 115.226 87.6224 113.93 87.6224H107.138ZM106.73 92.6624V89.9264H109.946V92.6624H106.73ZM110.018 92.6624V89.9264H113.234V92.6624H110.018ZM122.575 87.6224C122.367 87.6224 122.143 87.6144 121.903 87.5984C121.663 87.5824 121.415 87.5584 121.159 87.5264L121.279 84.7904C121.535 84.8064 121.775 84.8224 121.999 84.8384C122.239 84.8544 122.415 84.8624 122.527 84.8624C123.151 84.8624 123.647 84.6144 124.015 84.1184C124.399 83.6224 124.591 82.9264 124.591 82.0304V69.6224H127.807V82.0304C127.807 83.1184 127.583 84.0864 127.135 84.9344C126.703 85.7824 126.095 86.4384 125.311 86.9024C124.527 87.3824 123.615 87.6224 122.575 87.6224ZM134.772 81.6704V78.8864H137.508V81.6704H134.772ZM131.58 81.6704V64.7024H134.772V81.6704H131.58ZM137.508 81.6704V78.8864C137.7 78.8864 137.828 79.0144 137.892 79.2704C137.956 79.5104 137.988 79.8464 137.988 80.2784C137.988 80.6944 137.956 81.0304 137.892 81.2864C137.828 81.5424 137.7 81.6704 137.508 81.6704ZM150.946 81.6704V78.8864H153.466V81.6704H150.946ZM137.506 81.6704V78.8864H148.714L147.73 79.7264V71.7104L148.546 72.4064H145.522C144.818 72.4064 144.266 72.4944 143.866 72.6704C143.466 72.8464 143.186 73.1744 143.026 73.6544C142.866 74.1184 142.786 74.7824 142.786 75.6464C142.786 76.5904 142.866 77.2944 143.026 77.7584C143.186 78.2064 143.466 78.5104 143.866 78.6704C144.266 78.8144 144.818 78.8864 145.522 78.8864V81.3824C144.162 81.3824 143.042 81.1904 142.162 80.8064C141.282 80.4224 140.626 79.8144 140.194 78.9824C139.778 78.1344 139.57 77.0224 139.57 75.6464C139.57 74.3344 139.778 73.2304 140.194 72.3344C140.626 71.4384 141.282 70.7664 142.162 70.3184C143.042 69.8544 144.162 69.6224 145.522 69.6224H150.946V81.6704H137.506ZM137.506 81.6704C137.314 81.6704 137.186 81.5424 137.122 81.2864C137.058 81.0304 137.026 80.6944 137.026 80.2784C137.026 79.8464 137.058 79.5104 137.122 79.2704C137.186 79.0144 137.314 78.8864 137.506 78.8864V81.6704ZM153.466 81.6704V78.8864C153.658 78.8864 153.786 79.0144 153.85 79.2704C153.914 79.5104 153.946 79.8464 153.946 80.2784C153.946 80.6944 153.914 81.0304 153.85 81.2864C153.786 81.5424 153.658 81.6704 153.466 81.6704ZM143.074 68.1824V65.4464H146.29V68.1824H143.074ZM146.362 68.1824V65.4464H149.578V68.1824H146.362ZM157.979 81.2864C157.163 80.5184 156.547 79.7024 156.131 78.8384C155.731 77.9744 155.531 77.0544 155.531 76.0784C155.531 75.1344 155.707 74.2704 156.059 73.4864C156.411 72.6864 156.891 71.9984 157.499 71.4224C158.107 70.8464 158.811 70.4064 159.611 70.1024C160.427 69.7824 161.283 69.6224 162.179 69.6224C162.659 69.6224 163.163 69.6704 163.691 69.7664C164.219 69.8624 164.723 69.9904 165.203 70.1504L164.243 72.7664C163.907 72.6544 163.571 72.5664 163.235 72.5024C162.915 72.4384 162.603 72.4064 162.299 72.4064C161.595 72.4064 160.971 72.5664 160.427 72.8864C159.883 73.1904 159.459 73.6144 159.155 74.1584C158.867 74.7024 158.723 75.3264 158.723 76.0304C158.723 77.3424 159.235 78.4464 160.259 79.3424L157.979 81.2864ZM153.467 81.6704V78.8864H165.419V81.6704H153.467ZM153.467 81.6704C153.275 81.6704 153.147 81.5424 153.083 81.2864C153.019 81.0304 152.987 80.6944 152.987 80.2784C152.987 79.8464 153.019 79.5104 153.083 79.2704C153.147 79.0144 153.275 78.8864 153.467 78.8864V81.6704ZM190.281 81.6704V78.8864H192.825V81.6704H190.281ZM173.049 81.6704V78.8864H189.801L187.089 81.2384V76.1984C187.089 75.2864 186.969 74.5584 186.729 74.0144C186.489 73.4544 186.137 73.0464 185.673 72.7904C185.225 72.5344 184.681 72.4064 184.041 72.4064C183.353 72.4064 182.705 72.5424 182.097 72.8144C181.489 73.0864 180.913 73.4384 180.369 73.8704C179.841 74.3024 179.353 74.7664 178.905 75.2624C178.457 75.7584 178.057 76.2384 177.705 76.7024C177.353 77.1504 177.049 77.5344 176.793 77.8544L176.073 75.5264C176.729 74.6944 177.337 73.9184 177.897 73.1984C178.473 72.4784 179.073 71.8544 179.697 71.3264C180.321 70.7824 181.009 70.3664 181.761 70.0784C182.513 69.7744 183.385 69.6224 184.377 69.6224C185.449 69.6224 186.353 69.8064 187.089 70.1744C187.841 70.5264 188.457 71.0144 188.937 71.6384C189.417 72.2624 189.761 72.9664 189.969 73.7504C190.177 74.5344 190.281 75.3504 190.281 76.1984V81.6704H173.049ZM174.705 78.8864V64.7024H177.897V78.8864H174.705ZM192.825 81.6704V78.8864C193.017 78.8864 193.145 79.0144 193.209 79.2704C193.273 79.5104 193.305 79.8464 193.305 80.2784C193.305 80.6944 193.273 81.0304 193.209 81.2864C193.145 81.5424 193.017 81.6704 192.825 81.6704ZM199.827 81.6704V78.8864H202.827V81.6704H199.827ZM202.827 81.6704V78.8864C203.019 78.8864 203.147 79.0144 203.211 79.2704C203.275 79.5104 203.307 79.8464 203.307 80.2784C203.307 80.6944 203.275 81.0304 203.211 81.2864C203.147 81.5424 203.019 81.6704 202.827 81.6704ZM192.819 81.6704V78.8864H198.507L196.635 80.4464V69.6224H199.827V81.6704H192.819ZM192.819 81.6704C192.627 81.6704 192.499 81.5424 192.435 81.2864C192.371 81.0304 192.339 80.6944 192.339 80.2784C192.339 79.8464 192.371 79.5104 192.435 79.2704C192.499 79.0144 192.627 78.8864 192.819 78.8864V81.6704ZM193.779 86.6624V83.9264H196.995V86.6624H193.779ZM197.067 86.6624V83.9264H200.283V86.6624H197.067ZM216.939 81.6704C216.283 81.6704 215.627 81.5504 214.971 81.3104C214.331 81.0544 213.739 80.6784 213.195 80.1824L215.163 78.1424C215.483 78.3984 215.779 78.5904 216.051 78.7184C216.339 78.8304 216.635 78.8864 216.939 78.8864H221.427L219.771 80.3984V75.0704C219.771 74.8144 219.739 74.4304 219.675 73.9184C219.627 73.3904 219.547 72.7984 219.435 72.1424C219.339 71.4704 219.219 70.7904 219.075 70.1024L222.243 69.6224C222.355 70.1984 222.459 70.8464 222.555 71.5664C222.667 72.2704 222.763 72.9424 222.843 73.5824C222.923 74.2064 222.963 74.7024 222.963 75.0704V81.6704H216.939ZM202.827 81.6704V78.8864H206.331L205.611 79.6304V72.0704H208.827V81.6704H202.827ZM208.827 81.6704V78.8864H210.771C211.283 78.8864 211.675 78.8144 211.947 78.6704C212.219 78.5104 212.403 78.1984 212.499 77.7344C212.611 77.2544 212.667 76.5424 212.667 75.5984V70.8704H215.883V75.5984C215.883 77.0224 215.699 78.1824 215.331 79.0784C214.979 79.9744 214.427 80.6304 213.675 81.0464C212.923 81.4624 211.955 81.6704 210.771 81.6704H208.827ZM202.827 81.6704C202.635 81.6704 202.507 81.5424 202.443 81.2864C202.379 81.0304 202.347 80.6944 202.347 80.2784C202.347 79.8464 202.379 79.5104 202.443 79.2704C202.507 79.0144 202.635 78.8864 202.827 78.8864V81.6704ZM230.503 87.6224C229.911 87.6224 229.287 87.5744 228.631 87.4784C227.991 87.3984 227.303 87.2864 226.567 87.1424L227.047 84.5744C227.847 84.6704 228.527 84.7424 229.087 84.7904C229.647 84.8384 230.119 84.8624 230.503 84.8624C231.655 84.8624 232.487 84.6544 232.999 84.2384C233.511 83.8224 233.767 83.1984 233.767 82.3664V71.8304L234.559 72.4064H231.559C230.903 72.4064 230.375 72.4864 229.975 72.6464C229.575 72.7904 229.279 73.1024 229.087 73.5824C228.911 74.0464 228.823 74.7584 228.823 75.7184C228.823 76.6304 228.903 77.3184 229.063 77.7824C229.239 78.2304 229.527 78.5264 229.927 78.6704C230.327 78.8144 230.871 78.8864 231.559 78.8864H233.767V81.6704H231.559C230.199 81.6704 229.079 81.4544 228.199 81.0224C227.319 80.5904 226.663 79.9344 226.231 79.0544C225.815 78.1744 225.607 77.0624 225.607 75.7184C225.607 74.3744 225.815 73.2544 226.231 72.3584C226.663 71.4464 227.319 70.7664 228.199 70.3184C229.079 69.8544 230.199 69.6224 231.559 69.6224H236.983V82.3664C236.983 83.4544 236.711 84.3904 236.167 85.1744C235.639 85.9744 234.887 86.5824 233.911 86.9984C232.951 87.4144 231.815 87.6224 230.503 87.6224ZM249.722 87.6224C249.13 87.6224 248.506 87.5744 247.85 87.4784C247.21 87.3984 246.522 87.2864 245.786 87.1424L246.266 84.5744C247.066 84.6704 247.746 84.7424 248.306 84.7904C248.866 84.8384 249.338 84.8624 249.722 84.8624C250.874 84.8624 251.706 84.6544 252.218 84.2384C252.73 83.8224 252.986 83.1984 252.986 82.3664V71.8304L253.778 72.4064H250.778C250.122 72.4064 249.594 72.4864 249.194 72.6464C248.794 72.7904 248.498 73.1024 248.306 73.5824C248.13 74.0464 248.042 74.7584 248.042 75.7184C248.042 76.6304 248.122 77.3184 248.282 77.7824C248.458 78.2304 248.746 78.5264 249.146 78.6704C249.546 78.8144 250.09 78.8864 250.778 78.8864H252.986V81.6704H250.778C249.418 81.6704 248.298 81.4544 247.418 81.0224C246.538 80.5904 245.882 79.9344 245.45 79.0544C245.034 78.1744 244.826 77.0624 244.826 75.7184C244.826 74.3744 245.034 73.2544 245.45 72.3584C245.882 71.4464 246.538 70.7664 247.418 70.3184C248.298 69.8544 249.418 69.6224 250.778 69.6224H256.202V82.3664C256.202 83.4544 255.93 84.3904 255.386 85.1744C254.858 85.9744 254.106 86.5824 253.13 86.9984C252.17 87.4144 251.034 87.6224 249.722 87.6224ZM260.018 81.6704V64.7024H263.21V81.6704H260.018ZM260.162 62.7824C259.858 62.4144 259.626 62.0624 259.466 61.7264C259.306 61.3904 259.226 61.0304 259.226 60.6464C259.226 60.1024 259.37 59.6144 259.658 59.1824C259.946 58.7344 260.322 58.3904 260.786 58.1504C261.25 57.8944 261.762 57.7664 262.322 57.7664C262.626 57.7664 262.938 57.8064 263.258 57.8864C263.578 57.9664 263.85 58.0864 264.074 58.2464L263.258 59.7104C263.114 59.6304 262.97 59.5824 262.826 59.5664C262.698 59.5344 262.562 59.5184 262.418 59.5184C262.034 59.5184 261.738 59.6224 261.53 59.8304C261.322 60.0224 261.218 60.2864 261.218 60.6224C261.218 60.8144 261.258 60.9984 261.338 61.1744C261.418 61.3504 261.538 61.5424 261.698 61.7504L260.162 62.7824ZM258.698 62.9744V61.2224H264.506V62.9744H258.698ZM289.256 81.6704V78.8864H291.776V81.6704H289.256ZM279.464 81.6704C276.888 81.6704 274.928 81.1744 273.584 80.1824C272.24 79.1744 271.568 77.6864 271.568 75.7184C271.568 75.3344 271.592 74.9344 271.64 74.5184C271.688 74.0864 271.744 73.6784 271.808 73.2944C271.888 72.8944 271.96 72.5424 272.024 72.2384C272.088 71.9344 272.136 71.7104 272.168 71.5664L275.288 72.1664C275.24 72.4224 275.176 72.7504 275.096 73.1504C275.016 73.5504 274.944 73.9744 274.88 74.4224C274.816 74.8544 274.784 75.2704 274.784 75.6704C274.784 76.5024 274.96 77.1584 275.312 77.6384C275.664 78.1024 276.2 78.4304 276.92 78.6224C277.64 78.7984 278.544 78.8864 279.632 78.8864H287.912L286.04 80.4464V64.7024H289.256V81.6704H279.464ZM291.776 81.6704V78.8864C291.968 78.8864 292.096 79.0144 292.16 79.2704C292.224 79.5104 292.256 79.8464 292.256 80.2784C292.256 80.6944 292.224 81.0304 292.16 81.2864C292.096 81.5424 291.968 81.6704 291.776 81.6704ZM278.96 72.6224C278.656 72.2544 278.424 71.9024 278.264 71.5664C278.104 71.2304 278.024 70.8704 278.024 70.4864C278.024 69.9424 278.168 69.4544 278.456 69.0224C278.744 68.5744 279.12 68.2304 279.584 67.9904C280.048 67.7344 280.56 67.6064 281.12 67.6064C281.424 67.6064 281.736 67.6464 282.056 67.7264C282.376 67.8064 282.648 67.9264 282.872 68.0864L282.056 69.5504C281.912 69.4704 281.768 69.4224 281.624 69.4064C281.496 69.3744 281.36 69.3584 281.216 69.3584C280.832 69.3584 280.536 69.4624 280.328 69.6704C280.12 69.8624 280.016 70.1264 280.016 70.4624C280.016 70.6544 280.056 70.8384 280.136 71.0144C280.216 71.1904 280.336 71.3824 280.496 71.5904L278.96 72.6224ZM277.496 72.8144V71.0624H283.304V72.8144H277.496ZM294.484 81.6704V64.7024H297.7V81.6704H294.484ZM291.772 81.6704V78.8864H294.484V81.6704H291.772ZM291.772 81.6704C291.58 81.6704 291.452 81.5424 291.388 81.2864C291.324 81.0304 291.292 80.6944 291.292 80.2784C291.292 79.8464 291.324 79.5104 291.388 79.2704C291.452 79.0144 291.58 78.8864 291.772 78.8864V81.6704ZM304.741 81.6704V78.8864H307.477V81.6704H304.741ZM301.549 81.6704V64.7024H304.741V81.6704H301.549ZM307.477 81.6704V78.8864C307.669 78.8864 307.797 79.0144 307.861 79.2704C307.925 79.5104 307.957 79.8464 307.957 80.2784C307.957 80.6944 307.925 81.0304 307.861 81.2864C307.797 81.5424 307.669 81.6704 307.477 81.6704ZM307.475 81.6704V78.8864H319.931L318.467 80.1344V75.7184C318.467 74.8544 318.371 74.1824 318.179 73.7024C317.987 73.2064 317.651 72.8624 317.171 72.6704C316.707 72.4624 316.059 72.3584 315.227 72.3584C314.571 72.3584 313.923 72.4064 313.283 72.5024C312.659 72.5824 312.171 72.6944 311.819 72.8384L313.811 70.9664C313.715 71.3344 313.619 71.7984 313.523 72.3584C313.443 72.9184 313.371 73.5184 313.307 74.1584C313.243 74.7824 313.211 75.3984 313.211 76.0064C313.211 76.5664 313.235 77.1504 313.283 77.7584C313.347 78.3664 313.411 78.9024 313.475 79.3664C313.555 79.8304 313.619 80.1504 313.667 80.3264L310.619 81.1664C310.555 80.9424 310.475 80.5744 310.379 80.0624C310.283 79.5504 310.195 78.9424 310.115 78.2384C310.051 77.5344 310.019 76.7904 310.019 76.0064C310.019 75.2064 310.059 74.4384 310.139 73.7024C310.219 72.9504 310.307 72.2784 310.403 71.6864C310.515 71.0784 310.619 70.5904 310.715 70.2224C311.099 70.0784 311.699 69.9344 312.515 69.7904C313.331 69.6464 314.235 69.5744 315.227 69.5744C316.667 69.5744 317.859 69.7744 318.803 70.1744C319.763 70.5744 320.475 71.2224 320.939 72.1184C321.419 73.0144 321.659 74.2224 321.659 75.7424V81.6704H307.475ZM307.475 81.6704C307.283 81.6704 307.155 81.5424 307.091 81.2864C307.027 81.0304 306.995 80.6944 306.995 80.2784C306.995 79.8464 307.027 79.5104 307.091 79.2704C307.155 79.0144 307.283 78.8864 307.475 78.8864V81.6704Z" fill="#3B73B9"/>
<path d="M144.36 123.67V122.25H146.52V123.67H144.36ZM136.92 123.67C134.933 123.67 133.446 123.324 132.46 122.63C131.473 121.937 130.98 120.864 130.98 119.41C130.98 119.09 131 118.744 131.04 118.37C131.093 117.997 131.153 117.637 131.22 117.29C131.286 116.93 131.346 116.624 131.4 116.37C131.453 116.104 131.486 115.924 131.5 115.83L133.02 116.11C132.98 116.324 132.92 116.617 132.84 116.99C132.773 117.364 132.706 117.764 132.64 118.19C132.573 118.617 132.54 119.024 132.54 119.41C132.54 120.077 132.68 120.624 132.96 121.05C133.24 121.464 133.7 121.77 134.34 121.97C134.98 122.157 135.84 122.25 136.92 122.25H143.52L142.8 122.83V109.33H144.36V123.67H136.92ZM146.52 123.67V122.25C146.693 122.25 146.8 122.317 146.84 122.45C146.893 122.57 146.92 122.737 146.92 122.95C146.92 123.164 146.893 123.337 146.84 123.47C146.8 123.604 146.693 123.67 146.52 123.67ZM136.74 116.75C136.526 116.484 136.36 116.224 136.24 115.97C136.133 115.717 136.08 115.45 136.08 115.17C136.08 114.784 136.173 114.437 136.36 114.13C136.56 113.824 136.82 113.584 137.14 113.41C137.46 113.237 137.806 113.15 138.18 113.15C138.393 113.15 138.606 113.184 138.82 113.25C139.033 113.304 139.22 113.384 139.38 113.49L138.86 114.39C138.753 114.324 138.646 114.284 138.54 114.27C138.446 114.244 138.346 114.23 138.24 114.23C137.933 114.23 137.686 114.317 137.5 114.49C137.326 114.664 137.24 114.89 137.24 115.17C137.24 115.344 137.273 115.51 137.34 115.67C137.42 115.83 137.533 116.004 137.68 116.19L136.74 116.75ZM135.7 116.75V115.69H139.64V116.75H135.7ZM150.867 123.61C150.147 122.997 149.594 122.297 149.207 121.51C148.834 120.71 148.647 119.864 148.647 118.97C148.647 118.21 148.781 117.51 149.047 116.87C149.314 116.217 149.681 115.65 150.147 115.17C150.614 114.69 151.167 114.324 151.807 114.07C152.447 113.804 153.134 113.67 153.867 113.67C154.254 113.67 154.667 113.71 155.107 113.79C155.561 113.87 155.994 113.984 156.407 114.13L155.867 115.47C155.534 115.35 155.194 115.257 154.847 115.19C154.514 115.124 154.194 115.09 153.887 115.09C153.181 115.09 152.547 115.257 151.987 115.59C151.427 115.924 150.987 116.384 150.667 116.97C150.361 117.544 150.207 118.21 150.207 118.97C150.207 120.41 150.767 121.597 151.887 122.53L150.867 123.61ZM146.527 123.67V122.25H156.647V123.67H146.527ZM146.527 123.67C146.354 123.67 146.247 123.604 146.207 123.47C146.154 123.337 146.127 123.164 146.127 122.95C146.127 122.737 146.154 122.57 146.207 122.45C146.247 122.317 146.354 122.25 146.527 122.25V123.67ZM163.023 128.09C162.557 128.09 162.057 128.05 161.523 127.97C161.003 127.904 160.43 127.804 159.803 127.67L160.043 126.41C160.75 126.504 161.337 126.57 161.803 126.61C162.283 126.65 162.69 126.67 163.023 126.67C164.13 126.67 164.937 126.457 165.443 126.03C165.95 125.617 166.203 125.01 166.203 124.21V114.57L167.003 115.09H163.623C162.85 115.09 162.25 115.184 161.823 115.37C161.41 115.557 161.123 115.91 160.963 116.43C160.803 116.937 160.723 117.684 160.723 118.67C160.723 119.657 160.803 120.41 160.963 120.93C161.123 121.437 161.41 121.784 161.823 121.97C162.25 122.157 162.85 122.25 163.623 122.25H166.203V123.67H163.623C162.463 123.67 161.557 123.497 160.903 123.15C160.263 122.79 159.81 122.244 159.543 121.51C159.29 120.764 159.163 119.817 159.163 118.67C159.163 117.524 159.29 116.584 159.543 115.85C159.81 115.104 160.263 114.557 160.903 114.21C161.557 113.85 162.463 113.67 163.623 113.67H167.763V124.19C167.763 125.017 167.57 125.724 167.183 126.31C166.81 126.897 166.27 127.337 165.563 127.63C164.857 127.937 164.01 128.09 163.023 128.09ZM189.942 123.67V122.25H192.122V123.67H189.942ZM192.122 123.67V122.25C192.295 122.25 192.402 122.317 192.442 122.45C192.495 122.57 192.522 122.737 192.522 122.95C192.522 123.164 192.495 123.337 192.442 123.47C192.402 123.604 192.295 123.67 192.122 123.67ZM185.442 123.67C184.988 123.67 184.542 123.584 184.102 123.41C183.675 123.237 183.255 122.964 182.842 122.59L183.882 121.53C184.175 121.784 184.442 121.97 184.682 122.09C184.935 122.197 185.188 122.25 185.442 122.25H189.002L188.402 122.89V118.11C188.402 117.87 188.375 117.53 188.322 117.09C188.282 116.65 188.215 116.157 188.122 115.61C188.042 115.05 187.942 114.49 187.822 113.93L189.342 113.67C189.435 114.137 189.528 114.657 189.622 115.23C189.715 115.804 189.788 116.35 189.842 116.87C189.908 117.377 189.942 117.79 189.942 118.11V123.67H185.442ZM173.102 117.07V115.63H177.422V117.07H173.102ZM177.422 123.67V113.67H178.982V123.67H177.422ZM178.982 123.67V122.25H181.222C181.675 122.25 182.022 122.184 182.262 122.05C182.502 121.917 182.668 121.65 182.762 121.25C182.855 120.85 182.902 120.264 182.902 119.49V114.67H184.462V119.49C184.462 120.53 184.348 121.357 184.122 121.97C183.908 122.584 183.562 123.024 183.082 123.29C182.615 123.544 181.995 123.67 181.222 123.67H178.982ZM169.442 128.09C169.268 128.09 169.088 128.077 168.902 128.05C168.702 128.037 168.508 128.024 168.322 128.01L168.502 126.59C168.688 126.604 168.862 126.617 169.022 126.63C169.182 126.657 169.322 126.67 169.442 126.67C170.068 126.67 170.575 126.43 170.962 125.95C171.348 125.484 171.542 124.83 171.542 123.99V113.67H173.102V123.99C173.102 124.804 172.942 125.517 172.622 126.13C172.315 126.757 171.888 127.237 171.342 127.57C170.795 127.917 170.162 128.09 169.442 128.09ZM182.962 109.23V107.53H184.402V109.23H182.962ZM181.522 111.87V110.07H183.082V111.87H181.522ZM184.262 111.87V110.07H185.822V111.87H184.262ZM192.113 123.67V122.25H203.053L201.893 123.07V118.77C201.893 117.837 201.787 117.104 201.573 116.57C201.36 116.037 200.993 115.657 200.473 115.43C199.967 115.204 199.273 115.09 198.393 115.09C197.833 115.09 197.273 115.13 196.713 115.21C196.167 115.29 195.74 115.397 195.433 115.53L196.373 114.57C196.293 114.89 196.213 115.297 196.133 115.79C196.053 116.27 195.987 116.79 195.933 117.35C195.88 117.91 195.853 118.47 195.853 119.03C195.853 119.604 195.88 120.164 195.933 120.71C195.987 121.257 196.047 121.73 196.113 122.13C196.18 122.53 196.233 122.81 196.273 122.97L194.793 123.39C194.74 123.217 194.673 122.917 194.593 122.49C194.527 122.064 194.46 121.55 194.393 120.95C194.34 120.35 194.313 119.71 194.313 119.03C194.313 118.377 194.34 117.744 194.393 117.13C194.46 116.504 194.533 115.937 194.613 115.43C194.707 114.924 194.793 114.517 194.873 114.21C195.167 114.09 195.633 113.97 196.273 113.85C196.913 113.73 197.62 113.67 198.393 113.67C199.513 113.67 200.447 113.837 201.193 114.17C201.953 114.504 202.52 115.044 202.893 115.79C203.267 116.524 203.453 117.517 203.453 118.77V123.67H192.113ZM192.113 123.67C191.94 123.67 191.833 123.604 191.793 123.47C191.74 123.337 191.713 123.164 191.713 122.95C191.713 122.737 191.74 122.57 191.793 122.45C191.833 122.317 191.94 122.25 192.113 122.25V123.67ZM221.16 123.67V122.25H223.32V123.67H221.16ZM215.76 128.63C214.707 128.63 213.753 128.437 212.9 128.05C212.047 127.664 211.373 127.124 210.88 126.43C210.387 125.737 210.14 124.944 210.14 124.05C210.14 123.77 210.16 123.404 210.2 122.95C210.253 122.484 210.313 121.97 210.38 121.41C210.46 120.837 210.547 120.264 210.64 119.69C210.733 119.104 210.82 118.55 210.9 118.03L212.44 118.27C212.293 119.19 212.16 120.044 212.04 120.83C211.933 121.604 211.847 122.27 211.78 122.83C211.727 123.377 211.7 123.784 211.7 124.05C211.7 124.664 211.867 125.204 212.2 125.67C212.547 126.15 213.027 126.524 213.64 126.79C214.253 127.07 214.96 127.21 215.76 127.21C216.56 127.21 217.247 127.084 217.82 126.83C218.393 126.577 218.833 126.224 219.14 125.77C219.447 125.317 219.6 124.784 219.6 124.17V113.67H221.16V124.17C221.16 125.104 220.913 125.904 220.42 126.57C219.94 127.237 219.293 127.744 218.48 128.09C217.667 128.45 216.76 128.63 215.76 128.63ZM223.32 123.67V122.25C223.493 122.25 223.6 122.317 223.64 122.45C223.693 122.57 223.72 122.737 223.72 122.95C223.72 123.164 223.693 123.337 223.64 123.47C223.6 123.604 223.493 123.67 223.32 123.67ZM214.9 113.67V111.87H216.46V113.67H214.9ZM223.324 123.67V122.25H234.264L233.104 123.07V118.77C233.104 117.837 232.998 117.104 232.784 116.57C232.571 116.037 232.204 115.657 231.684 115.43C231.178 115.204 230.484 115.09 229.604 115.09C229.044 115.09 228.484 115.13 227.924 115.21C227.378 115.29 226.951 115.397 226.644 115.53L227.584 114.57C227.504 114.89 227.424 115.297 227.344 115.79C227.264 116.27 227.198 116.79 227.144 117.35C227.091 117.91 227.064 118.47 227.064 119.03C227.064 119.604 227.091 120.164 227.144 120.71C227.198 121.257 227.258 121.73 227.324 122.13C227.391 122.53 227.444 122.81 227.484 122.97L226.004 123.39C225.951 123.217 225.884 122.917 225.804 122.49C225.738 122.064 225.671 121.55 225.604 120.95C225.551 120.35 225.524 119.71 225.524 119.03C225.524 118.377 225.551 117.744 225.604 117.13C225.671 116.504 225.744 115.937 225.824 115.43C225.918 114.924 226.004 114.517 226.084 114.21C226.378 114.09 226.844 113.97 227.484 113.85C228.124 113.73 228.831 113.67 229.604 113.67C230.724 113.67 231.658 113.837 232.404 114.17C233.164 114.504 233.731 115.044 234.104 115.79C234.478 116.524 234.664 117.517 234.664 118.77V123.67H223.324ZM223.324 123.67C223.151 123.67 223.044 123.604 223.004 123.47C222.951 123.337 222.924 123.164 222.924 122.95C222.924 122.737 222.951 122.57 223.004 122.45C223.044 122.317 223.151 122.25 223.324 122.25V123.67ZM249.091 123.67V122.25H251.251V123.67H249.091ZM241.351 123.67V122.25H248.811L247.531 123.39V119.03C247.531 118.044 247.417 117.264 247.191 116.69C246.964 116.117 246.591 115.71 246.071 115.47C245.564 115.217 244.877 115.09 244.011 115.09H242.391V113.67H244.011C245.077 113.67 245.991 113.837 246.751 114.17C247.511 114.504 248.091 115.064 248.491 115.85C248.891 116.624 249.091 117.684 249.091 119.03V123.67H241.351ZM251.251 123.67V122.25C251.424 122.25 251.531 122.317 251.571 122.45C251.624 122.57 251.651 122.737 251.651 122.95C251.651 123.164 251.624 123.337 251.571 123.47C251.531 123.604 251.424 123.67 251.251 123.67ZM261.874 123.67V122.25H264.034V123.67H261.874ZM251.254 123.67V122.25H261.354L260.314 123.15V114.41L261.134 115.09H257.734C256.961 115.09 256.361 115.184 255.934 115.37C255.521 115.557 255.234 115.91 255.074 116.43C254.914 116.937 254.834 117.684 254.834 118.67C254.834 119.657 254.914 120.41 255.074 120.93C255.234 121.437 255.521 121.784 255.934 121.97C256.361 122.157 256.961 122.25 257.734 122.25V123.27C256.574 123.27 255.667 123.13 255.014 122.85C254.374 122.557 253.921 122.077 253.654 121.41C253.401 120.73 253.274 119.817 253.274 118.67C253.274 117.524 253.401 116.584 253.654 115.85C253.921 115.104 254.374 114.557 255.014 114.21C255.667 113.85 256.574 113.67 257.734 113.67H261.874V123.67H251.254ZM251.254 123.67C251.081 123.67 250.974 123.604 250.934 123.47C250.881 123.337 250.854 123.164 250.854 122.95C250.854 122.737 250.881 122.57 250.934 122.45C250.974 122.317 251.081 122.25 251.254 122.25V123.67ZM264.034 123.67V122.25C264.207 122.25 264.314 122.317 264.354 122.45C264.407 122.57 264.434 122.737 264.434 122.95C264.434 123.164 264.407 123.337 264.354 123.47C264.314 123.604 264.207 123.67 264.034 123.67ZM257.254 111.87V110.07H258.814V111.87H257.254ZM267.747 123.67V122.25H269.907V123.67H267.747ZM269.907 123.67V122.25C270.081 122.25 270.187 122.317 270.227 122.45C270.281 122.57 270.307 122.737 270.307 122.95C270.307 123.164 270.281 123.337 270.227 123.47C270.187 123.604 270.081 123.67 269.907 123.67ZM264.027 123.67V122.25H266.907L266.187 122.83V113.67H267.747V123.67H264.027ZM264.027 123.67C263.854 123.67 263.747 123.604 263.707 123.47C263.654 123.337 263.627 123.164 263.627 122.95C263.627 122.737 263.654 122.57 263.707 122.45C263.747 122.317 263.854 122.25 264.027 122.25V123.67ZM264.827 111.87V110.07H266.387V111.87H264.827ZM267.567 111.87V110.07H269.127V111.87H267.567ZM280.426 123.67C279.973 123.67 279.526 123.584 279.086 123.41C278.66 123.237 278.246 122.964 277.846 122.59L278.866 121.53C279.173 121.784 279.446 121.97 279.686 122.09C279.926 122.197 280.173 122.25 280.426 122.25H283.986L283.386 122.89V118.11C283.386 117.87 283.36 117.53 283.306 117.09C283.266 116.65 283.2 116.157 283.106 115.61C283.026 115.05 282.926 114.49 282.806 113.93L284.326 113.67C284.42 114.137 284.513 114.657 284.606 115.23C284.7 115.804 284.78 116.35 284.846 116.87C284.913 117.377 284.946 117.79 284.946 118.11V123.67H280.426ZM269.906 123.67V122.25H272.826L272.426 122.65V115.67H273.966V123.67H269.906ZM273.966 123.67V122.25H276.226C276.68 122.25 277.02 122.184 277.246 122.05C277.486 121.917 277.653 121.65 277.746 121.25C277.84 120.85 277.886 120.264 277.886 119.49V114.67H279.446V119.49C279.446 120.53 279.333 121.357 279.106 121.97C278.893 122.584 278.553 123.024 278.086 123.29C277.62 123.544 277 123.67 276.226 123.67H273.966ZM269.906 123.67C269.733 123.67 269.626 123.604 269.586 123.47C269.533 123.337 269.506 123.164 269.506 122.95C269.506 122.737 269.533 122.57 269.586 122.45C269.626 122.317 269.733 122.25 269.906 122.25V123.67ZM288.369 123.67V109.33H289.909V123.67H288.369Z" fill="#33405E"/>
<path d="M132.5 163C132.5 158.582 136.082 155 140.5 155H281.5C285.918 155 289.5 158.582 289.5 163V188C289.5 192.419 285.918 196 281.5 196H140.5C136.082 196 132.5 192.419 132.5 188V163Z" fill="#3B73B9"/>
<path d="M183.192 181V179.838H184.69V181H183.192ZM177.844 181C176.425 181 175.357 180.744 174.638 180.23C173.919 179.717 173.56 178.933 173.56 177.878C173.56 177.654 173.574 177.416 173.602 177.164C173.639 176.903 173.677 176.651 173.714 176.408C173.761 176.166 173.803 175.956 173.84 175.778C173.877 175.601 173.905 175.475 173.924 175.4L175.198 175.638C175.17 175.788 175.128 175.988 175.072 176.24C175.025 176.492 174.979 176.763 174.932 177.052C174.885 177.342 174.862 177.617 174.862 177.878C174.862 178.345 174.96 178.723 175.156 179.012C175.361 179.302 175.683 179.512 176.122 179.642C176.561 179.773 177.144 179.838 177.872 179.838H182.548L181.876 180.37V171.004H183.192V181H177.844ZM184.69 181V179.838C184.811 179.838 184.886 179.89 184.914 179.992C184.951 180.095 184.97 180.235 184.97 180.412C184.97 180.59 184.951 180.734 184.914 180.846C184.886 180.949 184.811 181 184.69 181ZM177.676 176.03C177.517 175.834 177.396 175.648 177.312 175.47C177.228 175.284 177.186 175.088 177.186 174.882C177.186 174.602 177.256 174.35 177.396 174.126C177.545 173.902 177.737 173.725 177.97 173.594C178.213 173.464 178.469 173.398 178.74 173.398C178.899 173.398 179.057 173.422 179.216 173.468C179.375 173.515 179.515 173.576 179.636 173.65L179.244 174.336C179.169 174.29 179.095 174.262 179.02 174.252C178.945 174.234 178.871 174.224 178.796 174.224C178.572 174.224 178.399 174.285 178.278 174.406C178.157 174.528 178.096 174.686 178.096 174.882C178.096 175.004 178.119 175.12 178.166 175.232C178.213 175.335 178.287 175.452 178.39 175.582L177.676 176.03ZM176.906 176.058V175.246H179.832V176.058H176.906ZM184.939 181V179.838H187.319L186.647 180.37V173.986H187.949V181H184.939ZM184.939 181C184.818 181 184.743 180.949 184.715 180.846C184.678 180.734 184.659 180.59 184.659 180.412C184.659 180.235 184.678 180.095 184.715 179.992C184.743 179.89 184.818 179.838 184.939 179.838V181ZM185.499 183.632V182.274H186.815V183.632H185.499ZM187.417 183.632V182.274H188.733V183.632H187.417ZM204.271 181V179.838H205.797V181H204.271ZM205.797 181V179.838C205.909 179.838 205.983 179.89 206.021 179.992C206.058 180.095 206.077 180.235 206.077 180.412C206.077 180.59 206.058 180.734 206.021 180.846C205.983 180.949 205.909 181 205.797 181ZM201.135 181C200.799 181 200.467 180.94 200.141 180.818C199.814 180.688 199.501 180.487 199.203 180.216L200.057 179.348C200.253 179.516 200.435 179.642 200.603 179.726C200.78 179.801 200.957 179.838 201.135 179.838H203.655L203.081 180.398V177.122C203.081 176.954 203.062 176.721 203.025 176.422C202.997 176.114 202.95 175.769 202.885 175.386C202.829 174.994 202.763 174.598 202.689 174.196L203.963 173.986C204.028 174.322 204.093 174.691 204.159 175.092C204.224 175.494 204.275 175.876 204.313 176.24C204.359 176.604 204.383 176.898 204.383 177.122V181H201.135ZM192.245 176.548V175.372H195.241V176.548H192.245ZM195.241 181V173.986H196.543V181H195.241ZM196.543 181V179.838H197.999C198.307 179.838 198.545 179.792 198.713 179.698C198.881 179.605 198.997 179.418 199.063 179.138C199.128 178.858 199.161 178.448 199.161 177.906V174.7H200.463V177.906C200.463 178.662 200.379 179.269 200.211 179.726C200.043 180.184 199.777 180.51 199.413 180.706C199.049 180.902 198.577 181 197.999 181H196.543ZM189.543 184.206C189.421 184.206 189.295 184.197 189.165 184.178C189.025 184.169 188.885 184.16 188.745 184.15L188.857 182.988C188.997 182.998 189.127 183.007 189.249 183.016C189.361 183.026 189.454 183.03 189.529 183.03C189.949 183.03 190.285 182.872 190.537 182.554C190.798 182.237 190.929 181.794 190.929 181.224V173.986H192.245V181.224C192.245 181.812 192.128 182.33 191.895 182.778C191.661 183.226 191.344 183.576 190.943 183.828C190.541 184.08 190.075 184.206 189.543 184.206ZM199.231 170.794V169.548H200.407V170.794H199.231ZM198.125 172.726V171.368H199.413V172.726H198.125ZM200.211 172.726V171.368H201.499V172.726H200.211ZM206.043 181V179.838H213.043L212.595 180.23V177.892C212.595 177.398 212.53 176.992 212.399 176.674C212.278 176.348 212.091 176.11 211.839 175.96C211.587 175.802 211.274 175.722 210.901 175.722H207.835L206.939 174.392L207.583 173.174C207.686 172.988 207.793 172.792 207.905 172.586C208.026 172.372 208.171 172.129 208.339 171.858C208.516 171.578 208.74 171.242 209.011 170.85L210.103 171.48C209.842 171.882 209.627 172.213 209.459 172.474C209.3 172.736 209.165 172.964 209.053 173.16C208.941 173.347 208.834 173.534 208.731 173.72L208.073 174.98L207.793 174.56H210.901C211.489 174.56 211.979 174.663 212.371 174.868C212.763 175.064 213.066 175.326 213.281 175.652C213.505 175.979 213.664 176.343 213.757 176.744C213.86 177.136 213.911 177.519 213.911 177.892V181H206.043ZM206.043 181C205.922 181 205.847 180.949 205.819 180.846C205.782 180.734 205.763 180.59 205.763 180.412C205.763 180.235 205.782 180.095 205.819 179.992C205.847 179.89 205.922 179.838 206.043 179.838V181ZM226.374 181V179.838H227.872V181H226.374ZM219.402 185.648C219.309 185.126 219.225 184.626 219.15 184.15C219.085 183.674 219.052 183.264 219.052 182.918C219.052 182.284 219.164 181.733 219.388 181.266C219.622 180.809 219.953 180.459 220.382 180.216C220.812 179.964 221.32 179.838 221.908 179.838C222.067 179.838 222.286 179.838 222.566 179.838C222.846 179.838 223.168 179.838 223.532 179.838C223.906 179.838 224.293 179.838 224.694 179.838C225.105 179.838 225.506 179.838 225.898 179.838L225.072 180.58V177.556C225.072 176.95 225.002 176.474 224.862 176.128C224.732 175.783 224.494 175.536 224.148 175.386C223.812 175.237 223.35 175.162 222.762 175.162C222.38 175.162 221.997 175.19 221.614 175.246C221.232 175.293 220.933 175.363 220.718 175.456L221.516 174.672C221.46 174.896 221.404 175.181 221.348 175.526C221.302 175.862 221.26 176.222 221.222 176.604C221.194 176.987 221.18 177.365 221.18 177.738C221.18 178.121 221.194 178.499 221.222 178.872C221.26 179.246 221.297 179.572 221.334 179.852C221.381 180.132 221.418 180.324 221.446 180.426L220.214 180.776C220.177 180.655 220.13 180.445 220.074 180.146C220.018 179.848 219.967 179.493 219.92 179.082C219.883 178.662 219.864 178.214 219.864 177.738C219.864 177.281 219.888 176.838 219.934 176.408C219.981 175.97 220.032 175.573 220.088 175.218C220.154 174.864 220.214 174.579 220.27 174.364C220.485 174.28 220.816 174.196 221.264 174.112C221.722 174.028 222.226 173.986 222.776 173.986C223.28 173.986 223.728 174.033 224.12 174.126C224.512 174.22 224.848 174.36 225.128 174.546C225.418 174.733 225.656 174.966 225.842 175.246C226.029 175.526 226.164 175.862 226.248 176.254C226.332 176.637 226.374 177.076 226.374 177.57V181C225.982 181 225.558 181 225.1 181C224.652 181 224.214 181 223.784 181C223.355 181 222.972 181 222.636 181C222.31 181 222.067 181 221.908 181C221.759 181 221.596 181.019 221.418 181.056C221.241 181.103 221.068 181.187 220.9 181.308C220.742 181.439 220.611 181.63 220.508 181.882C220.406 182.144 220.354 182.489 220.354 182.918C220.354 183.273 220.387 183.674 220.452 184.122C220.518 184.58 220.592 185.088 220.676 185.648H219.402ZM227.872 181V179.838C227.994 179.838 228.068 179.89 228.096 179.992C228.134 180.095 228.152 180.235 228.152 180.412C228.152 180.59 228.134 180.734 228.096 180.846C228.068 180.949 227.994 181 227.872 181ZM238.677 181V179.838H240.175V181H238.677ZM228.121 181V179.838H238.537L237.361 180.874V177.668C237.361 177.099 237.282 176.632 237.123 176.268C236.974 175.895 236.745 175.62 236.437 175.442C236.129 175.256 235.746 175.162 235.289 175.162C234.888 175.162 234.51 175.232 234.155 175.372C233.8 175.512 233.474 175.699 233.175 175.932C232.876 176.156 232.596 176.404 232.335 176.674C232.074 176.945 231.836 177.216 231.621 177.486C231.416 177.757 231.229 178 231.061 178.214L230.683 177.122C230.954 176.796 231.215 176.478 231.467 176.17C231.719 175.853 231.976 175.564 232.237 175.302C232.508 175.041 232.792 174.812 233.091 174.616C233.399 174.42 233.735 174.266 234.099 174.154C234.472 174.042 234.892 173.986 235.359 173.986C236.012 173.986 236.554 174.098 236.983 174.322C237.412 174.546 237.748 174.84 237.991 175.204C238.243 175.568 238.42 175.97 238.523 176.408C238.626 176.838 238.677 177.258 238.677 177.668V181H228.121ZM230.053 179.838V173.986H231.355V179.838H230.053ZM228.121 181C228 181 227.925 180.949 227.897 180.846C227.86 180.734 227.841 180.59 227.841 180.412C227.841 180.235 227.86 180.095 227.897 179.992C227.925 179.89 228 179.838 228.121 179.838V181ZM240.175 181V179.838C240.296 179.838 240.371 179.89 240.399 179.992C240.436 180.095 240.455 180.235 240.455 180.412C240.455 180.59 240.436 180.734 240.399 180.846C240.371 180.949 240.296 181 240.175 181ZM233.861 172.74V171.382H235.177V172.74H233.861ZM240.43 181V179.838H242.6L241.928 180.37V173.986H243.244V181H240.43ZM240.43 181C240.308 181 240.234 180.949 240.206 180.846C240.168 180.734 240.15 180.59 240.15 180.412C240.15 180.235 240.168 180.095 240.206 179.992C240.234 179.89 240.308 179.838 240.43 179.838V181ZM241.928 172.726V171.368H243.244V172.726H241.928ZM245.906 181V171.004H247.208V181H245.906ZM245.864 170.024C245.705 169.828 245.584 169.642 245.5 169.464C245.416 169.278 245.374 169.082 245.374 168.876C245.374 168.596 245.444 168.344 245.584 168.12C245.733 167.896 245.925 167.719 246.158 167.588C246.401 167.458 246.657 167.392 246.928 167.392C247.087 167.392 247.245 167.416 247.404 167.462C247.563 167.509 247.703 167.57 247.824 167.644L247.432 168.33C247.357 168.284 247.283 168.256 247.208 168.246C247.133 168.228 247.059 168.218 246.984 168.218C246.76 168.218 246.587 168.279 246.466 168.4C246.345 168.522 246.284 168.68 246.284 168.876C246.284 168.998 246.307 169.114 246.354 169.226C246.401 169.329 246.475 169.446 246.578 169.576L245.864 170.024ZM245.094 170.052V169.24H248.02V170.052H245.094Z" fill="white"/>
</g>
<defs>
<filter id="filter0_dd_947_60886" x="0.5" y="0.000488281" width="422" height="270" filterUnits="userSpaceOnUse" color-interpolation-filters="sRGB">
<feFlood flood-opacity="0" result="BackgroundImageFix"/>
<feColorMatrix in="SourceAlpha" type="matrix" values="0 0 0 0 0 0 0 0 0 0 0 0 0 0 0 0 0 0 127 0" result="hardAlpha"/>
<feOffset dy="4"/>
<feGaussianBlur stdDeviation="3"/>
<feColorMatrix type="matrix" values="0 0 0 0 0 0 0 0 0 0 0 0 0 0 0 0 0 0 0.05 0"/>
<feBlend mode="normal" in2="BackgroundImageFix" result="effect1_dropShadow_947_60886"/>
<feColorMatrix in="SourceAlpha" type="matrix" values="0 0 0 0 0 0 0 0 0 0 0 0 0 0 0 0 0 0 127 0" result="hardAlpha"/>
<feMorphology radius="3" operator="erode" in="SourceAlpha" result="effect2_dropShadow_947_60886"/>
<feOffset dy="10"/>
<feGaussianBlur stdDeviation="7.5"/>
<feColorMatrix type="matrix" values="0 0 0 0 0 0 0 0 0 0 0 0 0 0 0 0 0 0 0.1 0"/>
<feBlend mode="normal" in2="effect1_dropShadow_947_60886" result="effect2_dropShadow_947_60886"/>
<feBlend mode="normal" in="SourceGraphic" in2="effect2_dropShadow_947_60886" result="shape"/>
</filter>
<linearGradient id="paint0_linear_947_60886" x1="12.5" y1="13.1345" x2="423.84" y2="39.4494" gradientUnits="userSpaceOnUse">
<stop stop-color="#ACCBF3"/>
<stop offset="1" stop-color="#F4FBFF"/>
</linearGradient>
<linearGradient id="paint1_linear_947_60886" x1="-751.24" y1="538.5" x2="475.562" y2="538.581" gradientUnits="userSpaceOnUse">
<stop stop-color="white"/>
<stop offset="1" stop-color="white" stop-opacity="0"/>
</linearGradient>
<clipPath id="clip0_947_60886">
<path d="M12.5 26.0005C12.5 12.7457 23.2452 2.00049 36.5 2.00049H386.5C399.755 2.00049 410.5 12.7457 410.5 26.0005V224C410.5 237.255 399.755 248 386.5 248H36.5C23.2452 248 12.5 237.255 12.5 224V26.0005Z" fill="white"/>
</clipPath>
</defs>
</svg>
