<svg width="16" height="17" viewBox="0 0 16 17" fill="none" xmlns="http://www.w3.org/2000/svg">
<path d="M13.6243 3.15479H2.37569L0 13.8453H16L13.6243 3.15479ZM6.68656 4.09341H9.31347L9.48472 6.40544H6.51528L6.68656 4.09341ZM6.44578 7.34404H9.55428L9.72553 9.65607H6.2745L6.44578 7.34404ZM5.09253 12.9067H1.17006L1.68384 10.5947H5.26378L5.09253 12.9067ZM5.33334 9.65607H1.89244L2.40625 7.34404H5.50462L5.33334 9.65607ZM5.57412 6.40544H2.61478L3.12856 4.09341H5.74534L5.57412 6.40544ZM6.03369 12.9067L6.20494 10.5947H9.79503L9.96628 12.9067H6.03369ZM10.2546 4.09341H12.8714L13.3852 6.40544H10.4259L10.2546 4.09341ZM10.4954 7.34404H13.5938L14.1076 9.65607H10.6667L10.4954 7.34404ZM10.7362 10.5947H14.3162L14.8299 12.9067H10.9075L10.7362 10.5947Z" fill="#6B7280"/>
</svg>
