<svg width="100" height="100" viewBox="0 0 100 100" fill="none" xmlns="http://www.w3.org/2000/svg">
<g clip-path="url(#clip0_1119_24113)">
<path d="M50.0099 92.0204C73.2114 92.0204 92.0199 73.2119 92.0199 50.0104C92.0199 26.809 73.2114 8.00049 50.0099 8.00049C26.8085 8.00049 8 26.809 8 50.0104C8 73.2119 26.8085 92.0204 50.0099 92.0204Z" fill="#3B73B9"/>
<path fill-rule="evenodd" clip-rule="evenodd" d="M50.0002 75.1355C47.3313 75.1355 44.7291 74.7265 42.2335 73.9169L43.2788 72.1062C43.3066 72.107 43.3345 72.1075 43.3624 72.1075C44.3505 72.1075 45.2644 71.5821 45.7599 70.7241L47.6335 67.4793C48.4156 67.584 49.206 67.6366 50.0002 67.6366C59.7694 67.6366 67.7176 59.6886 67.7178 49.9192C67.7178 49.2003 67.6747 48.4838 67.5886 47.7737L70.1445 46.2978C71.0551 45.772 71.5539 44.8022 71.5259 43.8178L74.0607 42.3543C74.828 44.7905 75.2158 47.3246 75.2158 49.9188C75.2167 63.8234 63.9047 75.1355 50.0002 75.1355ZM60.4522 35.61C57.4354 33.3975 53.8063 32.2019 50.0005 32.2019C40.2312 32.2019 32.2831 40.1501 32.2831 49.9192C32.2831 53.6407 33.4326 57.2051 35.5596 60.187L33.5472 63.6723C33.1807 64.3071 33.0808 65.065 33.2708 65.773C33.3415 66.036 33.4498 66.2848 33.5905 66.5123L32.6211 68.1914C27.6107 63.4438 24.7842 56.9182 24.7842 49.919C24.7842 36.0145 36.0957 24.7024 50.0002 24.7024C57.084 24.7024 63.6628 27.5849 68.4192 32.693L65.9328 34.1284C65.7055 33.9877 65.4568 33.8795 65.1939 33.8088C64.4862 33.6187 63.7277 33.7186 63.0931 34.0851L60.4522 35.61Z" fill="#FEFEFE"/>
<path fill-rule="evenodd" clip-rule="evenodd" d="M42.6441 52.173C42.4234 51.451 42.3103 50.6938 42.3103 49.9182C42.3103 45.6779 45.76 42.2283 50.0006 42.2283C50.8257 42.2283 51.6424 42.3625 52.4178 42.6193L48.5871 44.8311C47.9508 45.1985 47.4865 45.8033 47.2973 46.5131C47.1087 47.22 47.2085 47.9777 47.5743 48.6113C47.7388 48.8961 47.9214 49.167 48.1202 49.4228C45.9703 49.4867 43.9614 50.5046 42.6441 52.173ZM53.2563 52.1976C53.4519 52.2136 53.6487 52.2218 53.8468 52.2218C55.11 52.2218 56.3546 51.8882 57.4486 51.2565L57.5874 51.1763C57.0385 54.4974 54.3545 57.1076 50.9976 57.5445L52.9493 54.164C53.3061 53.546 53.3965 52.8459 53.2563 52.1976Z" fill="#FEFEFE"/>
<path fill-rule="evenodd" clip-rule="evenodd" d="M64.2214 47.7085C64.1185 47.7085 64.0155 47.6953 63.9146 47.6682C63.6107 47.5866 63.3517 47.3882 63.1943 47.1155L58.9101 39.6952C58.5828 39.1283 58.777 38.4028 59.344 38.0754L63.8837 35.4542C64.1566 35.2968 64.4806 35.2541 64.7837 35.3356C65.0876 35.4172 65.3466 35.6156 65.504 35.8883L69.7878 43.3085C70.115 43.8755 69.9208 44.601 69.3538 44.9284L64.8143 47.5496C64.6323 47.6544 64.4277 47.7085 64.2214 47.7085Z" fill="#FEFEFE"/>
<path fill-rule="evenodd" clip-rule="evenodd" d="M53.8469 50.6408C51.8273 50.6408 49.9485 49.5601 48.9437 47.8208C48.7864 47.5481 48.7441 47.2246 48.8251 46.9206C48.9063 46.6167 49.1051 46.3578 49.3778 46.2005L57.9744 41.2368L61.3912 47.1547L56.6583 49.8873C55.8043 50.3806 54.8326 50.6408 53.8469 50.6408Z" fill="#FEFEFE"/>
<path fill-rule="evenodd" clip-rule="evenodd" d="M67.0088 35.3328L70.1131 33.5406C70.6813 33.2133 71.406 33.4075 71.7333 33.9745L74.5601 38.8708C74.7174 39.1434 74.7598 39.467 74.6787 39.7709C74.5971 40.0749 74.3982 40.3337 74.1258 40.4911L71.0213 42.2833L67.0088 35.3328Z" fill="#FEFEFE"/>
<path fill-rule="evenodd" clip-rule="evenodd" d="M43.3625 70.5266C43.1617 70.5266 42.9578 70.4751 42.7709 70.3673L35.3506 66.0834C35.0779 65.9261 34.8795 65.6672 34.798 65.3632C34.7165 65.0598 34.7593 64.7361 34.9166 64.4631L37.5377 59.9236C37.8648 59.3567 38.5902 59.1622 39.1577 59.4895L46.5779 63.7739C46.8505 63.9312 47.0489 64.1901 47.1305 64.494C47.212 64.7975 47.1693 65.1212 47.0119 65.3942L44.3907 69.9337C44.1712 70.3141 43.7726 70.5266 43.3625 70.5266Z" fill="#FEFEFE"/>
<path fill-rule="evenodd" clip-rule="evenodd" d="M40.699 58.5537L43.4316 53.8206C44.4359 52.0809 46.3142 51.0005 48.3349 51.0005C49.3201 51.0005 50.2919 51.2611 51.1458 51.7536C51.7128 52.0809 51.9071 52.8064 51.5799 53.3734L46.6165 61.9704L40.699 58.5537Z" fill="#FEFEFE"/>
<path fill-rule="evenodd" clip-rule="evenodd" d="M38.9258 75.2985C38.7194 75.2985 38.5145 75.2446 38.3329 75.1396L33.4366 72.3129C32.8697 71.9856 32.6749 71.2602 33.0027 70.6927L34.795 67.5881L41.7452 71.6005L39.9528 74.7052C39.7955 74.9778 39.5365 75.1765 39.2325 75.2581C39.1317 75.2853 39.0284 75.2985 38.9258 75.2985Z" fill="#FEFEFE"/>
</g>
<defs>
<clipPath id="clip0_1119_24113">
<rect width="84" height="84" fill="white" transform="translate(8 8.00049)"/>
</clipPath>
</defs>
</svg>
