<svg width="16" height="17" viewBox="0 0 16 17" fill="none" xmlns="http://www.w3.org/2000/svg">
<path d="M13.7544 16.5001H2V0.500061H13.7544V16.5001ZM2.93401 15.5656H12.8204V1.43405H2.93401V15.5656Z" fill="#6B7280"/>
<path d="M7.75596 6.25022H3.67743V2.1721H7.75596V6.25022ZM4.61186 5.3162H6.82195V3.10609H4.61186V5.3162Z" fill="#6B7280"/>
<path d="M7.75596 10.5691H3.67743V6.49095H7.75596V10.5691ZM4.61186 9.63465H6.82195V7.42453H4.61186V9.63465Z" fill="#6B7280"/>
<path d="M7.75596 14.9226H3.67743V10.8441H7.75596V14.9226ZM4.61186 13.9887H6.82195V11.7781H4.61186V13.9887Z" fill="#6B7280"/>
<path d="M12.1025 6.29165H8.02443V2.21353H12.1025V6.29165ZM8.95801 5.35723H11.1681V3.14711H8.95801V5.35723Z" fill="#6B7280"/>
<path d="M12.1025 10.61H8.02443V6.53143H12.1025V10.61ZM8.95801 9.67596H11.1681V7.46585H8.95801V9.67596Z" fill="#6B7280"/>
<path d="M12.1025 14.9641H8.02443V10.8855H12.1025V14.9641ZM8.95801 14.0301H11.1681V11.8196H8.95801V14.0301Z" fill="#6B7280"/>
</svg>
