<svg width="84" height="84" viewBox="0 0 84 84" fill="none" xmlns="http://www.w3.org/2000/svg">
<g clip-path="url(#clip0_1119_24047)">
<path d="M42.0099 84.0204C65.2114 84.0204 84.0199 65.2119 84.0199 42.0104C84.0199 18.809 65.2114 0.000488281 42.0099 0.000488281C18.8085 0.000488281 0 18.809 0 42.0104C0 65.2119 18.8085 84.0204 42.0099 84.0204Z" fill="#3B73B9"/>
<path fill-rule="evenodd" clip-rule="evenodd" d="M52.907 67.2973H27.949C26.0624 67.2973 24.5275 65.762 24.5275 63.8754V23.786C24.5275 21.8995 26.0625 20.3645 27.949 20.3645H59.7108C61.5973 20.3645 63.1327 21.8995 63.1327 23.786V56.7657H53.5C53.1731 56.7657 52.9071 57.0312 52.9071 57.3585L52.907 67.2973ZM62.7909 57.9515L54.0927 66.9445V57.9515H62.7909ZM58.8169 33.6782H51.7768C51.4495 33.6782 51.1839 33.4125 51.1839 33.0852C51.1839 32.758 51.4498 32.4924 51.7768 32.4924H58.8169C59.1442 32.4924 59.4097 32.758 59.4097 33.0852C59.4097 33.4125 59.1442 33.6782 58.8169 33.6782ZM48.0721 33.6782H27.8024C27.4751 33.6782 27.2095 33.4125 27.2095 33.0852C27.2095 32.758 27.4751 32.4924 27.8024 32.4924H48.0721C48.3993 32.4924 48.665 32.758 48.665 33.0852C48.665 33.4125 48.3993 33.6782 48.0721 33.6782ZM58.8177 36.928H38.548C38.2207 36.928 37.9551 36.6624 37.9551 36.3351C37.9551 36.0078 38.2207 35.7422 38.548 35.7422H58.8177C59.1449 35.7422 59.4106 36.0078 59.4106 36.3351C59.4106 36.6624 59.1451 36.928 58.8177 36.928ZM34.8433 36.928H27.8036C27.4764 36.928 27.2108 36.6624 27.2108 36.3351C27.2108 36.0078 27.4764 35.7422 27.8036 35.7422H34.8438C35.1711 35.7422 35.4367 36.0078 35.4367 36.3351C35.4367 36.6624 35.171 36.928 34.8433 36.928ZM58.8169 40.1776H51.7768C51.4495 40.1776 51.184 39.912 51.184 39.5848C51.184 39.2575 51.4499 38.9919 51.7768 38.9919H58.8169C59.1442 38.9919 59.4098 39.2575 59.4098 39.5848C59.4098 39.912 59.1442 40.1776 58.8169 40.1776ZM48.0721 40.1776H27.8025C27.4752 40.1776 27.2095 39.912 27.2095 39.5848C27.2095 39.2575 27.4752 38.9919 27.8025 38.9919H48.0721C48.3994 38.9919 48.665 39.2575 48.665 39.5848C48.665 39.912 48.3994 40.1776 48.0721 40.1776ZM58.8178 43.9343H38.548C38.2207 43.9343 37.9551 43.6684 37.9551 43.3415C37.9551 43.0145 38.2207 42.7485 38.548 42.7485H58.8178C59.1449 42.7485 59.4106 43.0145 59.4106 43.3415C59.4106 43.6684 59.1452 43.9343 58.8178 43.9343ZM34.8433 43.9343H27.8036C27.4765 43.9343 27.2108 43.6684 27.2108 43.3415C27.2108 43.0145 27.4765 42.7485 27.8036 42.7485H34.8438C35.1711 42.7485 35.4367 43.0145 35.4367 43.3415C35.4367 43.6684 35.1711 43.9343 34.8433 43.9343ZM58.817 29.8837H27.8026C27.4753 29.8837 27.2096 29.618 27.2096 29.2907V24.2805C27.2096 23.9532 27.4753 23.6877 27.8026 23.6877H58.817C59.1443 23.6877 59.4098 23.9532 59.4098 24.2805V29.2907C59.4098 29.6183 59.1443 29.8837 58.817 29.8837ZM28.3952 28.6979H58.2234V24.8734H28.3952V28.6979ZM58.817 47.7288H51.7768C51.4495 47.7288 51.184 47.4629 51.184 47.1359C51.184 46.8089 51.4499 46.543 51.7768 46.543H58.817C59.1443 46.543 59.4098 46.8089 59.4098 47.1359C59.4098 47.4629 59.1443 47.7288 58.817 47.7288ZM48.0721 47.7288H27.8025C27.4752 47.7288 27.2096 47.4629 27.2096 47.1359C27.2096 46.8089 27.4752 46.543 27.8025 46.543H48.0721C48.3994 46.543 48.6651 46.8089 48.6651 47.1359C48.6651 47.4629 48.3994 47.7288 48.0721 47.7288ZM58.8178 51.4858H38.5481C38.2208 51.4858 37.9551 51.2198 37.9551 50.8928C37.9551 50.5659 38.2208 50.3 38.5481 50.3H58.8178C59.145 50.3 59.4106 50.5659 59.4106 50.8928C59.4106 51.2198 59.1452 51.4858 58.8178 51.4858ZM34.8433 51.4858H27.8037C27.4765 51.4858 27.2109 51.2198 27.2109 50.8928C27.2109 50.5659 27.4765 50.3 27.8037 50.3H34.8438C35.1711 50.3 35.4368 50.5659 35.4368 50.8928C35.4368 51.2198 35.1711 51.4858 34.8433 51.4858ZM58.817 55.2802H51.7768C51.4496 55.2802 51.184 55.0142 51.184 54.6873C51.184 54.3604 51.4499 54.0945 51.7768 54.0945H58.817C59.1443 54.0945 59.4098 54.3604 59.4098 54.6873C59.4098 55.0142 59.1443 55.2802 58.817 55.2802ZM48.0721 55.2802H27.8025C27.4752 55.2802 27.2096 55.0142 27.2096 54.6873C27.2096 54.3604 27.4752 54.0945 27.8025 54.0945H48.0721C48.3994 54.0945 48.6651 54.3604 48.6651 54.6873C48.6651 55.0142 48.3994 55.2802 48.0721 55.2802ZM46.4166 65.0335H31.0406C30.7134 65.0335 30.4478 64.7677 30.4478 64.4407C30.4478 64.1138 30.7134 63.8478 31.0406 63.8478H46.4166C46.7439 63.8478 47.0095 64.1138 47.0095 64.4407C47.0095 64.7677 46.7436 65.0335 46.4166 65.0335ZM36.2713 63.6872C36.2392 63.6872 36.2057 63.6847 36.1712 63.6802C35.6994 63.6202 35.5952 63.2191 35.4515 62.6641C35.3939 62.4429 35.3197 62.156 35.2127 61.802C34.621 61.8095 34.0009 61.7983 33.3685 61.7633C33.2013 62.1987 33.042 62.6674 32.9052 63.1364C32.8138 63.4508 32.4849 63.6311 32.17 63.5394C31.8558 63.4475 31.6751 63.1186 31.7668 62.8041C31.876 62.4307 31.9978 62.0423 32.1322 61.6596C31.4576 61.5826 30.7775 61.4689 30.1068 61.3047C28.6308 60.9436 27.9334 60.3358 28.0337 59.4999C28.2598 57.6246 33.3026 56.2135 36.4621 56.2135C37.6372 56.2135 38.4319 56.5701 38.8231 57.273C39.2443 58.0293 39.1244 59.1117 38.4678 60.5014C39.8759 60.4589 40.6306 60.5334 40.9191 61.1345C41.0415 61.3898 41.2259 61.5558 41.4675 61.6281C41.8622 61.7472 42.4191 61.6084 43.0341 61.2394C43.3313 61.0611 43.5997 60.8747 43.8596 60.6944C44.5793 60.1953 45.2017 59.765 45.9224 59.9038C46.3819 59.9936 46.7825 60.3068 47.1469 60.8627C47.3265 61.1364 47.2495 61.5042 46.9755 61.6837C46.7018 61.8633 46.3345 61.7863 46.1545 61.5123C45.9829 61.2497 45.8199 61.092 45.6963 61.0676C45.4687 61.0211 44.9939 61.3509 44.5365 61.6683C44.2733 61.8507 43.9757 62.0573 43.6451 62.256C42.4849 62.9521 41.6359 62.9164 41.1275 62.7639C40.6021 62.6063 40.1693 62.2457 39.8997 61.7433C39.6012 61.6453 38.6624 61.6766 37.8069 61.7145C37.7896 61.743 37.7719 61.7722 37.7538 61.8006C37.4874 62.2313 37.2942 62.5783 37.1535 62.8312C36.8698 63.339 36.6755 63.6872 36.2713 63.6872ZM33.8705 60.5993C34.1929 60.6113 34.5119 60.6166 34.8243 60.6174C34.7634 60.4403 34.6983 60.2551 34.6298 60.0616C34.5597 59.8644 34.4976 59.7467 34.4539 59.6796C34.2965 59.8216 34.0904 60.1534 33.8705 60.5993ZM34.4941 58.439C35.0365 58.439 35.4575 58.8511 35.747 59.6647C35.8661 59.999 35.9744 60.3111 36.071 60.5993C36.4312 60.5887 36.7772 60.5743 37.1061 60.5594C37.7934 59.3069 38.0477 58.3179 37.7875 57.8506C37.58 57.4784 36.9525 57.4001 36.4622 57.4001C32.7986 57.4001 29.2874 59.0132 29.211 59.6416C29.2175 59.6416 29.3743 59.9055 30.388 60.1534C31.1094 60.33 31.8484 60.4441 32.5821 60.5149C33.0967 59.3636 33.7317 58.4607 34.4621 58.4397C34.4733 58.4395 34.4836 58.439 34.4941 58.439Z" fill="white"/>
<path fill-rule="evenodd" clip-rule="evenodd" d="M23.3416 63.5038C21.9143 63.0918 20.8676 61.7734 20.8676 60.2153V20.1253C20.8676 18.2389 22.4024 16.7039 24.289 16.7039L56.0502 16.7041C57.6083 16.7041 58.9271 17.7511 59.3388 19.1785H27.9488C25.4079 19.1785 23.3415 21.2446 23.3415 23.7857L23.3416 63.5038Z" fill="white"/>
</g>
<defs>
<clipPath id="clip0_1119_24047">
<rect width="84" height="84" fill="white" transform="translate(0 0.000488281)"/>
</clipPath>
</defs>
</svg>
