<svg width="14" height="3" viewBox="0 0 14 3" fill="none" xmlns="http://www.w3.org/2000/svg">
<path d="M1.33298 2.5C1.05717 2.5 0.822049 2.40179 0.627604 2.20538C0.43316 2.00897 0.335938 1.77286 0.335938 1.49704C0.335938 1.22124 0.434146 0.986111 0.630562 0.791667C0.826965 0.597222 1.06308 0.5 1.3389 0.5C1.6147 0.5 1.84983 0.598209 2.04427 0.794626C2.23872 0.991028 2.33594 1.22714 2.33594 1.50296C2.33594 1.77876 2.23773 2.01389 2.04131 2.20833C1.84491 2.40278 1.6088 2.5 1.33298 2.5ZM6.99965 2.5C6.72384 2.5 6.48871 2.40179 6.29427 2.20538C6.09983 2.00897 6.0026 1.77286 6.0026 1.49704C6.0026 1.22124 6.10081 0.986111 6.29723 0.791667C6.49363 0.597222 6.72974 0.5 7.00556 0.5C7.28137 0.5 7.51649 0.598209 7.71094 0.794626C7.90538 0.991028 8.0026 1.22714 8.0026 1.50296C8.0026 1.77876 7.90439 2.01389 7.70798 2.20833C7.51158 2.40278 7.27547 2.5 6.99965 2.5ZM12.6663 2.5C12.3905 2.5 12.1554 2.40179 11.9609 2.20538C11.7665 2.00897 11.6693 1.77286 11.6693 1.49704C11.6693 1.22124 11.7675 0.986111 11.9639 0.791667C12.1603 0.597222 12.3964 0.5 12.6722 0.5C12.948 0.5 13.1832 0.598209 13.3776 0.794626C13.572 0.991028 13.6693 1.22714 13.6693 1.50296C13.6693 1.77876 13.5711 2.01389 13.3746 2.20833C13.1782 2.40278 12.9421 2.5 12.6663 2.5Z" fill="#3B73B9"/>
</svg>
