<svg width="20" height="21" viewBox="0 0 20 21" fill="none" xmlns="http://www.w3.org/2000/svg">
<g clip-path="url(#clip0_2985_35544)">
<path d="M1.66797 20.5003V17.9795H18.3346V20.5003H1.66797ZM4.58464 14.2295H5.5013L13.6471 6.08366L13.1888 5.62533L12.7305 5.16699L4.58464 13.3128V14.2295ZM3.33464 15.4795V12.8128L13.6263 2.52116C13.7513 2.39616 13.8902 2.30588 14.043 2.25033C14.1957 2.19477 14.3485 2.16699 14.5013 2.16699C14.6541 2.16699 14.8103 2.19477 14.9701 2.25033C15.1298 2.30588 15.2652 2.39616 15.3763 2.52116L16.293 3.43783C16.418 3.54894 16.5117 3.68435 16.5742 3.84408C16.6367 4.0038 16.668 4.16005 16.668 4.31283C16.668 4.4656 16.6367 4.61838 16.5742 4.77116C16.5117 4.92394 16.418 5.06283 16.293 5.18783L6.0013 15.4795H3.33464ZM13.6471 6.08366L13.1888 5.62533L12.7305 5.16699L13.6471 6.08366Z" fill="#3B73B9"/>
</g>
<defs>
<clipPath id="clip0_2985_35544">
<rect width="20" height="20" fill="white" transform="translate(0 0.5)"/>
</clipPath>
</defs>
</svg>
