<svg width="49" height="48" viewBox="0 0 49 48" fill="none" xmlns="http://www.w3.org/2000/svg">
<circle cx="24.5" cy="24" r="24" fill="#3B73B9" fill-opacity="0.1"/>
<path d="M30.5673 13.1862C30.6884 13.1956 30.7973 13.2049 30.8925 13.2137L30.8225 15.9832C30.7369 15.9826 30.6419 15.9819 30.5389 15.9813C30.0682 15.9783 29.431 15.9754 28.7658 15.9754C27.9868 15.9754 27.3772 16.1535 26.9998 16.6356C26.6477 17.0854 26.5988 17.6855 26.5988 18.2365V21.147V21.647H27.0988H30.9L30.759 24.6329H27.0988H26.5988V25.1329V35.7035H23.3843V25.1329V24.6329H22.8843H20.457V21.647H22.8843H23.3843V21.147V17.7425C23.3843 16.5106 23.7815 15.3619 24.6039 14.5233C25.4222 13.6889 26.7118 13.1104 28.5979 13.1104C29.389 13.1104 30.0773 13.1483 30.5673 13.1862Z" fill="#3B73B9" stroke="#3B73B9"/>
</svg>
