<svg width="9" height="16" viewBox="0 0 9 16" fill="none" xmlns="http://www.w3.org/2000/svg">
<path d="M7.8728 8.98201L8.30981 6.13501H5.5788V4.29301C5.55968 4.08038 5.58866 3.86617 5.66357 3.66626C5.73848 3.46635 5.85739 3.28585 6.01154 3.13815C6.16568 2.99044 6.35109 2.8793 6.55402 2.81298C6.75694 2.74666 6.97216 2.72684 7.18378 2.75501H8.42877V0.327013C7.70112 0.209191 6.96588 0.144685 6.22882 0.134012C5.72072 0.0954102 5.21033 0.168994 4.73383 0.34955C4.25732 0.530106 3.82631 0.813214 3.47137 1.17883C3.11644 1.54446 2.84628 1.98365 2.67993 2.4653C2.51359 2.94695 2.45514 3.45928 2.50879 3.96601V6.13601H0.00878906V8.98301H2.50879V15.866H5.58679V8.98301L7.8728 8.98201Z" fill="white"/>
</svg>
