<svg width="40" height="40" viewBox="0 0 40 40" fill="none" xmlns="http://www.w3.org/2000/svg">
<circle cx="20" cy="20" r="20" fill="#E5E7EB"/>
<circle cx="20" cy="20" r="18" stroke="#F05252" stroke-width="4"/>
<circle cx="20" cy="20" r="16.1905" fill="white"/>
<path d="M20 8.75C17.775 8.75 15.5999 9.4098 13.7498 10.646C11.8998 11.8821 10.4578 13.6391 9.60636 15.6948C8.75487 17.7505 8.53209 20.0125 8.96617 22.1948C9.40025 24.377 10.4717 26.3816 12.0451 27.9549C13.6184 29.5283 15.623 30.5997 17.8052 31.0338C19.9875 31.4679 22.2495 31.2451 24.3052 30.3936C26.3609 29.5422 28.1179 28.1002 29.354 26.2502C30.5902 24.4001 31.25 22.225 31.25 20C31.2467 17.0173 30.0604 14.1577 27.9513 12.0487C25.8423 9.93959 22.9827 8.75328 20 8.75ZM24.1704 18.5454L19.6704 23.0454C19.4594 23.2563 19.1733 23.3748 18.875 23.3748C18.5767 23.3748 18.2906 23.2563 18.0796 23.0454L15.8296 20.7954C15.6247 20.5832 15.5113 20.299 15.5139 20.004C15.5164 19.7091 15.6347 19.4269 15.8433 19.2183C16.0519 19.0097 16.3341 18.8914 16.6291 18.8889C16.924 18.8863 17.2082 18.9997 17.4204 19.2046L18.875 20.6592L22.5796 16.9546C22.7918 16.7497 23.076 16.6363 23.371 16.6389C23.6659 16.6414 23.9481 16.7597 24.1567 16.9683C24.3653 17.1769 24.4836 17.4591 24.4861 17.754C24.4887 18.049 24.3753 18.3332 24.1704 18.5454Z" fill="#F05252"/>
</svg>
