<svg width="16" height="16" viewBox="0 0 16 16" fill="none" xmlns="http://www.w3.org/2000/svg">
<path d="M8 14C6.81331 14 5.65328 13.6481 4.66658 12.9888C3.67989 12.3295 2.91085 11.3925 2.45673 10.2961C2.0026 9.19975 1.88378 7.99335 2.11529 6.82946C2.3468 5.66557 2.91825 4.59648 3.75736 3.75736C4.59648 2.91825 5.66557 2.3468 6.82946 2.11529C7.99335 1.88378 9.19975 2.0026 10.2961 2.45673C11.3925 2.91085 12.3295 3.67989 12.9888 4.66658C13.6481 5.65328 14 6.81331 14 8C13.9983 9.59076 13.3656 11.1159 12.2407 12.2407C11.1159 13.3656 9.59076 13.9983 8 14ZM8 3.2C7.05065 3.2 6.12262 3.48152 5.33326 4.00895C4.54391 4.53638 3.92868 5.28604 3.56538 6.16312C3.20208 7.04021 3.10702 8.00533 3.29223 8.93644C3.47744 9.86754 3.9346 10.7228 4.60589 11.3941C5.27718 12.0654 6.13246 12.5226 7.06357 12.7078C7.99468 12.893 8.9598 12.7979 9.83688 12.4346C10.714 12.0713 11.4636 11.4561 11.9911 10.6667C12.5185 9.87738 12.8 8.94935 12.8 8C12.7986 6.7274 12.2924 5.50733 11.3925 4.60747C10.4927 3.7076 9.2726 3.20143 8 3.2Z" fill="#F05252"/>
<path d="M8 11C7.84087 11 7.68826 10.9368 7.57574 10.8243C7.46322 10.7117 7.4 10.5591 7.4 10.4V8H6.8C6.64087 8 6.48826 7.93679 6.37574 7.82427C6.26322 7.71174 6.2 7.55913 6.2 7.4C6.2 7.24087 6.26322 7.08826 6.37574 6.97574C6.48826 6.86322 6.64087 6.8 6.8 6.8H8C8.15913 6.8 8.31174 6.86322 8.42427 6.97574C8.53679 7.08826 8.6 7.24087 8.6 7.4V10.4C8.6 10.5591 8.53679 10.7117 8.42427 10.8243C8.31174 10.9368 8.15913 11 8 11Z" fill="#F05252"/>
<path d="M9.2 11H6.8C6.64087 11 6.48826 10.9368 6.37574 10.8243C6.26322 10.7117 6.2 10.5591 6.2 10.4C6.2 10.2409 6.26322 10.0883 6.37574 9.97574C6.48826 9.86322 6.64087 9.8 6.8 9.8H9.2C9.35913 9.8 9.51174 9.86322 9.62427 9.97574C9.73679 10.0883 9.8 10.2409 9.8 10.4C9.8 10.5591 9.73679 10.7117 9.62427 10.8243C9.51174 10.9368 9.35913 11 9.2 11Z" fill="#F05252"/>
<path d="M7.7 6.2C8.19706 6.2 8.6 5.79706 8.6 5.3C8.6 4.80295 8.19706 4.4 7.7 4.4C7.20295 4.4 6.8 4.80295 6.8 5.3C6.8 5.79706 7.20295 6.2 7.7 6.2Z" fill="#F05252"/>
</svg>
