<svg width="49" height="48" viewBox="0 0 49 48" fill="none" xmlns="http://www.w3.org/2000/svg">
<circle cx="24.5" cy="24" r="24" fill="#3B73B9" fill-opacity="0.1"/>
<path d="M35.1431 19.5617L35.1431 19.5617L35.1433 19.5656C35.2228 20.9779 35.2212 22.3811 35.2197 23.8098C35.2195 24.0083 35.2192 24.2073 35.2192 24.4069C35.2192 24.6306 35.2196 24.8535 35.2199 25.0757C35.222 26.4803 35.224 27.8593 35.1433 29.2473L35.1431 29.2521C35.0547 31.0782 34.6462 32.6081 33.3855 33.8689C32.1276 35.1268 30.5946 35.5381 28.7687 35.6265L28.7648 35.6267C27.3526 35.7062 25.9494 35.7046 24.5206 35.7031C24.3221 35.7029 24.1231 35.7026 23.9235 35.7026C23.7244 35.7026 23.5258 35.7029 23.3276 35.7031C21.9007 35.7046 20.4971 35.7062 19.0822 35.6267L19.0783 35.6265C17.2523 35.5381 15.7223 35.1296 14.4616 33.8689C13.2037 32.611 12.7924 31.078 12.704 29.2521L12.7038 29.2482C12.6243 27.8359 12.6258 26.4304 12.6274 25.003C12.6276 24.8047 12.6278 24.6061 12.6278 24.4069C12.6278 24.2078 12.6276 24.0091 12.6274 23.8109C12.6258 22.3841 12.6243 20.9805 12.7038 19.5656L12.7038 19.5656L12.704 19.5617C12.7924 17.7357 13.2009 16.2057 14.4616 14.945C15.7195 13.6871 17.2525 13.2758 19.0783 13.1874L19.0783 13.1874L19.0822 13.1872C20.4945 13.1077 21.8977 13.1092 23.3265 13.1108C23.525 13.111 23.724 13.1112 23.9235 13.1112C24.1227 13.1112 24.3214 13.111 24.5195 13.1108C25.9464 13.1092 27.35 13.1077 28.7649 13.1872V13.1872L28.7687 13.1874C30.5948 13.2758 32.1247 13.6843 33.3855 14.945C34.6434 16.2029 35.0547 17.7359 35.1431 19.5617ZM20.4867 24.4069C20.4867 22.5169 22.0306 20.9731 23.9206 20.9731C25.8106 20.9731 27.3545 22.5169 27.3545 24.4069C27.3545 26.2969 25.8106 27.8408 23.9206 27.8408C22.0306 27.8408 20.4867 26.2969 20.4867 24.4069ZM33.739 34.2224C35.1231 32.8383 35.551 31.165 35.6425 29.2763L12.2046 19.5376C12.1242 20.9678 12.1258 22.3867 12.1274 23.8121C12.1276 24.0103 12.1278 24.2085 12.1278 24.4069C12.1278 24.6053 12.1276 24.8036 12.1274 25.0018C12.1258 26.4278 12.1242 27.8486 12.2046 29.2763C12.296 31.165 12.7269 32.8413 14.108 34.2224C15.4921 35.6065 17.1654 36.0344 19.0542 36.1259C20.4844 36.2062 21.9033 36.2047 23.3287 36.2031C23.5269 36.2029 23.7251 36.2026 23.9235 36.2026C24.1224 36.2026 24.321 36.2029 24.5194 36.2031C25.9468 36.2047 27.3653 36.2062 28.7929 36.1259C30.6817 36.0344 32.3579 35.6036 33.739 34.2224ZM17.3678 24.4069C17.3678 28.0326 20.2949 30.9597 23.9206 30.9597C27.5463 30.9597 30.4734 28.0326 30.4734 24.4069C30.4734 20.7813 27.5463 17.8541 23.9206 17.8541C20.2949 17.8541 17.3678 20.7813 17.3678 24.4069ZM28.3077 18.1063C28.3077 19.1644 29.163 20.0197 30.2211 20.0198L30.2213 19.5198C30.407 19.5201 30.5909 19.4837 30.7625 19.4127C30.9341 19.3418 31.09 19.2376 31.2214 19.1063C31.3527 18.975 31.4568 18.8191 31.5277 18.6475C31.5987 18.4759 31.6351 18.292 31.6349 18.1063H32.1349C32.1349 18.106 32.1349 18.1058 32.1349 18.1056C32.1345 17.0477 31.2793 16.1927 30.2213 16.1927C29.1631 16.1927 28.3077 17.0481 28.3077 18.1063Z" fill="#3B73B9" stroke="#3B73B9"/>
</svg>
