<svg width="16" height="17" viewBox="0 0 16 17" fill="none" xmlns="http://www.w3.org/2000/svg">
<path d="M5.3678 13.6458H10.6334C11.6517 13.6458 12.4797 12.8979 12.4797 11.9794V10.0964C12.4797 9.17793 11.6517 8.43005 10.6334 8.43005H5.3678C4.34952 8.43005 3.52148 9.17793 3.52148 10.0964V11.9794C3.52148 12.8985 4.34952 13.6458 5.3678 13.6458ZM4.75216 10.097C4.75216 9.7908 5.02858 9.54132 5.3678 9.54132H10.6334C10.9726 9.54132 11.2491 9.79024 11.2491 10.097V11.9794C11.2491 12.2856 10.9726 12.5345 10.6334 12.5345H5.3678C5.02858 12.5345 4.75216 12.2856 4.75216 11.9794V10.097Z" fill="#6B7280"/>
<path d="M15.3856 5.57632H14.1549C13.8151 5.57632 13.5393 5.82524 13.5393 6.13195V15.3893H2.46134V6.13195C2.46134 5.82524 2.18553 5.57632 1.8457 5.57632H0.615025C0.275189 5.57632 0 5.82524 0 6.13195C0 6.43811 0.275189 6.68759 0.615025 6.68759H1.23067V15.9444C1.23067 16.2511 1.50586 16.5001 1.8457 16.5001H14.1543C14.4941 16.5001 14.7693 16.2511 14.7693 15.9444V6.68759H15.385C15.7248 6.68759 16 6.43866 16 6.13195C16.0006 5.82469 15.7254 5.57632 15.3856 5.57632Z" fill="#6B7280"/>
<path d="M5.38586 6.88039C5.70683 6.88039 5.96703 6.64556 5.96703 6.35587C5.96703 6.06619 5.70683 5.83136 5.38586 5.83136C5.06489 5.83136 4.80469 6.06619 4.80469 6.35587C4.80469 6.64556 5.06489 6.88039 5.38586 6.88039Z" fill="#6B7280"/>
<path d="M7.12804 6.88039C7.44902 6.88039 7.70921 6.64556 7.70921 6.35587C7.70921 6.06619 7.44902 5.83136 7.12804 5.83136C6.80707 5.83136 6.54688 6.06619 6.54688 6.35587C6.54688 6.64556 6.80707 6.88039 7.12804 6.88039Z" fill="#6B7280"/>
<path d="M8.87219 5.83136C9.19294 5.83136 9.45335 6.06639 9.45335 6.35587C9.45335 6.64536 9.19294 6.88039 8.87219 6.88039C8.55082 6.88039 8.29102 6.64536 8.29102 6.35587C8.29102 6.06639 8.55082 5.83136 8.87219 5.83136Z" fill="#6B7280"/>
<path d="M10.6163 5.83136C10.9377 5.83136 11.1975 6.06639 11.1975 6.35587C11.1975 6.64536 10.9371 6.88039 10.6163 6.88039C10.2956 6.88039 10.0352 6.64536 10.0352 6.35587C10.0352 6.06639 10.295 5.83136 10.6163 5.83136Z" fill="#6B7280"/>
<path d="M4.13659 8.12612H11.8629C12.0895 8.12612 12.273 7.96054 12.273 7.75607C12.273 7.5516 12.0889 7.38602 11.8629 7.38602H4.13659C3.91003 7.38602 3.72656 7.5516 3.72656 7.75607C3.72656 7.95999 3.91003 8.12612 4.13659 8.12612Z" fill="#6B7280"/>
<path d="M7.8794 5.22072H13.1105C13.1124 5.22127 13.1136 5.22127 13.1148 5.22072C13.3414 5.22072 13.5249 5.0557 13.5249 4.85123C13.5249 4.83233 13.523 4.814 13.5199 4.79622C13.515 4.40283 13.4547 4.02666 13.3519 3.67384C13.6979 3.41991 13.9189 3.03319 13.9189 2.5998C13.9189 1.83636 13.2306 1.21516 12.3847 1.21516C12.0621 1.21516 11.7629 1.30573 11.5166 1.45964C11.3209 1.37519 11.1171 1.31184 10.9053 1.27739V0.870113C10.9053 0.66564 10.7212 0.500061 10.4953 0.500061C10.2687 0.500061 10.0846 0.66564 10.0846 0.870113V1.27739C9.53918 1.36629 9.03988 1.628 8.62679 2.01638L8.26356 1.68856C8.10349 1.5441 7.84369 1.5441 7.68301 1.68856C7.52294 1.83358 7.52294 2.06751 7.68301 2.21197L8.12503 2.61147C7.71563 3.22711 7.46875 4.00444 7.46875 4.85067C7.46875 5.05569 7.65284 5.22072 7.8794 5.22072ZM12.3853 1.77079C12.8914 1.77079 13.3038 2.14252 13.3038 2.5998C13.3038 2.78038 13.238 2.94651 13.1284 3.0832C12.8828 2.56702 12.5361 2.12918 12.1169 1.81024C12.2031 1.78691 12.2911 1.77079 12.3853 1.77079Z" fill="#6B7280"/>
</svg>
