<svg width="84" height="84" viewBox="0 0 84 84" fill="none" xmlns="http://www.w3.org/2000/svg">
<path d="M42.0099 84.0204C65.2114 84.0204 84.0199 65.2119 84.0199 42.0104C84.0199 18.809 65.2114 0.000488281 42.0099 0.000488281C18.8085 0.000488281 0 18.809 0 42.0104C0 65.2119 18.8085 84.0204 42.0099 84.0204Z" fill="#3B73B9"/>
<path fill-rule="evenodd" clip-rule="evenodd" d="M48.5756 55.8575H36.872C36.9382 55.4721 36.9731 55.0759 36.9731 54.6718C36.9731 52.2417 35.7251 50.0985 33.8363 48.8484H48.5756C49.2307 48.8484 49.7614 49.379 49.7614 50.034V54.6718C49.7614 55.3269 49.2305 55.8575 48.5756 55.8575ZM23.1163 55.8575H17.8915C17.2368 55.8575 16.7058 55.3269 16.7058 54.6718V50.034C16.7058 49.379 17.2368 48.8484 17.8915 48.8484H26.152C24.2634 50.0985 23.0153 52.2417 23.0153 54.6718C23.0153 55.0759 23.0502 55.4719 23.1163 55.8575Z" fill="white"/>
<path fill-rule="evenodd" clip-rule="evenodd" d="M57.4406 60.0698C54.4643 60.0698 52.0427 57.6482 52.0427 54.672C52.0427 51.6958 54.4643 49.2742 57.4406 49.2742C60.4168 49.2742 62.8379 51.6958 62.8379 54.672C62.8379 57.6482 60.4171 60.0698 57.4406 60.0698Z" fill="#FEFEFE"/>
<path fill-rule="evenodd" clip-rule="evenodd" d="M29.9939 60.0698C27.0178 60.0698 24.5962 57.6482 24.5962 54.672C24.5962 51.6958 27.0178 49.2742 29.9939 49.2742C32.9702 49.2742 35.3918 51.6958 35.3918 54.672C35.3918 57.6482 32.9702 60.0698 29.9939 60.0698Z" fill="#FEFEFE"/>
<path fill-rule="evenodd" clip-rule="evenodd" d="M20.6618 47.2673V38.7915C21.0251 38.964 21.4286 39.0584 21.8474 39.0584H44.3029C44.7218 39.0584 45.1253 38.964 45.4886 38.7916V47.2673H38.3412V42.6079C38.3412 42.1714 37.9871 41.8175 37.5507 41.8175H28.6C28.1633 41.8175 27.8096 42.1713 27.8096 42.6079V47.2673L20.6618 47.2673ZM36.7603 47.2673H29.3905V43.3981H36.7603V47.2673Z" fill="#FEFEFE"/>
<path fill-rule="evenodd" clip-rule="evenodd" d="M44.3028 37.4775H21.8474C21.3668 37.4775 20.9338 37.1873 20.7506 36.7429C20.5677 36.2982 20.6714 35.7879 21.0127 35.4494L32.294 24.2748C32.758 23.8153 33.5052 23.8173 33.9668 24.2786L45.141 35.4532C45.4802 35.7924 45.5815 36.3024 45.3983 36.7455C45.2149 37.1888 44.7826 37.4775 44.3028 37.4775Z" fill="#FEFEFE"/>
<path d="M50.5628 55.8576H48.575C47.8927 55.8576 47.3396 55.3044 47.3396 54.6222V33.7615C47.3396 33.0793 47.8927 32.5261 48.575 32.5261H56.9464C59.8612 32.5261 62.5103 33.7177 64.43 35.6374C66.3497 37.5571 67.5413 40.2062 67.5413 43.121V54.6222C67.5413 55.3044 66.9881 55.8576 66.3059 55.8576H64.318C64.3842 55.4722 64.4191 55.076 64.4191 54.6719C64.4191 50.8232 61.2896 47.6929 57.4407 47.6929C53.5919 47.6929 50.4617 50.823 50.4617 54.6719C50.4617 55.076 50.4967 55.4722 50.5628 55.8576ZM49.8103 44.0702H65.0705V43.121C65.0705 40.8881 64.1562 38.8573 62.6831 37.3843C61.2101 35.9113 59.1793 34.9969 56.9464 34.9969H49.8103L49.8103 44.0702Z" fill="#FEFEFE"/>
</svg>
