<svg width="84" height="84" viewBox="0 0 84 84" fill="none" xmlns="http://www.w3.org/2000/svg">
<path d="M42.0099 84.0204C65.2114 84.0204 84.0199 65.2119 84.0199 42.0104C84.0199 18.809 65.2114 0.000488281 42.0099 0.000488281C18.8085 0.000488281 0 18.809 0 42.0104C0 65.2119 18.8085 84.0204 42.0099 84.0204Z" fill="#98CC5D"/>
<path d="M42.0099 84.0204C65.2114 84.0204 84.0199 65.2119 84.0199 42.0104C84.0199 18.809 65.2114 0.000488281 42.0099 0.000488281C18.8085 0.000488281 0 18.809 0 42.0104C0 65.2119 18.8085 84.0204 42.0099 84.0204Z" fill="#3B73B9"/>
<path fill-rule="evenodd" clip-rule="evenodd" d="M53.4807 67.2949H30.5196C28.5998 67.2949 27.0378 65.733 27.0378 63.8131V58.1494V20.1875C27.0378 18.2677 28.5995 16.7058 30.5196 16.7058H53.4807C55.4005 16.7058 56.9624 18.2677 56.9624 20.1875V58.1494V63.8131C56.9624 65.7329 55.4003 67.2949 53.4807 67.2949ZM29.4093 56.9637H54.5911V20.1874C54.5911 19.5753 54.0929 19.0771 53.4807 19.0771H30.5196C29.9074 19.0771 29.4093 19.5752 29.4093 20.1874L29.4093 56.9637Z" fill="#FEFEFE"/>
<path fill-rule="evenodd" clip-rule="evenodd" d="M51.0461 51.3095H46.396V42.9336C46.396 42.4967 46.0424 42.1432 45.6055 42.1432H38.3943C37.9574 42.1432 37.6039 42.4967 37.6039 42.9336V51.3095H32.9537C32.2987 51.3095 31.7681 50.7789 31.7681 50.1239V39.0522C31.7681 38.7355 31.8944 38.4325 32.1192 38.2099L41.2087 29.2069C41.6722 28.748 42.4207 28.7495 42.8814 29.211L51.8844 38.2139C52.1068 38.4362 52.2318 38.738 52.2318 39.0526V50.1243C52.2318 50.7789 51.7012 51.3095 51.0461 51.3095ZM44.8151 51.3095H39.1847V43.7242H44.8151V51.3095Z" fill="#FEFEFE"/>
<path fill-rule="evenodd" clip-rule="evenodd" d="M43.6909 24.2586H40.3096C39.655 24.2586 39.1239 23.728 39.1239 23.073C39.1239 22.4178 39.655 21.8872 40.3096 21.8872H43.6909C44.346 21.8872 44.8766 22.4178 44.8766 23.073C44.8766 23.728 44.3459 24.2586 43.6909 24.2586Z" fill="#FEFEFE"/>
</svg>
