<svg width="84" height="84" viewBox="0 0 84 84" fill="none" xmlns="http://www.w3.org/2000/svg">
<path d="M42.0099 84.0204C65.2114 84.0204 84.0199 65.2119 84.0199 42.0104C84.0199 18.809 65.2114 0.000488281 42.0099 0.000488281C18.8085 0.000488281 0 18.809 0 42.0104C0 65.2119 18.8085 84.0204 42.0099 84.0204Z" fill="#3B73B9"/>
<path fill-rule="evenodd" clip-rule="evenodd" d="M64.3503 63.6283H59.0957V56.2972C59.0957 55.6422 58.5651 55.1115 57.9101 55.1115H51.5378C50.8828 55.1115 50.3522 55.6422 50.3522 56.2972V63.6283H45.0979C44.4427 63.6283 43.9121 63.0977 43.9121 62.4426V54.5697C44.2481 54.4984 44.5697 54.3648 44.8594 54.1742L54.6013 47.7629L64.6143 54.1913C64.9004 54.3749 65.2131 54.501 65.5359 54.5692V62.4425C65.5357 63.0977 65.0048 63.6283 64.3503 63.6283ZM56.7243 63.6283H52.7235V57.483H56.7243V63.6283Z" fill="white"/>
<path fill-rule="evenodd" clip-rule="evenodd" d="M43.3385 53.0486C43.1454 53.0486 42.9524 53.0017 42.7762 52.9066C42.392 52.6995 42.1528 52.2985 42.1528 51.863V48.1829C42.1528 47.7838 42.3534 47.4117 42.6868 47.1927L53.9298 39.7924C54.3206 39.5348 54.8281 39.5319 55.2222 39.7849L66.7496 47.1848C67.0893 47.403 67.2947 47.7789 67.2947 48.1829V51.863C67.2947 52.2965 67.058 52.6954 66.6775 52.9033C66.2971 53.111 65.8341 53.0947 65.4684 52.8606L54.5906 45.877L43.9901 52.8532C43.7935 52.9828 43.5662 53.0486 43.3385 53.0486Z" fill="#FEFEFE"/>
<path fill-rule="evenodd" clip-rule="evenodd" d="M42.5973 63.6283H25.3378V54.2753C25.3378 53.8383 24.9843 53.4849 24.5473 53.4849C24.1103 53.4849 23.7568 53.8383 23.7568 54.2753V63.6283H17.891C17.2358 63.6283 16.7053 63.0977 16.7053 62.4425V49.8835C16.7053 46.5133 19.4469 43.7718 22.8168 43.7718L27.6251 43.7717C27.9417 43.7717 28.2452 43.8985 28.4674 44.1234C28.69 44.3482 28.8136 44.6529 28.8103 44.9694C28.7705 47.3598 30.7358 49.3264 33.1183 49.3264C35.4942 49.3264 37.4271 47.3935 37.4271 45.0176L37.4267 44.9578C37.4267 44.3028 37.9576 43.7722 38.6123 43.7722H43.4483C43.9019 43.7722 44.3488 43.8222 44.7833 43.92L41.8174 45.8722C41.0399 46.3841 40.5716 47.2521 40.5716 48.1831V51.8632C40.5716 52.8803 41.1302 53.8153 42.0254 54.2983C42.1246 54.3518 42.2266 54.399 42.3308 54.4398V62.4425C42.3308 62.8668 42.4265 63.2688 42.5973 63.6283Z" fill="#FEFEFE"/>
<path fill-rule="evenodd" clip-rule="evenodd" d="M33.8333 44.4757H32.4046C28.1089 44.4757 24.6146 40.9812 24.6146 36.6856V29.7013C24.6135 29.6713 24.6135 29.6413 24.6146 29.6113V28.1635C24.6146 23.8678 28.1091 20.3729 32.4046 20.3729L33.8333 20.3728C38.1289 20.3728 41.6233 23.8675 41.6233 28.1633V36.6855C41.6233 40.9812 38.1288 44.4757 33.8333 44.4757ZM39.2524 30.7033L36.1923 28.0169L34.3993 29.81C34.0193 30.1891 33.4326 30.2669 32.9678 29.9985L31.248 29.0059C29.7498 28.2846 27.7962 29.5839 26.9854 30.2122V36.6855C26.9854 39.6735 29.4166 42.1046 32.4045 42.1046H33.8332C36.8211 42.1046 39.2523 39.6735 39.2523 36.6855L39.2524 30.7033Z" fill="#FEFEFE"/>
<path fill-rule="evenodd" clip-rule="evenodd" d="M31.2685 33.6817H29.4537C28.7986 33.6817 28.2679 33.1511 28.2679 32.496C28.2679 31.8409 28.7986 31.3103 29.4537 31.3103H31.2685C31.9235 31.3103 32.4541 31.8409 32.4541 32.496C32.4541 33.1511 31.9235 33.6817 31.2685 33.6817Z" fill="#FEFEFE"/>
<path fill-rule="evenodd" clip-rule="evenodd" d="M36.7843 33.6817H34.9692C34.3142 33.6817 33.7836 33.1511 33.7836 32.496C33.7836 31.8409 34.3142 31.3103 34.9692 31.3103H36.7843C37.4395 31.3103 37.97 31.8409 37.97 32.496C37.97 33.1511 37.4395 33.6817 36.7843 33.6817Z" fill="#FEFEFE"/>
<path fill-rule="evenodd" clip-rule="evenodd" d="M34.0263 38.6732H32.2115C31.5565 38.6732 31.0259 38.1426 31.0259 37.4875C31.0259 36.8324 31.5565 36.3018 32.2115 36.3018H34.0263C34.6813 36.3018 35.212 36.8324 35.212 37.4875C35.212 38.1426 34.6812 38.6732 34.0263 38.6732Z" fill="#FEFEFE"/>
</svg>
