<svg width="231" height="48" viewBox="0 0 231 48" fill="none" xmlns="http://www.w3.org/2000/svg">
<path d="M0.5 12C0.5 5.37258 5.87258 0 12.5 0H218.5C225.127 0 230.5 5.37258 230.5 12V36C230.5 42.6274 225.127 48 218.5 48H12.5C5.87258 48 0.5 42.6274 0.5 36V12Z" fill="#98CC5D" fill-opacity="0.1"/>
<path d="M53.7116 28.12C53.2556 28.12 52.8476 28.056 52.4876 27.928C52.1356 27.8 51.8316 27.588 51.5756 27.292C51.3276 26.988 51.1356 26.58 50.9996 26.068C50.8716 25.556 50.8076 24.92 50.8076 24.16C50.8076 23.352 50.8716 22.676 50.9996 22.132C51.1276 21.588 51.3156 21.156 51.5636 20.836C51.8196 20.516 52.1236 20.288 52.4756 20.152C52.8356 20.016 53.2436 19.948 53.6996 19.948C54.1716 19.948 54.5876 20.016 54.9476 20.152C55.3076 20.288 55.6076 20.516 55.8476 20.836C56.0956 21.156 56.2836 21.588 56.4116 22.132C56.5396 22.668 56.6036 23.344 56.6036 24.16C56.6036 25.168 56.4876 25.96 56.2556 26.536C56.0236 27.112 55.6916 27.52 55.2596 27.76C54.8356 28 54.3196 28.12 53.7116 28.12ZM53.7116 27.268C54.0236 27.268 54.2956 27.22 54.5276 27.124C54.7676 27.028 54.9676 26.864 55.1276 26.632C55.2876 26.4 55.4076 26.084 55.4876 25.684C55.5676 25.276 55.6076 24.768 55.6076 24.16C55.6076 23.496 55.5676 22.948 55.4876 22.516C55.4156 22.084 55.2996 21.744 55.1396 21.496C54.9876 21.24 54.7916 21.06 54.5516 20.956C54.3196 20.852 54.0396 20.8 53.7116 20.8C53.3916 20.8 53.1116 20.852 52.8716 20.956C52.6316 21.06 52.4316 21.236 52.2716 21.484C52.1196 21.732 52.0036 22.076 51.9236 22.516C51.8436 22.948 51.8036 23.5 51.8036 24.172C51.8036 24.78 51.8436 25.288 51.9236 25.696C52.0116 26.096 52.1356 26.412 52.2956 26.644C52.4636 26.868 52.6636 27.028 52.8956 27.124C53.1356 27.22 53.4076 27.268 53.7116 27.268ZM60.7864 28V21.148L58.7704 22.492L58.3264 21.76L60.8464 20.08H61.7464V28H60.7864ZM64.6093 28V27.184L66.8893 24.796C67.2173 24.452 67.5013 24.144 67.7413 23.872C67.9813 23.592 68.1653 23.32 68.2933 23.056C68.4213 22.784 68.4853 22.496 68.4853 22.192C68.4853 21.672 68.3413 21.316 68.0533 21.124C67.7733 20.924 67.3493 20.824 66.7812 20.824C66.5733 20.824 66.3413 20.84 66.0853 20.872C65.8293 20.896 65.5813 20.928 65.3413 20.968C65.1093 21 64.9093 21.036 64.7413 21.076L64.6693 20.284C64.8373 20.236 65.0453 20.188 65.2933 20.14C65.5413 20.092 65.8093 20.052 66.0973 20.02C66.3933 19.98 66.6813 19.96 66.9613 19.96C67.8013 19.96 68.4293 20.128 68.8453 20.464C69.2693 20.8 69.4813 21.34 69.4813 22.084C69.4813 22.476 69.4173 22.828 69.2893 23.14C69.1693 23.452 68.9853 23.76 68.7373 24.064C68.4973 24.36 68.1893 24.692 67.8133 25.06L65.7373 27.16H69.6733V28H64.6093ZM73.8321 28.12C73.5281 28.12 73.2121 28.1 72.8841 28.06C72.5561 28.028 72.2481 27.988 71.9601 27.94C71.6721 27.892 71.4321 27.844 71.2401 27.796L71.3241 27.016C71.5081 27.048 71.7361 27.084 72.0081 27.124C72.2801 27.164 72.5681 27.2 72.8721 27.232C73.1761 27.256 73.4641 27.268 73.7361 27.268C74.3121 27.268 74.7361 27.144 75.0081 26.896C75.2881 26.64 75.4281 26.264 75.4281 25.768C75.4281 25.408 75.3561 25.124 75.2121 24.916C75.0681 24.708 74.8721 24.556 74.6241 24.46C74.3841 24.364 74.1161 24.312 73.8201 24.304H72.2241V23.476H73.8201C74.0201 23.476 74.2281 23.42 74.4441 23.308C74.6681 23.196 74.8561 23.036 75.0081 22.828C75.1601 22.612 75.2361 22.356 75.2361 22.06C75.2361 21.612 75.1121 21.292 74.8641 21.1C74.6241 20.9 74.2161 20.8 73.6401 20.8C73.3761 20.8 73.1041 20.816 72.8241 20.848C72.5521 20.872 72.2921 20.904 72.0441 20.944C71.8041 20.976 71.6041 21.012 71.4441 21.052L71.3601 20.284C71.5201 20.236 71.7241 20.188 71.9721 20.14C72.2281 20.084 72.5041 20.04 72.8001 20.008C73.0961 19.968 73.3881 19.948 73.6761 19.948C74.3081 19.948 74.8081 20.024 75.1761 20.176C75.5521 20.32 75.8201 20.544 75.9801 20.848C76.1481 21.152 76.2321 21.54 76.2321 22.012C76.2321 22.316 76.1841 22.576 76.0881 22.792C75.9921 23 75.8761 23.176 75.7401 23.32C75.6041 23.456 75.4721 23.564 75.3441 23.644C75.2161 23.724 75.1201 23.784 75.0561 23.824C75.3281 23.92 75.5641 24.036 75.7641 24.172C75.9721 24.3 76.1321 24.488 76.2441 24.736C76.3641 24.976 76.4241 25.308 76.4241 25.732C76.4241 26.268 76.3321 26.712 76.1481 27.064C75.9721 27.416 75.6921 27.68 75.3081 27.856C74.9241 28.032 74.4321 28.12 73.8321 28.12ZM81.5069 28V26.464H77.6909V25.72L79.9349 20.08H80.9909L78.6989 25.612H81.5069V23.164H82.4669V25.612H83.4629V26.464H82.4669V28H81.5069ZM87.3098 28.108C87.0138 28.108 86.7018 28.088 86.3738 28.048C86.0458 28.008 85.7298 27.964 85.4258 27.916C85.1298 27.86 84.8818 27.808 84.6818 27.76L84.7898 26.992C84.9898 27.024 85.2298 27.064 85.5098 27.112C85.7898 27.152 86.0778 27.188 86.3738 27.22C86.6778 27.244 86.9578 27.256 87.2138 27.256C87.7578 27.256 88.1858 27.1 88.4978 26.788C88.8178 26.476 88.9778 26.024 88.9778 25.432C88.9778 25.032 88.9098 24.72 88.7738 24.496C88.6378 24.264 88.4458 24.1 88.1978 24.004C87.9498 23.908 87.6618 23.86 87.3338 23.86C87.0938 23.86 86.8538 23.884 86.6138 23.932C86.3738 23.98 86.1538 24.04 85.9538 24.112C85.7538 24.184 85.5898 24.256 85.4618 24.328L84.8138 24.196L85.0298 20.08H89.6498V20.944H85.8218L85.6058 23.476C85.7418 23.412 85.9098 23.344 86.1098 23.272C86.3098 23.2 86.5258 23.14 86.7578 23.092C86.9898 23.036 87.2178 23.008 87.4418 23.008C87.9618 23.008 88.4098 23.088 88.7858 23.248C89.1618 23.4 89.4538 23.648 89.6618 23.992C89.8698 24.328 89.9738 24.78 89.9738 25.348C89.9738 25.956 89.8658 26.464 89.6498 26.872C89.4418 27.28 89.1378 27.588 88.7378 27.796C88.3458 28.004 87.8698 28.108 87.3098 28.108ZM94.0726 28.12C93.0806 28.12 92.3566 27.756 91.9006 27.028C91.4526 26.292 91.2286 25.284 91.2286 24.004C91.2286 23.284 91.3006 22.668 91.4446 22.156C91.5886 21.644 91.7966 21.228 92.0686 20.908C92.3406 20.58 92.6686 20.34 93.0526 20.188C93.4366 20.036 93.8646 19.96 94.3366 19.96C94.5846 19.96 94.8446 19.972 95.1166 19.996C95.3886 20.02 95.6486 20.048 95.8966 20.08C96.1446 20.112 96.3526 20.144 96.5206 20.176L96.4246 20.944C96.2726 20.928 96.0766 20.912 95.8366 20.896C95.6046 20.872 95.3566 20.852 95.0926 20.836C94.8366 20.82 94.5846 20.812 94.3366 20.812C93.6566 20.812 93.1366 21.044 92.7766 21.508C92.4166 21.972 92.2326 22.636 92.2246 23.5C92.2966 23.484 92.4006 23.452 92.5366 23.404C92.6806 23.356 92.8446 23.304 93.0286 23.248C93.2206 23.192 93.4166 23.144 93.6166 23.104C93.8166 23.064 94.0086 23.044 94.1926 23.044C95.0646 23.044 95.7246 23.244 96.1726 23.644C96.6206 24.044 96.8446 24.664 96.8446 25.504C96.8446 26.064 96.7366 26.54 96.5206 26.932C96.3046 27.324 95.9886 27.62 95.5726 27.82C95.1646 28.02 94.6646 28.12 94.0726 28.12ZM94.0726 27.268C94.6486 27.268 95.0886 27.116 95.3926 26.812C95.7046 26.508 95.8606 26.072 95.8606 25.504C95.8606 24.96 95.7046 24.556 95.3926 24.292C95.0886 24.028 94.6646 23.896 94.1206 23.896C93.9046 23.896 93.6766 23.92 93.4366 23.968C93.1966 24.016 92.9686 24.076 92.7526 24.148C92.5366 24.212 92.3566 24.276 92.2126 24.34C92.2206 24.892 92.2846 25.392 92.4046 25.84C92.5246 26.28 92.7206 26.628 92.9926 26.884C93.2646 27.14 93.6246 27.268 94.0726 27.268ZM100.163 28.12L99.2635 27.844L102.227 21.268V20.944H98.2795V20.08H103.211V21.328L100.163 28.12ZM107.406 28.12C106.878 28.12 106.386 28.056 105.93 27.928C105.482 27.8 105.122 27.58 104.85 27.268C104.578 26.956 104.442 26.528 104.442 25.984C104.442 25.576 104.498 25.244 104.61 24.988C104.73 24.732 104.89 24.52 105.09 24.352C105.298 24.176 105.534 24.012 105.798 23.86C105.39 23.652 105.082 23.412 104.874 23.14C104.674 22.868 104.574 22.488 104.574 22C104.574 21.544 104.69 21.164 104.922 20.86C105.154 20.556 105.482 20.328 105.906 20.176C106.33 20.024 106.83 19.948 107.406 19.948C107.974 19.948 108.474 20.024 108.906 20.176C109.338 20.328 109.674 20.556 109.914 20.86C110.162 21.164 110.286 21.548 110.286 22.012C110.286 22.524 110.182 22.908 109.974 23.164C109.766 23.42 109.434 23.652 108.978 23.86C109.258 23.988 109.506 24.136 109.722 24.304C109.938 24.472 110.106 24.68 110.226 24.928C110.346 25.168 110.406 25.476 110.406 25.852C110.406 26.436 110.27 26.892 109.998 27.22C109.726 27.548 109.362 27.78 108.906 27.916C108.458 28.052 107.958 28.12 107.406 28.12ZM107.406 27.244C107.79 27.244 108.13 27.2 108.426 27.112C108.722 27.024 108.954 26.872 109.122 26.656C109.29 26.432 109.374 26.132 109.374 25.756C109.374 25.452 109.314 25.212 109.194 25.036C109.074 24.852 108.91 24.708 108.702 24.604C108.502 24.492 108.27 24.4 108.006 24.328H106.746C106.346 24.44 106.034 24.608 105.81 24.832C105.586 25.056 105.474 25.384 105.474 25.816C105.474 26.168 105.558 26.452 105.726 26.668C105.894 26.876 106.122 27.024 106.41 27.112C106.706 27.2 107.038 27.244 107.406 27.244ZM106.746 23.488H108.006C108.406 23.352 108.714 23.184 108.93 22.984C109.146 22.776 109.254 22.492 109.254 22.132C109.254 21.66 109.09 21.324 108.762 21.124C108.442 20.924 107.994 20.824 107.418 20.824C106.858 20.824 106.414 20.924 106.086 21.124C105.766 21.316 105.606 21.648 105.606 22.12C105.606 22.48 105.702 22.764 105.894 22.972C106.086 23.18 106.37 23.352 106.746 23.488ZM113.749 28.12C113.509 28.12 113.253 28.108 112.981 28.084C112.709 28.06 112.449 28.032 112.201 28C111.953 27.968 111.741 27.936 111.565 27.904L111.661 27.124C111.821 27.14 112.017 27.16 112.249 27.184C112.481 27.208 112.729 27.228 112.993 27.244C113.257 27.26 113.509 27.268 113.749 27.268C114.461 27.268 114.993 27.048 115.345 26.608C115.705 26.16 115.889 25.476 115.897 24.556C115.697 24.628 115.477 24.7 115.237 24.772C114.997 24.844 114.757 24.904 114.517 24.952C114.285 24.992 114.069 25.012 113.869 25.012C113.037 25.012 112.397 24.816 111.949 24.424C111.501 24.032 111.277 23.42 111.277 22.588C111.277 22.044 111.389 21.576 111.613 21.184C111.837 20.792 112.153 20.492 112.561 20.284C112.977 20.068 113.465 19.96 114.025 19.96C114.697 19.96 115.241 20.128 115.657 20.464C116.081 20.792 116.393 21.264 116.593 21.88C116.793 22.496 116.893 23.224 116.893 24.064C116.893 24.832 116.821 25.476 116.677 25.996C116.533 26.516 116.325 26.932 116.053 27.244C115.789 27.556 115.461 27.78 115.069 27.916C114.685 28.052 114.245 28.12 113.749 28.12ZM113.953 24.16C114.153 24.16 114.373 24.136 114.613 24.088C114.853 24.04 115.089 23.984 115.321 23.92C115.553 23.848 115.749 23.784 115.909 23.728C115.901 23.16 115.833 22.66 115.705 22.228C115.585 21.788 115.389 21.444 115.117 21.196C114.845 20.94 114.481 20.812 114.025 20.812C113.481 20.812 113.049 20.972 112.729 21.292C112.417 21.612 112.261 22.044 112.261 22.588C112.261 23.132 112.405 23.532 112.693 23.788C112.981 24.036 113.401 24.16 113.953 24.16Z" fill="#6B7280"/>
<path d="M135.372 28V27.148H136.68V28H135.372ZM125.844 30.976C125.212 30.976 124.64 30.86 124.128 30.628C123.616 30.396 123.212 30.072 122.916 29.656C122.62 29.24 122.472 28.764 122.472 28.228C122.472 28.06 122.484 27.84 122.508 27.568C122.54 27.288 122.576 26.98 122.616 26.644C122.664 26.3 122.716 25.956 122.772 25.612C122.828 25.26 122.88 24.928 122.928 24.616L123.852 24.76C123.764 25.312 123.684 25.824 123.612 26.296C123.548 26.76 123.496 27.16 123.456 27.496C123.424 27.824 123.408 28.068 123.408 28.228C123.408 28.596 123.508 28.92 123.708 29.2C123.916 29.488 124.204 29.712 124.572 29.872C124.94 30.04 125.364 30.124 125.844 30.124C126.324 30.124 126.736 30.048 127.08 29.896C127.424 29.744 127.688 29.532 127.872 29.26C128.056 28.988 128.148 28.668 128.148 28.3V22H129.084V28.3C129.084 28.86 128.936 29.34 128.64 29.74C128.352 30.14 127.964 30.444 127.476 30.652C126.988 30.868 126.444 30.976 125.844 30.976ZM129.084 28V27.148H135.312L134.448 27.928V25.108C134.448 24.604 134.376 24.188 134.232 23.86C134.096 23.524 133.888 23.272 133.608 23.104C133.336 22.936 132.992 22.852 132.576 22.852C132.224 22.852 131.896 22.912 131.592 23.032C131.296 23.144 131.02 23.296 130.764 23.488C130.508 23.672 130.268 23.88 130.044 24.112C129.828 24.336 129.628 24.564 129.444 24.796C129.26 25.028 129.092 25.24 128.94 25.432L128.628 24.58C128.828 24.332 129.028 24.084 129.228 23.836C129.436 23.588 129.652 23.356 129.876 23.14C130.1 22.916 130.344 22.72 130.608 22.552C130.88 22.384 131.176 22.252 131.496 22.156C131.816 22.052 132.176 22 132.576 22C133.144 22 133.608 22.096 133.968 22.288C134.336 22.48 134.62 22.736 134.82 23.056C135.028 23.368 135.172 23.704 135.252 24.064C135.332 24.424 135.372 24.772 135.372 25.108V28H129.084ZM136.68 28V27.148C136.784 27.148 136.848 27.188 136.872 27.268C136.904 27.34 136.92 27.44 136.92 27.568C136.92 27.696 136.904 27.8 136.872 27.88C136.848 27.96 136.784 28 136.68 28ZM138.908 28V27.148H140.204V28H138.908ZM140.204 28V27.148C140.308 27.148 140.372 27.188 140.396 27.268C140.428 27.34 140.444 27.44 140.444 27.568C140.444 27.696 140.428 27.8 140.396 27.88C140.372 27.96 140.308 28 140.204 28ZM136.676 28V27.148H138.404L137.972 27.496V22H138.908V28H136.676ZM136.676 28C136.572 28 136.508 27.96 136.484 27.88C136.452 27.8 136.436 27.696 136.436 27.568C136.436 27.44 136.452 27.34 136.484 27.268C136.508 27.188 136.572 27.148 136.676 27.148V28ZM137.156 30.16V29.08H138.092V30.16H137.156ZM138.8 30.16V29.08H139.736V30.16H138.8ZM140.203 28V27.148H145.495L145.207 27.4V24.424C145.207 23.904 145.043 23.516 144.715 23.26C144.395 22.996 143.903 22.864 143.239 22.864C143.031 22.864 142.731 22.884 142.339 22.924C141.947 22.956 141.535 23.004 141.103 23.068L140.995 22.3C141.323 22.22 141.683 22.152 142.075 22.096C142.467 22.032 142.847 22 143.215 22C143.823 22 144.343 22.096 144.775 22.288C145.215 22.472 145.551 22.744 145.783 23.104C146.023 23.464 146.143 23.904 146.143 24.424V28H140.203ZM140.203 28C140.099 28 140.035 27.96 140.011 27.88C139.979 27.8 139.963 27.696 139.963 27.568C139.963 27.44 139.979 27.34 140.011 27.268C140.035 27.188 140.099 27.148 140.203 27.148V28ZM142.747 21.172V20.092H143.683V21.172H142.747ZM151.755 28V22H152.691V27.496L152.259 27.148H153.987V28H151.755ZM149.163 24.04V23.176H151.755V24.04H149.163ZM146.967 30.652C146.863 30.652 146.755 30.644 146.643 30.628C146.523 30.62 146.407 30.612 146.295 30.604L146.403 29.752C146.515 29.76 146.619 29.768 146.715 29.776C146.811 29.792 146.895 29.8 146.967 29.8C147.343 29.8 147.647 29.656 147.879 29.368C148.111 29.088 148.227 28.696 148.227 28.192V22H149.163V28.192C149.163 28.68 149.067 29.108 148.875 29.476C148.691 29.852 148.435 30.14 148.107 30.34C147.779 30.548 147.399 30.652 146.967 30.652ZM153.987 28V27.148C154.091 27.148 154.155 27.188 154.179 27.268C154.211 27.34 154.227 27.44 154.227 27.568C154.227 27.696 154.211 27.8 154.179 27.88C154.155 27.96 154.091 28 153.987 28ZM150.939 20.92V19.84H151.875V20.92H150.939ZM152.583 20.92V19.84H153.519V20.92H152.583ZM155.436 28V19.396H156.372V28H155.436ZM153.984 28V27.148H155.436V28H153.984ZM153.984 28C153.88 28 153.816 27.96 153.792 27.88C153.76 27.8 153.744 27.696 153.744 27.568C153.744 27.44 153.76 27.34 153.792 27.268C153.816 27.188 153.88 27.148 153.984 27.148V28ZM158.441 28V19.396H159.365V28H158.441ZM169.76 28V27.148H171.056V28H169.76ZM163.928 31.984C163.848 31.528 163.776 31.096 163.712 30.688C163.656 30.28 163.628 29.932 163.628 29.644C163.628 29.124 163.716 28.676 163.892 28.3C164.076 27.932 164.336 27.648 164.672 27.448C165.016 27.248 165.424 27.148 165.896 27.148C166.032 27.148 166.232 27.148 166.496 27.148C166.76 27.148 167.064 27.148 167.408 27.148C167.752 27.148 168.108 27.148 168.476 27.148C168.844 27.148 169.192 27.148 169.52 27.148L168.824 27.76V25.06C168.824 24.5 168.76 24.06 168.632 23.74C168.504 23.42 168.284 23.192 167.972 23.056C167.668 22.92 167.252 22.852 166.724 22.852C166.388 22.852 166.052 22.876 165.716 22.924C165.388 22.972 165.132 23.036 164.948 23.116L165.512 22.54C165.464 22.732 165.416 22.976 165.368 23.272C165.32 23.56 165.28 23.872 165.248 24.208C165.224 24.544 165.212 24.88 165.212 25.216C165.212 25.56 165.224 25.896 165.248 26.224C165.28 26.552 165.316 26.836 165.356 27.076C165.396 27.316 165.428 27.484 165.452 27.58L164.564 27.832C164.532 27.728 164.492 27.548 164.444 27.292C164.404 27.036 164.364 26.728 164.324 26.368C164.292 26.008 164.276 25.624 164.276 25.216C164.276 24.824 164.292 24.444 164.324 24.076C164.364 23.7 164.408 23.36 164.456 23.056C164.512 22.752 164.564 22.508 164.612 22.324C164.788 22.252 165.068 22.18 165.452 22.108C165.836 22.036 166.26 22 166.724 22C167.124 22 167.484 22.036 167.804 22.108C168.132 22.172 168.416 22.28 168.656 22.432C168.904 22.584 169.108 22.78 169.268 23.02C169.436 23.252 169.56 23.54 169.64 23.884C169.72 24.22 169.76 24.612 169.76 25.06V28C169.424 28 169.06 28 168.668 28C168.284 28 167.904 28 167.528 28C167.16 28 166.828 28 166.532 28C166.244 28 166.032 28 165.896 28C165.768 28 165.628 28.016 165.476 28.048C165.324 28.088 165.176 28.16 165.032 28.264C164.896 28.376 164.784 28.54 164.696 28.756C164.608 28.98 164.564 29.276 164.564 29.644C164.564 29.948 164.592 30.296 164.648 30.688C164.704 31.08 164.768 31.512 164.84 31.984H163.928ZM171.056 28V27.148C171.16 27.148 171.224 27.188 171.248 27.268C171.28 27.34 171.296 27.44 171.296 27.568C171.296 27.696 171.28 27.8 171.248 27.88C171.224 27.96 171.16 28 171.056 28ZM171.059 28V27.148H177.119L176.495 27.688V22.444L176.987 22.852H174.947C174.483 22.852 174.123 22.908 173.867 23.02C173.619 23.132 173.447 23.344 173.351 23.656C173.255 23.96 173.207 24.408 173.207 25C173.207 25.592 173.255 26.044 173.351 26.356C173.447 26.66 173.619 26.868 173.867 26.98C174.123 27.092 174.483 27.148 174.947 27.148V27.76C174.251 27.76 173.707 27.676 173.315 27.508C172.931 27.332 172.659 27.044 172.499 26.644C172.347 26.236 172.271 25.688 172.271 25C172.271 24.312 172.347 23.748 172.499 23.308C172.659 22.86 172.931 22.532 173.315 22.324C173.707 22.108 174.251 22 174.947 22H177.431V28H171.059ZM171.059 28C170.955 28 170.891 27.96 170.867 27.88C170.835 27.8 170.819 27.696 170.819 27.568C170.819 27.44 170.835 27.34 170.867 27.268C170.891 27.188 170.955 27.148 171.059 27.148V28ZM173.843 20.92V19.84H174.779V20.92H173.843ZM175.487 20.92V19.84H176.423V20.92H175.487ZM178.456 30.652C178.352 30.652 178.244 30.644 178.132 30.628C178.012 30.62 177.896 30.612 177.784 30.604L177.892 29.752C178.004 29.76 178.108 29.768 178.204 29.776C178.3 29.792 178.384 29.8 178.456 29.8C178.832 29.8 179.136 29.656 179.368 29.368C179.6 29.088 179.716 28.696 179.716 28.192V22H180.652V28.192C180.652 28.68 180.556 29.108 180.364 29.476C180.18 29.852 179.924 30.14 179.596 30.34C179.268 30.548 178.888 30.652 178.456 30.652Z" fill="#6B7280"/>
</svg>
