<svg width="25" height="24" viewBox="0 0 25 24" fill="none" xmlns="http://www.w3.org/2000/svg">
<path d="M12.5022 11.7501C12.9841 11.7501 13.3958 11.5785 13.7375 11.2353C14.0792 10.8922 14.25 10.4797 14.25 9.99784C14.25 9.51599 14.0784 9.10423 13.7353 8.76256C13.3921 8.42089 12.9796 8.25006 12.4978 8.25006C12.0159 8.25006 11.6042 8.42164 11.2625 8.76479C10.9208 9.10792 10.75 9.52042 10.75 10.0023C10.75 10.4841 10.9216 10.8959 11.2647 11.2376C11.6079 11.5792 12.0204 11.7501 12.5022 11.7501ZM12.5 20.0251C14.7167 18.0084 16.3542 16.1792 17.4125 14.5376C18.4708 12.8959 19 11.4501 19 10.2001C19 8.23689 18.3726 6.62944 17.1177 5.37769C15.8629 4.12594 14.3236 3.50006 12.5 3.50006C10.6764 3.50006 9.13715 4.12594 7.8823 5.37769C6.62743 6.62944 6 8.23689 6 10.2001C6 11.4501 6.54167 12.8959 7.625 14.5376C8.70833 16.1792 10.3333 18.0084 12.5 20.0251ZM12.5 22.0001C9.81667 19.7167 7.8125 17.5959 6.4875 15.6376C5.1625 13.6792 4.5 11.8667 4.5 10.2001C4.5 7.70006 5.30417 5.70839 6.9125 4.22506C8.52083 2.74173 10.3833 2.00006 12.5 2.00006C14.6167 2.00006 16.4792 2.74173 18.0875 4.22506C19.6958 5.70839 20.5 7.70006 20.5 10.2001C20.5 11.8667 19.8375 13.6792 18.5125 15.6376C17.1875 17.5959 15.1833 19.7167 12.5 22.0001Z" fill="#374151"/>
</svg>
