<svg width="172" height="172" viewBox="0 0 172 172" fill="none" xmlns="http://www.w3.org/2000/svg">
<circle cx="86" cy="86" r="86" fill="#3B73B9" fill-opacity="0.12"/>
<path d="M126.832 61.2917H111.707V71.375H126.832V106.667H116.749C115.412 106.667 114.129 107.198 113.184 108.143C112.238 109.089 111.707 110.371 111.707 111.708V116.75L99.607 107.675C98.7343 107.02 97.6729 106.667 96.582 106.667H76.4154V104.146L67.3404 110.962C68.1518 112.686 69.4349 114.144 71.041 115.168C72.6471 116.193 74.5105 116.741 76.4154 116.75H94.9032L113.724 130.867C114.596 131.521 115.658 131.875 116.749 131.875C118.086 131.875 119.368 131.344 120.314 130.398C121.259 129.453 121.79 128.17 121.79 126.833V116.75H126.832C129.506 116.75 132.071 115.688 133.962 113.797C135.853 111.906 136.915 109.341 136.915 106.667V71.375C136.915 68.7007 135.853 66.136 133.962 64.245C132.071 62.354 129.506 61.2917 126.832 61.2917Z" fill="#3B73B9" fill-opacity="0.4"/>
<path d="M56.2487 111.708C54.9116 111.708 53.6292 111.177 52.6837 110.232C51.7382 109.286 51.207 108.004 51.207 106.667V96.5833H46.1654C43.4911 96.5833 40.9264 95.521 39.0354 93.63C37.1444 91.739 36.082 89.1743 36.082 86.5V51.2083C36.082 48.5341 37.1444 45.9693 39.0354 44.0783C40.9264 42.1873 43.4911 41.125 46.1654 41.125H96.582C99.2563 41.125 101.821 42.1873 103.712 44.0783C105.603 45.9693 106.665 48.5341 106.665 51.2083V86.5C106.665 89.1743 105.603 91.739 103.712 93.63C101.821 95.521 99.2563 96.5833 96.582 96.5833H78.0942L59.2737 110.7C58.401 111.355 57.3396 111.708 56.2487 111.708ZM46.1654 51.2083V86.5H56.2487C57.5858 86.5 58.8682 87.0312 59.8137 87.9767C60.7592 88.9222 61.2904 90.2045 61.2904 91.5417V96.5833L73.3904 87.5083C74.2631 86.8538 75.3245 86.5 76.4154 86.5H96.582V51.2083H46.1654Z" fill="#3B73B9" fill-opacity="0.4"/>
</svg>
