<svg width="14" height="15" viewBox="0 0 14 15" fill="none" xmlns="http://www.w3.org/2000/svg">
<path d="M8.31732 13.8834C8.11732 14.0834 7.87565 14.1834 7.59232 14.1834C7.30898 14.1834 7.06732 14.0834 6.86732 13.8834L0.617318 7.6334C0.506207 7.52229 0.431207 7.40563 0.392318 7.2834C0.353429 7.16118 0.333984 7.0334 0.333984 6.90007V1.8334C0.333984 1.54452 0.428429 1.30563 0.617318 1.11674C0.806207 0.927849 1.0451 0.833405 1.33398 0.833405H6.40065C6.53398 0.833405 6.66732 0.852849 6.80065 0.891738C6.93398 0.930627 7.05621 1.00563 7.16732 1.11674L13.384 7.33341C13.5951 7.54452 13.7007 7.79174 13.7007 8.07507C13.7007 8.35841 13.5951 8.60563 13.384 8.81674L8.31732 13.8834ZM7.63398 13.2001L12.7007 8.1334L6.40065 1.8334H1.33398V6.90007L7.63398 13.2001ZM3.08398 4.4334C3.31732 4.4334 3.5201 4.34729 3.69232 4.17507C3.86454 4.00285 3.95065 3.80007 3.95065 3.56674C3.95065 3.3334 3.86454 3.13063 3.69232 2.9584C3.5201 2.78618 3.31732 2.70007 3.08398 2.70007C2.85065 2.70007 2.64787 2.78618 2.47565 2.9584C2.30343 3.13063 2.21732 3.3334 2.21732 3.56674C2.21732 3.80007 2.30343 4.00285 2.47565 4.17507C2.64787 4.34729 2.85065 4.4334 3.08398 4.4334Z" fill="#6B7280"/>
</svg>
