<svg width="172" height="172" viewBox="0 0 172 172" fill="none" xmlns="http://www.w3.org/2000/svg">
<circle cx="86" cy="86" r="86" fill="#3B73B9" fill-opacity="0.12"/>
<path d="M114.306 40.7113H102.69V39.0266C102.689 37.5775 102.112 36.1883 101.088 35.1635C100.063 34.1388 98.6742 33.5623 97.2252 33.5605H75.7728C74.3237 33.5623 72.9346 34.1388 71.91 35.1635C70.8855 36.1883 70.3092 37.5775 70.3077 39.0266V40.7113H58.6917C56.084 40.7141 53.5839 41.7512 51.7399 43.5951C49.8958 45.4389 48.8585 47.9389 48.8555 50.5466V129.6C48.8585 132.208 49.8958 134.708 51.7399 136.552C53.5839 138.396 56.084 139.433 58.6917 139.436H114.306C116.914 139.433 119.414 138.396 121.258 136.552C123.102 134.708 124.14 132.208 124.143 129.6V50.5466C124.14 47.9389 123.102 45.4389 121.258 43.595C119.414 41.7512 116.914 40.7141 114.306 40.7113ZM74.0889 39.0266C74.0893 38.58 74.2668 38.1519 74.5825 37.836C74.8981 37.5202 75.3262 37.3424 75.7727 37.3418H97.2251C97.6717 37.3424 98.0997 37.5202 98.4154 37.836C98.7311 38.1519 98.9086 38.58 98.909 39.0266V46.1773C98.9085 46.6238 98.731 47.0518 98.4153 47.3675C98.0996 47.6832 97.6716 47.8608 97.2251 47.8612H75.7728C75.3263 47.8607 74.8983 47.6832 74.5826 47.3675C74.2669 47.0518 74.0894 46.6238 74.089 46.1773L74.0889 39.0266ZM120.361 129.6C120.359 131.205 119.721 132.744 118.586 133.879C117.451 135.014 115.911 135.653 114.306 135.654H58.6917C57.0864 135.653 55.5474 135.014 54.4123 133.879C53.2771 132.744 52.6386 131.205 52.6367 129.6V50.5466C52.6386 48.9414 53.2771 47.4025 54.4123 46.2675C55.5474 45.1326 57.0864 44.4942 58.6917 44.4926H70.3077V46.1773C70.3094 47.6262 70.8857 49.0153 71.9103 50.0398C72.9348 51.0643 74.3239 51.6407 75.7728 51.6424H97.2251C98.674 51.6407 100.063 51.0643 101.088 50.0398C102.112 49.0153 102.688 47.6262 102.69 46.1773V44.4926H114.306C115.911 44.4942 117.45 45.1326 118.586 46.2675C119.721 47.4025 120.359 48.9414 120.361 50.5466L120.361 129.6Z" fill="#3B73B9" fill-opacity="0.4"/>
<path d="M70.6563 72.9704L71.3744 72.4026V87.6302C71.3757 88.8968 71.8795 90.1112 72.7751 91.0069C73.6708 91.9025 74.8852 92.4063 76.1518 92.4075H96.8471C98.1137 92.4062 99.3281 91.9025 100.224 91.0069C101.119 90.1112 101.623 88.8968 101.624 87.6302V72.4026C102.585 73.3561 103.992 73.8825 104.999 72.6593C105.309 72.2657 105.451 71.7649 105.393 71.267C105.334 70.769 105.081 70.3145 104.687 70.0034L89.3409 57.8694C88.533 57.2274 87.5314 56.8779 86.4994 56.8779C85.4675 56.8779 84.4659 57.2274 83.658 57.8694L68.3114 70.0034C67.9288 70.318 67.6848 70.77 67.6319 71.2625C67.579 71.755 67.7215 72.2485 68.0286 72.6371C68.3357 73.0257 68.783 73.2783 69.2744 73.3406C69.7657 73.4029 70.2619 73.27 70.6563 72.9704ZM88.3901 88.6263H84.6088V82.7393C84.662 81.3082 86.0989 81.4571 87.13 81.4792C87.4641 81.4795 87.7845 81.6123 88.0207 81.8486C88.257 82.0848 88.3898 82.4052 88.3901 82.7393V88.6263ZM75.1557 69.4129L86.0028 60.8365C86.1437 60.7235 86.3189 60.662 86.4994 60.662C86.68 60.662 86.8552 60.7235 86.9961 60.8365L97.8432 69.4129V87.6302C97.8429 87.8943 97.7379 88.1475 97.5511 88.3342C97.3644 88.521 97.1112 88.626 96.8471 88.6263H92.1713V82.7393C92.1506 81.9712 91.9627 81.2169 91.6205 80.5289C91.2784 79.8409 90.7902 79.2358 90.1902 78.7559C89.5902 78.2759 88.8927 77.9326 88.1464 77.7499C87.4 77.5672 86.6228 77.5495 85.8689 77.6981C84.5324 77.6996 83.251 78.2312 82.3059 79.1763C81.3608 80.1214 80.8291 81.4027 80.8276 82.7393V88.6263H76.1518C75.8877 88.626 75.6345 88.521 75.4478 88.3342C75.261 88.1475 75.156 87.8943 75.1557 87.6302L75.1557 69.4129Z" fill="#3B73B9" fill-opacity="0.3"/>
<path d="M110.756 100.165L62.2437 100.166C61.7489 100.176 61.2776 100.379 60.9311 100.733C60.5847 101.086 60.3906 101.562 60.3906 102.057C60.3906 102.552 60.5847 103.027 60.9312 103.38C61.2777 103.734 61.749 103.937 62.2439 103.947L110.756 103.946C111.251 103.937 111.722 103.733 112.069 103.38C112.415 103.026 112.609 102.551 112.609 102.056C112.609 101.561 112.415 101.085 112.069 100.732C111.722 100.378 111.251 100.175 110.756 100.165Z" fill="#3B73B9" fill-opacity="0.3"/>
<path d="M62.318 111.228H86.574C87.069 111.218 87.5405 111.014 87.8872 110.661C88.2339 110.307 88.4281 109.832 88.428 109.337C88.428 108.842 88.2338 108.366 87.8871 108.013C87.5404 107.659 87.0689 107.456 86.5739 107.446H62.318C61.8232 107.456 61.3519 107.66 61.0054 108.013C60.6589 108.367 60.4648 108.842 60.4648 109.337C60.4648 109.832 60.6589 110.307 61.0054 110.661C61.3519 111.014 61.8232 111.218 62.318 111.228Z" fill="#3B73B9" fill-opacity="0.3"/>
<path d="M110.756 119.071L62.2437 119.072C61.7489 119.082 61.2776 119.286 60.9311 119.639C60.5847 119.993 60.3906 120.468 60.3906 120.963C60.3906 121.458 60.5847 121.933 60.9312 122.287C61.2777 122.64 61.749 122.844 62.2439 122.853L110.756 122.853C111.251 122.843 111.722 122.639 112.068 122.286C112.415 121.932 112.609 121.457 112.609 120.962C112.609 120.467 112.415 119.992 112.068 119.638C111.722 119.285 111.251 119.081 110.756 119.071Z" fill="#3B73B9" fill-opacity="0.3"/>
<path d="M86.5749 126.635H62.3189C61.8239 126.644 61.3524 126.848 61.0057 127.201C60.659 127.555 60.4648 128.03 60.4648 128.525C60.4649 129.021 60.6591 129.496 61.0058 129.849C61.3525 130.203 61.824 130.406 62.319 130.416H86.5749C87.0697 130.406 87.541 130.203 87.8875 129.849C88.234 129.496 88.428 129.02 88.428 128.525C88.428 128.03 88.234 127.555 87.8875 127.202C87.541 126.848 87.0697 126.645 86.5749 126.635Z" fill="#3B73B9" fill-opacity="0.3"/>
</svg>
