<svg width="84" height="84" viewBox="0 0 84 84" fill="none" xmlns="http://www.w3.org/2000/svg">
<g clip-path="url(#clip0_1119_8083)">
<path d="M42.0099 84.0204C65.2114 84.0204 84.0199 65.2119 84.0199 42.0104C84.0199 18.809 65.2114 0.000488281 42.0099 0.000488281C18.8085 0.000488281 0 18.809 0 42.0104C0 65.2119 18.8085 84.0204 42.0099 84.0204Z" fill="#3B73B9"/>
<path fill-rule="evenodd" clip-rule="evenodd" d="M38.8096 57.3646C39.3236 56.1776 39.6141 54.741 39.7772 53.4299H48.7514C48.9148 54.7412 49.2051 56.178 49.7185 57.3645L38.8096 57.3646Z" fill="white"/>
<path fill-rule="evenodd" clip-rule="evenodd" d="M52.6627 62.8554H35.8658C35.543 62.8554 35.281 62.593 35.281 62.2705V57.5973C35.281 57.2746 35.543 57.0127 35.8658 57.0127H52.6631C52.9859 57.0127 53.2479 57.2748 53.2479 57.5973V62.2705C53.2479 62.5935 52.9856 62.8554 52.6627 62.8554Z" fill="white"/>
<path fill-rule="evenodd" clip-rule="evenodd" d="M49.7152 52.2607H38.8132C38.4904 52.2607 38.2284 51.9984 38.2284 51.6759V50.6714H50.3001V51.6759C50.3001 51.9989 50.0382 52.2607 49.7152 52.2607Z" fill="white"/>
<path fill-rule="evenodd" clip-rule="evenodd" d="M62.2448 39.6999H59.7122V36.3137C59.7122 35.991 59.4501 35.729 59.1274 35.729H54.4971C54.1746 35.729 53.9124 35.991 53.9124 36.3137V39.6999H51.3801C51.0573 39.6999 50.7954 39.4379 50.7954 39.1152V33.4679C50.981 33.5332 51.1779 33.5676 51.3784 33.5676C51.8434 33.5676 52.2887 33.3833 52.6178 33.0547L56.8135 28.865L61.0048 33.0542C61.3338 33.3831 61.7797 33.5676 62.2448 33.5676C62.446 33.5676 62.6439 33.533 62.83 33.4672V39.1148C62.83 39.438 62.5676 39.6999 62.2448 39.6999ZM58.5425 39.6999H55.0823V36.899H58.5425V39.6999ZM56.8127 34.4548C55.7415 34.4548 54.8704 33.5833 54.8704 32.5125C54.8704 31.4416 55.7419 30.5702 56.8127 30.5702C57.8836 30.5702 58.7551 31.4416 58.7551 32.5125C58.7551 33.5833 57.8841 34.4548 56.8127 34.4548ZM56.8127 31.7397C56.3868 31.7397 56.0404 32.0865 56.0404 32.5125C56.0404 32.9384 56.3873 33.2853 56.8127 33.2853C57.2382 33.2853 57.5849 32.9384 57.5849 32.5125C57.5849 32.0865 57.2385 31.7397 56.8127 31.7397Z" fill="white"/>
<path fill-rule="evenodd" clip-rule="evenodd" d="M51.3784 32.3979C51.223 32.3979 51.0741 32.3363 50.9647 32.2266L48.8989 30.1574C48.6703 29.9287 48.6707 29.5583 48.8993 29.3302L56.4021 21.8388C56.6309 21.6105 57.0012 21.6109 57.2285 21.8388L64.7247 29.3313C64.9535 29.5596 64.9535 29.93 64.7252 30.1586L62.6587 32.2266C62.5491 32.3362 62.4004 32.3979 62.2448 32.3979C62.0897 32.3979 61.9411 32.3366 61.8316 32.227L56.8139 27.2118L51.7914 32.227C51.6817 32.3368 51.5336 32.3979 51.3784 32.3979Z" fill="white"/>
<path fill-rule="evenodd" clip-rule="evenodd" d="M45.9299 22.6984H33.2072C32.8845 22.6984 32.6224 22.4364 32.6224 22.1136C32.6224 21.7908 32.8845 21.5288 33.2072 21.5288H45.9299C46.2526 21.5288 46.5147 21.7908 46.5147 22.1136C46.5147 22.4364 46.2526 22.6984 45.9299 22.6984ZM30.8373 22.6984H27.0278C26.7049 22.6984 26.443 22.4364 26.443 22.1136C26.443 21.7908 26.7049 21.5288 27.0278 21.5288H30.8373C31.16 21.5288 31.4221 21.7908 31.4221 22.1136C31.4221 22.4364 31.1605 22.6984 30.8373 22.6984Z" fill="white"/>
<path fill-rule="evenodd" clip-rule="evenodd" d="M45.9303 26.2994H42.1205C41.7976 26.2994 41.5357 26.0374 41.5357 25.7147C41.5357 25.3919 41.798 25.1299 42.1205 25.1299H45.9303C46.2531 25.1299 46.515 25.3919 46.515 25.7147C46.515 26.0374 46.2532 26.2994 45.9303 26.2994ZM39.7509 26.2994H27.0279C26.705 26.2994 26.4431 26.0374 26.4431 25.7147C26.4431 25.3919 26.705 25.1299 27.0279 25.1299H39.7509C40.0738 25.1299 40.3357 25.3919 40.3357 25.7147C40.3357 26.0374 40.0738 26.2994 39.7509 26.2994Z" fill="white"/>
<path fill-rule="evenodd" clip-rule="evenodd" d="M45.9299 29.901H33.2072C32.8845 29.901 32.6224 29.6391 32.6224 29.3162C32.6224 28.9935 32.8845 28.7314 33.2072 28.7314H45.9299C46.2526 28.7314 46.5147 28.9935 46.5147 29.3162C46.5147 29.6391 46.2526 29.901 45.9299 29.901ZM30.8373 29.901H27.0278C26.7049 29.901 26.443 29.6391 26.443 29.3162C26.443 28.9935 26.7049 28.7314 27.0278 28.7314H30.8373C31.16 28.7314 31.4221 28.9935 31.4221 29.3162C31.4221 29.6391 31.1605 29.901 30.8373 29.901Z" fill="white"/>
<path fill-rule="evenodd" clip-rule="evenodd" d="M45.9303 33.5023H42.1205C41.7976 33.5023 41.5357 33.2403 41.5357 32.9175C41.5357 32.5948 41.798 32.3328 42.1205 32.3328H45.9303C46.2531 32.3328 46.515 32.5948 46.515 32.9175C46.515 33.2403 46.2532 33.5023 45.9303 33.5023ZM39.7509 33.5023H27.0279C26.705 33.5023 26.4431 33.2403 26.4431 32.9175C26.4431 32.5948 26.705 32.3328 27.0279 32.3328H39.7509C40.0738 32.3328 40.3357 32.5948 40.3357 32.9175C40.3357 33.2403 40.0738 33.5023 39.7509 33.5023Z" fill="white"/>
<path fill-rule="evenodd" clip-rule="evenodd" d="M27.9607 36.1791C27.8616 36.1791 27.7609 36.1535 27.6688 36.1006L26.0347 35.1569C25.7554 34.9957 25.6594 34.638 25.8207 34.3582C25.982 34.0783 26.3389 33.9826 26.6195 34.1443L28.2535 35.0879C28.5329 35.2491 28.6288 35.6069 28.4675 35.8867C28.3594 36.0742 28.1629 36.1791 27.9607 36.1791Z" fill="white"/>
<path fill-rule="evenodd" clip-rule="evenodd" d="M27.2736 37.628H25.3865C25.0637 37.628 24.8018 37.3661 24.8018 37.0433C24.8018 36.7205 25.0637 36.4585 25.3865 36.4585H27.2736C27.5963 36.4585 27.8583 36.7205 27.8583 37.0433C27.8583 37.3661 27.5963 37.628 27.2736 37.628Z" fill="white"/>
<path fill-rule="evenodd" clip-rule="evenodd" d="M44.9976 36.1792C44.7958 36.1792 44.5992 36.0744 44.4908 35.8869C44.3297 35.6071 44.4249 35.2493 44.7047 35.0881L46.3389 34.1445C46.6174 33.9833 46.9757 34.0778 47.1377 34.3584C47.2987 34.6382 47.2035 34.9959 46.9237 35.1571L45.2895 36.1008C45.1974 36.154 45.097 36.1792 44.9976 36.1792Z" fill="white"/>
<path fill-rule="evenodd" clip-rule="evenodd" d="M47.5718 37.628H45.6846C45.3619 37.628 45.0999 37.3661 45.0999 37.0433C45.0999 36.7205 45.3622 36.4585 45.6846 36.4585H47.5718C47.8945 36.4585 48.1565 36.7205 48.1565 37.0433C48.1565 37.3661 47.8945 37.628 47.5718 37.628Z" fill="white"/>
<path fill-rule="evenodd" clip-rule="evenodd" d="M43.0008 40.5412H33.7736V38.7163C33.7736 37.3413 33.005 36.143 31.8749 35.5283H43.0001C43.6722 35.5283 44.2195 36.0754 44.2195 36.7475V39.3221C44.22 39.9942 43.6729 40.5412 43.0008 40.5412Z" fill="white"/>
<path fill-rule="evenodd" clip-rule="evenodd" d="M64.4034 49.5017H39.1185C39.1023 49.0322 39.0093 48.5633 38.8155 48.104C38.4117 47.1483 37.6619 46.432 36.6133 46.2792C35.6035 46.1319 34.6336 46.5788 33.7734 47.2286V43.1208H66.1293V19.973C66.1293 19.0216 65.3553 18.2471 64.4034 18.2471H24.1251C23.1737 18.2471 22.3993 19.0212 22.3993 19.973V41.5532C21.9901 41.6011 21.5951 41.7181 21.2297 41.8969V19.973C21.2297 18.3768 22.5284 17.0781 24.1248 17.0781H64.403C65.9996 17.0781 67.2989 18.3768 67.2989 19.973V46.6063C67.299 48.2028 65.9997 49.5017 64.4034 49.5017Z" fill="white"/>
<path fill-rule="evenodd" clip-rule="evenodd" d="M18.1511 66.7219C17.9558 66.6159 17.8233 66.409 17.8233 66.1716V62.9131C16.6833 61.963 16.7007 60.4521 16.702 60.3835V50.5009L16.7015 45.1553C16.7015 43.8006 17.8036 42.6983 19.1584 42.6983C19.8856 42.6983 20.5399 43.0159 20.9903 43.5193C21.4404 43.0159 22.0946 42.6983 22.8215 42.6983C23.5485 42.6983 24.2025 43.0157 24.6529 43.5192C25.1032 43.0157 25.7571 42.6983 26.4841 42.6983C26.9219 42.6983 27.3335 42.8136 27.6899 43.0152V38.7162C27.6899 37.3615 28.7922 36.2593 30.1468 36.2593C31.5016 36.2593 32.6039 37.3615 32.6039 38.7162V50.0119C33.878 48.5406 35.2473 47.2599 36.4447 47.4367C36.8429 47.494 37.3903 47.7353 37.7381 48.5592C38.4037 50.1347 37.2956 52.0684 37.1673 52.2836L34.1442 58.1567C34.0999 58.2503 32.8661 60.7799 29.5465 62.9399V66.4357C29.5463 66.6326 29.4555 66.8081 29.3138 66.923H28.527H19.0885H18.6106C18.429 66.923 18.2653 66.8457 18.1511 66.7219Z" fill="white"/>
</g>
<defs>
<clipPath id="clip0_1119_8083">
<rect width="84" height="84" fill="white" transform="translate(0 0.000488281)"/>
</clipPath>
</defs>
</svg>
