<svg width="84" height="84" viewBox="0 0 84 84" fill="none" xmlns="http://www.w3.org/2000/svg">
<g clip-path="url(#clip0_1119_24134)">
<path d="M42.0099 84.0204C65.2114 84.0204 84.0199 65.2119 84.0199 42.0104C84.0199 18.809 65.2114 0.000488281 42.0099 0.000488281C18.8085 0.000488281 0 18.809 0 42.0104C0 65.2119 18.8085 84.0204 42.0099 84.0204Z" fill="#3B73B9"/>
<path fill-rule="evenodd" clip-rule="evenodd" d="M47.4303 64.5133H21.9879C20.5776 64.5133 19.4304 63.3657 19.4304 61.9553V22.3106C19.4304 20.9003 20.578 19.7532 21.9879 19.7532H47.4303C48.8406 19.7532 49.9882 20.9008 49.9882 22.3106V26.8247H48.8023V22.3106C48.8023 21.5543 48.1872 20.9386 47.4308 20.9386H21.9879C21.2315 20.9386 20.6158 21.5548 20.6158 22.3111V55.2458H48.8018V53.324H49.9882V61.9552C49.9882 63.3656 48.8406 64.5133 47.4303 64.5133ZM39.1798 61.7795H30.2386C29.1911 61.7795 28.3388 60.9271 28.3388 59.8792C28.3388 58.8312 29.1911 57.9789 30.2386 57.9789L39.1803 57.979C40.2278 57.979 41.0806 58.8314 41.0806 59.8793C41.0806 60.9274 40.2279 61.7795 39.1798 61.7795ZM30.2386 59.1654C29.8446 59.1654 29.5245 59.4853 29.5245 59.8793C29.5245 60.2734 29.8448 60.5933 30.2386 60.5933H39.1803C39.5743 60.5933 39.8948 60.2734 39.8948 59.8793C39.8948 59.4853 39.5746 59.1654 39.1803 59.1654H30.2386Z" fill="white"/>
<path fill-rule="evenodd" clip-rule="evenodd" d="M41.0438 24.9028H28.3753C28.048 24.9028 27.7823 24.6371 27.7823 24.3098V20.3459C27.7823 20.0186 28.048 19.7529 28.3753 19.7529H41.0438C41.3711 19.7529 41.6368 20.0186 41.6368 20.3459V24.3098C41.6368 24.6376 41.3716 24.9028 41.0438 24.9028Z" fill="white"/>
<path fill-rule="evenodd" clip-rule="evenodd" d="M20.0235 33.6079H17.2944C16.9671 33.6079 16.7014 33.3422 16.7014 33.0149V24.8992C16.7014 24.5719 16.9671 24.3063 17.2944 24.3063L20.0235 24.3062C20.3508 24.3062 20.6165 24.5718 20.6165 24.8991V33.0147C20.6165 33.3422 20.3513 33.6079 20.0235 33.6079Z" fill="white"/>
<path fill-rule="evenodd" clip-rule="evenodd" d="M20.0235 41.1474H17.2944C16.9671 41.1474 16.7014 40.8819 16.7014 40.5546V35.5065C16.7014 35.1792 16.9671 34.9136 17.2944 34.9136H20.0235C20.3508 34.9136 20.6165 35.1792 20.6165 35.5065V40.5542C20.6165 40.882 20.3513 41.1474 20.0235 41.1474Z" fill="white"/>
<path fill-rule="evenodd" clip-rule="evenodd" d="M60.7777 52.1381H26.5932C25.5974 52.1381 24.7876 51.3277 24.7876 50.332V38.5792H62.5832V50.332C62.5828 51.3277 61.7729 52.1381 60.7777 52.1381ZM52.7702 43.3103V41.9977H51.0882V43.3103H52.7702ZM53.9561 41.9977V43.3103H55.7427V41.9977H53.9561ZM56.9285 41.9977V43.3103H58.6107V41.9977H56.9285ZM58.6107 44.4962H56.3356H53.3632H51.0882V45.5771H58.6107L58.6107 44.4962ZM52.7702 48.0748V46.763H51.0882V48.0748H52.7702ZM58.6107 46.763H56.9285V48.0748H58.6107V46.763ZM55.7427 48.0748V46.763H53.9561V48.0748H55.7427ZM44.2698 41.8013H34.2185C33.8913 41.8013 33.6256 41.5356 33.6256 41.2083C33.6256 40.8811 33.8913 40.6154 34.2185 40.6154H44.2698C44.5971 40.6154 44.8628 40.8811 44.8628 41.2083C44.8628 41.5356 44.5973 41.8013 44.2698 41.8013ZM31.7612 41.8013H28.1669C27.8396 41.8013 27.574 41.5356 27.574 41.2083C27.574 40.8811 27.8396 40.6154 28.1669 40.6154H31.7612C32.0885 40.6154 32.3542 40.8811 32.3542 41.2083C32.3542 41.5356 32.089 41.8013 31.7612 41.8013ZM44.2698 44.3534H40.6758C40.3485 44.3534 40.0828 44.0874 40.0828 43.7604C40.0828 43.4335 40.3485 43.1675 40.6758 43.1675H44.2698C44.5971 43.1675 44.8628 43.4335 44.8628 43.7604C44.8628 44.0874 44.5973 44.3534 44.2698 44.3534ZM38.2187 44.3534H28.1669C27.8396 44.3534 27.574 44.0874 27.574 43.7604C27.574 43.4335 27.8396 43.1675 28.1669 43.1675H38.2187C38.546 43.1675 38.8116 43.4335 38.8116 43.7604C38.8116 44.0874 38.5462 44.3534 38.2187 44.3534ZM44.2698 49.4571H28.5844C28.2571 49.4571 27.9915 49.1911 27.9915 48.8642V46.3126C27.9915 45.9853 28.2571 45.7196 28.5844 45.7196H44.2698C44.5971 45.7196 44.8628 45.9856 44.8628 46.3126V48.8642C44.8628 49.1915 44.5973 49.4571 44.2698 49.4571ZM29.1774 48.2708H43.6766V46.9054L29.1774 46.9055V48.2708ZM24.7877 37.3938V33.8881H54.0418C55.4422 35.0356 57.2317 35.725 59.1796 35.725C59.7096 35.725 60.2276 35.6736 60.7295 35.5761C61.3366 35.6727 61.957 35.7231 62.5832 35.7252V37.3938H24.7877ZM24.7877 32.702V29.8158C24.7877 28.8202 25.5975 28.0103 26.5933 28.0103H51.0713C51.1585 29.782 51.8163 31.4058 52.864 32.702H24.7877Z" fill="white"/>
<path fill-rule="evenodd" clip-rule="evenodd" d="M59.1795 20.6736C55.3567 20.6736 52.2467 23.7836 52.2467 27.6064C52.2467 31.4292 55.3567 34.5392 59.1795 34.5392C63.0023 34.5392 66.1122 31.4292 66.1122 27.6064C66.1122 23.7836 63.0023 20.6736 59.1795 20.6736ZM58.5865 23.6046V23.1955C58.5865 22.8682 58.8525 22.6026 59.1795 22.6026C59.5064 22.6026 59.7724 22.8682 59.7724 23.1955V23.6048C60.774 23.868 61.5149 24.7809 61.5149 25.8638C61.5149 26.1911 61.2489 26.4568 60.922 26.4568C60.5951 26.4568 60.3291 26.1911 60.3291 25.8638C60.3291 25.2297 59.8135 24.7142 59.1795 24.7142C58.5454 24.7142 58.0299 25.2301 58.0299 25.8638C58.0299 26.6902 58.4014 26.8118 59.3166 27.03C60.1925 27.2383 61.5154 27.5533 61.5154 29.3493C61.5154 30.4325 60.7742 31.3455 59.7724 31.6085V32.0175C59.7724 32.3452 59.5069 32.6104 59.1795 32.6104C58.8522 32.6104 58.5865 32.3447 58.5865 32.0175V31.6085C57.5848 31.3455 56.8435 30.4325 56.8435 29.3493C56.8435 29.022 57.1095 28.7565 57.4365 28.7565C57.7634 28.7565 58.0294 29.022 58.0294 29.3493C58.0294 29.9808 58.5404 30.4944 59.1706 30.4989C59.8005 30.4941 60.3286 29.9802 60.3286 29.3493C60.3286 28.5231 59.9572 28.4014 59.042 28.1833C58.1661 27.9749 56.8431 27.6599 56.8431 25.8638C56.8431 24.7805 57.5846 23.8674 58.5865 23.6046Z" fill="white"/>
</g>
<defs>
<clipPath id="clip0_1119_24134">
<rect width="84" height="84" fill="white" transform="translate(0 0.000488281)"/>
</clipPath>
</defs>
</svg>
