<svg width="16" height="15" viewBox="0 0 16 15" fill="none" fill="#3B73B9" xmlns="http://www.w3.org/2000/svg">
<path d="M4.66667 11.6667C4.90278 11.6667 5.10069 11.5868 5.26042 11.4271C5.42014 11.2674 5.5 11.0694 5.5 10.8333C5.5 10.5972 5.42014 10.3993 5.26042 10.2396C5.10069 10.0799 4.90278 10 4.66667 10C4.43056 10 4.23264 10.0799 4.07292 10.2396C3.91319 10.3993 3.83333 10.5972 3.83333 10.8333C3.83333 11.0694 3.91319 11.2674 4.07292 11.4271C4.23264 11.5868 4.43056 11.6667 4.66667 11.6667ZM4.66667 8.33333C4.90278 8.33333 5.10069 8.25347 5.26042 8.09375C5.42014 7.93403 5.5 7.73611 5.5 7.5C5.5 7.26389 5.42014 7.06597 5.26042 6.90625C5.10069 6.74653 4.90278 6.66667 4.66667 6.66667C4.43056 6.66667 4.23264 6.74653 4.07292 6.90625C3.91319 7.06597 3.83333 7.26389 3.83333 7.5C3.83333 7.73611 3.91319 7.93403 4.07292 8.09375C4.23264 8.25347 4.43056 8.33333 4.66667 8.33333ZM4.66667 5C4.90278 5 5.10069 4.92014 5.26042 4.76042C5.42014 4.60069 5.5 4.40278 5.5 4.16667C5.5 3.93056 5.42014 3.73264 5.26042 3.57292C5.10069 3.41319 4.90278 3.33333 4.66667 3.33333C4.43056 3.33333 4.23264 3.41319 4.07292 3.57292C3.91319 3.73264 3.83333 3.93056 3.83333 4.16667C3.83333 4.40278 3.91319 4.60069 4.07292 4.76042C4.23264 4.92014 4.43056 5 4.66667 5ZM7.16667 11.6667H12.1667V10H7.16667V11.6667ZM7.16667 8.33333H12.1667V6.66667H7.16667V8.33333ZM7.16667 5H12.1667V3.33333H7.16667V5ZM2.16667 15C1.70833 15 1.31597 14.8368 0.989583 14.5104C0.663194 14.184 0.5 13.7917 0.5 13.3333V1.66667C0.5 1.20833 0.663194 0.815972 0.989583 0.489583C1.31597 0.163194 1.70833 0 2.16667 0H13.8333C14.2917 0 14.684 0.163194 15.0104 0.489583C15.3368 0.815972 15.5 1.20833 15.5 1.66667V13.3333C15.5 13.7917 15.3368 14.184 15.0104 14.5104C14.684 14.8368 14.2917 15 13.8333 15H2.16667ZM2.16667 13.3333H13.8333V1.66667H2.16667V13.3333Z" />
</svg>
