<svg width="172" height="172" viewBox="0 0 172 172" fill="none" xmlns="http://www.w3.org/2000/svg">
<circle cx="86" cy="86" r="86" fill="#3B73B9" fill-opacity="0.12"/>
<g clip-path="url(#clip0_986_73182)">
<path d="M135.083 106.479V94.0766C135.082 92.094 134.341 90.1832 133.006 88.7175C131.671 87.2519 129.838 86.3368 127.864 86.1512C125.89 85.9656 123.918 86.5228 122.333 87.7139C120.748 88.905 119.664 90.6444 119.294 92.592L116.552 90.1811C115.01 88.8309 113.029 88.0866 110.98 88.0866C108.93 88.0866 106.95 88.8309 105.407 90.1811L83.6728 109.297C83.1914 109.73 82.8965 110.332 82.8502 110.977C82.8038 111.622 83.0097 112.26 83.4243 112.757C83.839 113.253 84.4302 113.57 85.0734 113.639C85.7166 113.709 86.3616 113.526 86.8728 113.129V130.928C86.8745 132.834 87.6325 134.662 88.9803 136.01C90.3282 137.357 92.1557 138.115 94.0618 138.117H127.901C128.845 138.118 129.78 137.932 130.653 137.57C131.525 137.209 132.318 136.679 132.985 136.011C133.652 135.343 134.182 134.55 134.542 133.677C134.903 132.804 135.088 131.869 135.086 130.925V113.129C135.594 113.554 136.251 113.76 136.911 113.702C137.571 113.643 138.18 113.325 138.606 112.817C139.031 112.308 139.237 111.652 139.178 110.992C139.12 110.332 138.801 109.723 138.293 109.297L135.083 106.479ZM124.159 94.0766C124.185 93.3103 124.507 92.584 125.058 92.051C125.61 91.518 126.346 91.2201 127.113 91.2201C127.88 91.2201 128.617 91.518 129.168 92.051C129.719 92.584 130.042 93.3103 130.067 94.0766V102.068L124.159 96.8686V94.0766ZM115.382 133.101H107.005V127.267C107.006 126.283 107.398 125.339 108.094 124.643C108.789 123.947 109.733 123.556 110.717 123.555H111.67C112.654 123.556 113.598 123.947 114.294 124.643C114.989 125.339 115.381 126.283 115.382 127.267V133.101ZM129.425 132.466C129.224 132.668 128.985 132.828 128.722 132.938C128.458 133.047 128.176 133.102 127.891 133.101H120.397V127.267C120.395 124.953 119.474 122.735 117.838 121.099C116.202 119.462 113.984 118.542 111.67 118.539H110.717C108.403 118.542 106.185 119.462 104.549 121.099C102.913 122.735 101.993 124.953 101.99 127.267V133.101H94.0551C93.479 133.101 92.9267 132.871 92.5193 132.464C92.1119 132.057 91.8826 131.504 91.8817 130.928V108.752L108.721 93.9495C109.346 93.4012 110.148 93.0989 110.98 93.0989C111.811 93.0989 112.614 93.4012 113.238 93.9495L130.067 108.746V130.928C130.069 131.213 130.014 131.496 129.906 131.76C129.797 132.024 129.637 132.264 129.435 132.466H129.425Z" fill="#3B73B9" fill-opacity="0.3"/>
<path d="M110.978 99.1621C109.511 99.1621 108.076 99.5973 106.856 100.413C105.636 101.228 104.685 102.387 104.123 103.742C103.562 105.098 103.415 106.59 103.701 108.029C103.987 109.469 104.694 110.791 105.732 111.828C106.769 112.866 108.092 113.573 109.531 113.859C110.97 114.145 112.462 113.998 113.818 113.437C115.174 112.875 116.332 111.924 117.148 110.704C117.963 109.484 118.398 108.049 118.398 106.582C118.396 104.615 117.614 102.728 116.223 101.337C114.832 99.9462 112.946 99.1639 110.978 99.1621ZM110.978 108.983C110.503 108.983 110.038 108.842 109.642 108.577C109.247 108.313 108.939 107.937 108.757 107.498C108.575 107.058 108.528 106.575 108.621 106.108C108.714 105.642 108.943 105.213 109.28 104.877C109.616 104.541 110.045 104.313 110.511 104.22C110.978 104.128 111.461 104.176 111.901 104.358C112.34 104.541 112.715 104.85 112.979 105.245C113.243 105.641 113.383 106.106 113.383 106.582C113.382 107.219 113.128 107.83 112.677 108.28C112.226 108.73 111.615 108.983 110.978 108.983Z" fill="#3B73B9" fill-opacity="0.3"/>
<path d="M64.905 138.04H77.0261C77.6912 138.04 78.3291 137.776 78.7994 137.306C79.2697 136.836 79.5339 136.198 79.5339 135.533C79.5339 134.867 79.2697 134.23 78.7994 133.759C78.3291 133.289 77.6912 133.025 77.0261 133.025H64.905C58.0028 133.013 51.3867 130.266 46.5062 125.386C41.6256 120.505 38.8787 113.889 38.8672 106.987V63.9362C38.8787 57.0341 41.6256 50.418 46.5062 45.5374C51.3867 40.6569 58.0028 37.9099 64.905 37.8984H108.069C114.972 37.909 121.589 40.6556 126.47 45.5362C131.352 50.4169 134.099 57.0335 134.111 63.9362V77.6456C134.111 78.3107 134.375 78.9486 134.845 79.4189C135.315 79.8892 135.953 80.1534 136.618 80.1534C137.284 80.1534 137.921 79.8892 138.392 79.4189C138.862 78.9486 139.126 78.3107 139.126 77.6456V63.9362C139.115 55.7033 135.839 47.8109 130.017 41.9897C124.195 36.1684 116.302 32.8934 108.069 32.8828H64.905C56.6726 32.8943 48.7807 36.1697 42.9596 41.9908C37.1384 47.812 33.8631 55.7039 33.8516 63.9362V106.987C33.8631 115.219 37.1384 123.111 42.9596 128.932C48.7807 134.754 56.6726 138.029 64.905 138.04Z" fill="#3B73B9" fill-opacity="0.3"/>
<path d="M76.0088 58.7263C75.7759 58.4933 75.4993 58.3084 75.195 58.1823C74.8906 58.0561 74.5644 57.9912 74.2349 57.9912C73.9054 57.9912 73.5792 58.0561 73.2748 58.1823C72.9705 58.3084 72.6939 58.4933 72.461 58.7263L64.2521 66.9352L60.7512 63.431C60.2808 62.9605 59.6427 62.6962 58.9774 62.6962C58.312 62.6962 57.674 62.9605 57.2035 63.431C56.733 63.9014 56.4688 64.5395 56.4688 65.2048C56.4687 65.8701 56.733 66.5082 57.2035 66.9787L62.4666 72.2417C62.6995 72.4748 62.976 72.6596 63.2804 72.7858C63.5847 72.9119 63.911 72.9768 64.2404 72.9768C64.5699 72.9768 64.8961 72.9119 65.2005 72.7858C65.5049 72.6596 65.7814 72.4748 66.0143 72.2417L75.9987 62.2573C76.4664 61.7894 76.73 61.1554 76.7319 60.4939C76.7338 59.8323 76.4738 59.1969 76.0088 58.7263Z" fill="#3B73B9" fill-opacity="0.3"/>
<path d="M72.4544 86.7705L64.2521 94.9828L60.7512 91.4919C60.5183 91.259 60.2417 91.0742 59.9374 90.9481C59.633 90.822 59.3068 90.7572 58.9774 90.7572C58.6479 90.7572 58.3217 90.822 58.0174 90.9481C57.713 91.0742 57.4365 91.259 57.2035 91.4919C56.9706 91.7249 56.7858 92.0014 56.6597 92.3058C56.5336 92.6101 56.4688 92.9363 56.4688 93.2658C56.4688 93.5952 56.5336 93.9214 56.6597 94.2258C56.7858 94.5301 56.9706 94.8067 57.2035 95.0396L62.4666 100.303C62.9378 100.772 63.5756 101.035 64.2404 101.035C64.9053 101.035 65.5431 100.772 66.0143 100.303L75.9987 90.3183C76.4558 89.8455 76.7089 89.2121 76.7034 88.5546C76.698 87.897 76.4346 87.2679 75.9698 86.8027C75.5051 86.3376 74.8762 86.0735 74.2187 86.0675C73.5611 86.0615 72.9275 86.3139 72.4544 86.7705Z" fill="#3B73B9" fill-opacity="0.3"/>
<path d="M113.993 67.999C114.658 67.999 115.296 67.7348 115.767 67.2645C116.237 66.7942 116.501 66.1563 116.501 65.4912C116.501 64.8261 116.237 64.1882 115.767 63.7179C115.296 63.2476 114.658 62.9834 113.993 62.9834H94.75C94.0849 62.9834 93.447 63.2476 92.9767 63.7179C92.5064 64.1882 92.2422 64.8261 92.2422 65.4912C92.2422 66.1563 92.5064 66.7942 92.9767 67.2645C93.447 67.7348 94.0849 67.999 94.75 67.999H113.993Z" fill="#3B73B9" fill-opacity="0.3"/>
</g>
<defs>
<clipPath id="clip0_986_73182">
<rect width="107" height="107" fill="white" transform="translate(33 32)"/>
</clipPath>
</defs>
</svg>
