<svg width="172" height="172" viewBox="0 0 172 172" fill="none" xmlns="http://www.w3.org/2000/svg">
<circle cx="86" cy="86" r="86" fill="#3B73B9" fill-opacity="0.12"/>
<path d="M121.791 46.1665H51.208C47.1966 46.1665 43.3495 47.76 40.513 50.5965C37.6765 53.433 36.083 57.2801 36.083 61.2915V111.708C36.083 115.72 37.6765 119.567 40.513 122.403C43.3495 125.24 47.1966 126.833 51.208 126.833H121.791C125.803 126.833 129.65 125.24 132.486 122.403C135.323 119.567 136.916 115.72 136.916 111.708V61.2915C136.916 57.2801 135.323 53.433 132.486 50.5965C129.65 47.76 125.803 46.1665 121.791 46.1665ZM71.3747 66.3332C75.2326 66.333 78.9448 67.807 81.7517 70.4536C84.5587 73.1003 86.2481 76.7195 86.4745 80.5708L86.4997 81.4582V101.625C86.4982 102.91 86.0062 104.146 85.1241 105.08C84.2419 106.015 83.0363 106.577 81.7535 106.652C80.4707 106.728 79.2075 106.31 78.2221 105.485C77.2367 104.661 76.6034 103.491 76.4516 102.215L76.4163 101.625V96.5832H66.333V101.625C66.3316 102.91 65.8395 104.146 64.9574 105.08C64.0753 106.015 62.8696 106.577 61.5868 106.652C60.304 106.728 59.0408 106.31 58.0554 105.485C57.07 104.661 56.4367 103.491 56.285 102.215L56.2497 101.625V81.4582C56.2497 77.4468 57.8432 73.5997 60.6797 70.7632C63.5162 67.9267 67.3633 66.3332 71.3747 66.3332ZM71.3747 76.4165C70.1398 76.4167 68.9479 76.87 68.0251 77.6906C67.1023 78.5112 66.5128 79.6419 66.3683 80.8683L66.333 81.4582V86.4998H76.4163V81.4582C76.4163 80.121 75.8852 78.8387 74.9397 77.8932C73.9942 76.9477 72.7118 76.4165 71.3747 76.4165ZM111.708 66.3332C112.943 66.3333 114.135 66.7867 115.058 67.6073C115.98 68.4279 116.57 69.5586 116.714 70.785L116.75 71.3748V101.625C116.75 102.86 116.296 104.052 115.476 104.974C114.655 105.897 113.524 106.487 112.298 106.631L111.708 106.667H104.146C102.422 106.665 100.717 106.309 99.1366 105.623C97.5559 104.936 96.1328 103.932 94.9553 102.674C93.7778 101.415 92.8709 99.9288 92.2906 98.306C91.7103 96.6832 91.4691 94.9586 91.5817 93.2388C91.6943 91.5191 92.1584 89.8407 92.9453 88.3074C93.7322 86.7741 94.8252 85.4184 96.1567 84.3243C97.4883 83.2301 99.0301 82.4206 100.687 81.9458C102.344 81.4711 104.08 81.3411 105.789 81.564L106.666 81.7103V71.3748C106.667 70.14 107.12 68.9481 107.94 68.0253C108.761 67.1025 109.892 66.5129 111.118 66.3685L111.708 66.3332ZM104.599 91.5818L104.146 91.5415C103.516 91.5403 102.908 91.7751 102.443 92.1995C101.977 92.6239 101.687 93.2072 101.63 93.8346C101.573 94.4619 101.753 95.0879 102.135 95.5891C102.517 96.0904 103.072 96.4306 103.692 96.5428L104.146 96.5832H106.666V94.0623L106.626 93.6086C106.547 93.1784 106.358 92.776 106.077 92.441C105.796 92.106 105.433 91.8499 105.023 91.6978L104.599 91.5818Z" fill="#3B73B9" fill-opacity="0.4"/>
</svg>
