<svg width="15" height="14" viewBox="0 0 15 14" fill="none" xmlns="http://www.w3.org/2000/svg">
<path d="M3.33203 13.625V11.875H9.2487C10.1237 11.875 10.8841 11.5833 11.5299 11C12.1758 10.4167 12.4987 9.6875 12.4987 8.8125C12.4987 7.9375 12.1758 7.20833 11.5299 6.625C10.8841 6.04167 10.1237 5.75 9.2487 5.75H3.9987L6.16536 8.025L4.9987 9.25L0.832031 4.875L4.9987 0.5L6.16536 1.725L3.9987 4H9.2487C10.5959 4 11.7522 4.45937 12.7174 5.37812C13.6827 6.29688 14.1654 7.44167 14.1654 8.8125C14.1654 10.1833 13.6827 11.3281 12.7174 12.2469C11.7522 13.1656 10.5959 13.625 9.2487 13.625H3.33203Z" fill="#3B73B9"/>
</svg>
