<svg width="21" height="21" viewBox="0 0 21 21" fill="none" xmlns="http://www.w3.org/2000/svg">
<path d="M16.583 12.1667V6.75L12.4163 3.83333L8.24967 6.75V8H6.58301V5.91667L12.4163 1.75L18.2497 5.91667V12.1667H16.583ZM12.833 7.16667H13.6663V6.33333H12.833V7.16667ZM11.1663 7.16667H11.9997V6.33333H11.1663V7.16667ZM12.833 8.83333H13.6663V8H12.833V8.83333ZM11.1663 8.83333H11.9997V8H11.1663V8.83333ZM6.58301 15.9167L12.3747 17.5L17.333 15.9583C17.2636 15.8333 17.1629 15.7257 17.0309 15.6354C16.899 15.5451 16.7497 15.5 16.583 15.5H12.3747C11.9997 15.5 11.7011 15.4861 11.4788 15.4583C11.2566 15.4306 11.0275 15.375 10.7913 15.2917L8.85384 14.6458L9.31217 13.0208L10.9997 13.5833C11.2358 13.6528 11.5136 13.7083 11.833 13.75C12.1525 13.7917 12.6247 13.8194 13.2497 13.8333C13.2497 13.6806 13.2045 13.5347 13.1143 13.3958C13.024 13.2569 12.9163 13.1667 12.7913 13.125L7.91634 11.3333H6.58301V15.9167ZM1.58301 18.8333V9.66667H7.91634C8.01356 9.66667 8.11079 9.67708 8.20801 9.69792C8.30523 9.71875 8.39551 9.74306 8.47884 9.77083L13.3747 11.5833C13.833 11.75 14.2045 12.0417 14.4893 12.4583C14.774 12.875 14.9163 13.3333 14.9163 13.8333H16.583C17.2775 13.8333 17.8677 14.0625 18.3538 14.5208C18.84 14.9792 19.083 15.5833 19.083 16.3333V17.1667L12.4163 19.25L6.58301 17.625V18.8333H1.58301ZM3.24967 17.1667H4.91634V11.3333H3.24967V17.1667Z" fill="#3B73B9"/>
</svg>
