<svg width="21" height="21" viewBox="0 0 21 21" fill="none" xmlns="http://www.w3.org/2000/svg">
<path d="M11.6253 18.8333V17.125C12.0975 17.0556 12.5594 16.9306 13.0107 16.75C13.4621 16.5694 13.8892 16.3333 14.292 16.0417L15.4587 17.25C14.8753 17.6944 14.2642 18.0521 13.6253 18.3229C12.9864 18.5938 12.3198 18.7639 11.6253 18.8333ZM9.95866 18.8333C8.04199 18.5833 6.45171 17.7535 5.18783 16.3438C3.92394 14.934 3.29199 13.2778 3.29199 11.375C3.29199 10.3333 3.48991 9.35764 3.88574 8.44792C4.28158 7.53819 4.8163 6.74653 5.48991 6.07292C6.16352 5.39931 6.95519 4.86458 7.86491 4.46875C8.77463 4.07292 9.75033 3.875 10.792 3.875H10.917L9.62533 2.58333L10.792 1.375L14.1253 4.70833L10.792 8.04167L9.62533 6.875L10.9587 5.54167H10.792C9.16699 5.54167 7.78852 6.10764 6.65658 7.23958C5.52463 8.37153 4.95866 9.75 4.95866 11.375C4.95866 12.8194 5.43088 14.0868 6.37533 15.1771C7.31977 16.2674 8.51421 16.9167 9.95866 17.125V18.8333ZM16.667 16.0417L15.4587 14.875C15.7503 14.4722 15.9864 14.0451 16.167 13.5938C16.3475 13.1424 16.4725 12.6806 16.542 12.2083H18.2503C18.1809 12.9028 18.0107 13.5694 17.7399 14.2083C17.4691 14.8472 17.1114 15.4583 16.667 16.0417ZM18.2503 10.5417H16.542C16.4725 10.0694 16.3475 9.60764 16.167 9.15625C15.9864 8.70486 15.7503 8.27778 15.4587 7.875L16.667 6.70833C17.1114 7.25 17.4656 7.84722 17.7295 8.5C17.9934 9.15278 18.167 9.83333 18.2503 10.5417Z" fill="#9CA3AF"/>
</svg>
