<svg width="20" height="21" viewBox="0 0 20 21" fill="none" stroke="#3B73B9" xmlns="http://www.w3.org/2000/svg">
<path d="M16.7502 18L16.7503 17.5C16.684 17.5 16.6204 17.4736 16.5735 17.4267L16.5734 17.4267L13.5773 14.4306C13.5332 14.3837 13.5088 14.3215 13.5093 14.257C13.5099 14.1915 13.5362 14.1288 13.5825 14.0824C13.6289 14.0361 13.6916 14.0098 13.7572 14.0092C13.8217 14.0087 13.8838 14.033 13.9307 14.0772L16.9268 17.0733M16.7502 18L16.75 17.5C16.7995 17.5 16.8478 17.4853 16.8889 17.4579L17.1667 17.8736L16.8889 17.4578C16.93 17.4304 16.9621 17.3913 16.981 17.3457C16.9999 17.3 17.0048 17.2497 16.9952 17.2012C16.9856 17.1528 16.9618 17.1082 16.9268 17.0733M16.7502 18C16.5513 18 16.3605 17.9209 16.2199 17.7803L16.7502 18ZM16.9268 17.0733L16.9269 17.0733L17.2804 16.7198L16.9268 17.0733ZM8.50057 4H8.50007C7.51116 4 6.54445 4.29325 5.72219 4.84265C4.89994 5.39206 4.25907 6.17295 3.88063 7.08658C3.50218 8.00021 3.40317 9.00555 3.59609 9.97545C3.78902 10.9454 4.26523 11.8363 4.9645 12.5355C5.66377 13.2348 6.5547 13.711 7.52461 13.9039C8.49453 14.0968 9.49987 13.9978 10.4135 13.6194C11.3271 13.241 12.108 12.6001 12.6575 11.7779C13.2069 10.9556 13.5001 9.98891 13.5001 9V8.9995C13.4988 7.67395 12.9716 6.40308 12.0343 5.46578C11.097 4.52848 9.82613 4.00133 8.50057 4ZM8.49951 14.5C7.41189 14.4999 6.34872 14.1773 5.44439 13.5731C4.53991 12.9687 3.83496 12.1097 3.41867 11.1048C3.00238 10.0998 2.89346 8.9939 3.10568 7.927C3.31791 6.86011 3.84174 5.88011 4.61093 5.11092C5.38013 4.34173 6.36015 3.8179 7.42706 3.60568C8.49397 3.39346 9.59985 3.50238 10.6049 3.91867C11.6099 4.33495 12.4689 5.0399 13.0732 5.94437C13.6775 6.84868 14 7.91184 14.0001 8.99944C13.9985 10.4578 13.4185 11.8559 12.3872 12.8871C11.356 13.9183 9.95787 14.4984 8.49951 14.5Z"  />
</svg>
