<svg width="16" height="17" viewBox="0 0 16 17" fill="none" xmlns="http://www.w3.org/2000/svg">
<path d="M9.31536 14.883C9.11537 15.083 8.8737 15.183 8.59036 15.183C8.30703 15.183 8.06536 15.083 7.86537 14.883L1.61536 8.63301C1.50425 8.5219 1.42925 8.40523 1.39036 8.28301C1.35148 8.16079 1.33203 8.03301 1.33203 7.89967V2.83301C1.33203 2.54412 1.42648 2.30523 1.61536 2.11634C1.80425 1.92745 2.04314 1.83301 2.33203 1.83301H7.3987C7.53203 1.83301 7.66536 1.85245 7.7987 1.89134C7.93203 1.93023 8.05425 2.00523 8.16536 2.11634L14.382 8.33301C14.5931 8.54412 14.6987 8.79134 14.6987 9.07468C14.6987 9.35801 14.5931 9.60523 14.382 9.81634L9.31536 14.883ZM8.63203 14.1997L13.6987 9.13301L7.3987 2.83301H2.33203V7.89967L8.63203 14.1997ZM4.08203 5.43301C4.31536 5.43301 4.51814 5.3469 4.69036 5.17467C4.86259 5.00245 4.9487 4.79967 4.9487 4.56634C4.9487 4.33301 4.86259 4.13023 4.69036 3.95801C4.51814 3.78579 4.31536 3.69967 4.08203 3.69967C3.8487 3.69967 3.64592 3.78579 3.4737 3.95801C3.30148 4.13023 3.21536 4.33301 3.21536 4.56634C3.21536 4.79967 3.30148 5.00245 3.4737 5.17467C3.64592 5.3469 3.8487 5.43301 4.08203 5.43301Z" fill="#6B7280"/>
</svg>
