<svg width="16" height="17" viewBox="0 0 16 17" fill="none" xmlns="http://www.w3.org/2000/svg">
<path d="M4.96732 12.1167C4.83398 12.1167 4.71732 12.0667 4.61732 11.9667C4.51732 11.8667 4.46732 11.7501 4.46732 11.6167C4.46732 11.4834 4.51732 11.3667 4.61732 11.2667C4.71732 11.1667 4.83398 11.1167 4.96732 11.1167C5.10065 11.1167 5.21732 11.1667 5.31732 11.2667C5.41732 11.3667 5.46732 11.4834 5.46732 11.6167C5.46732 11.7501 5.41732 11.8667 5.31732 11.9667C5.21732 12.0667 5.10065 12.1167 4.96732 12.1167ZM8.00065 12.1167C7.86732 12.1167 7.75065 12.0667 7.65065 11.9667C7.55065 11.8667 7.50065 11.7501 7.50065 11.6167C7.50065 11.4834 7.55065 11.3667 7.65065 11.2667C7.75065 11.1667 7.86732 11.1167 8.00065 11.1167C8.13398 11.1167 8.25065 11.1667 8.35065 11.2667C8.45065 11.3667 8.50065 11.4834 8.50065 11.6167C8.50065 11.7501 8.45065 11.8667 8.35065 11.9667C8.25065 12.0667 8.13398 12.1167 8.00065 12.1167ZM11.034 12.1167C10.9007 12.1167 10.784 12.0667 10.684 11.9667C10.584 11.8667 10.534 11.7501 10.534 11.6167C10.534 11.4834 10.584 11.3667 10.684 11.2667C10.784 11.1667 10.9007 11.1167 11.034 11.1167C11.1673 11.1167 11.284 11.1667 11.384 11.2667C11.484 11.3667 11.534 11.4834 11.534 11.6167C11.534 11.7501 11.484 11.8667 11.384 11.9667C11.284 12.0667 11.1673 12.1167 11.034 12.1167ZM3.33398 9.61673V8.61673C3.33398 7.42784 3.73676 6.38895 4.54232 5.50006C5.34787 4.61117 6.33398 4.10562 7.50065 3.98339V2.50006H8.50065V3.98339C9.66732 4.10562 10.6534 4.61117 11.459 5.50006C12.2645 6.38895 12.6673 7.42784 12.6673 8.61673V9.61673H3.33398ZM4.33398 8.61673H11.6673C11.6673 7.60562 11.3102 6.74173 10.5959 6.02506C9.88154 5.30839 9.01765 4.95006 8.00418 4.95006C6.99072 4.95006 6.12565 5.30756 5.40898 6.02256C4.69232 6.73756 4.33398 7.60228 4.33398 8.61673ZM4.96732 14.5001C4.83398 14.5001 4.71732 14.4501 4.61732 14.3501C4.51732 14.2501 4.46732 14.1334 4.46732 14.0001C4.46732 13.8667 4.51732 13.7501 4.61732 13.6501C4.71732 13.5501 4.83398 13.5001 4.96732 13.5001C5.10065 13.5001 5.21732 13.5501 5.31732 13.6501C5.41732 13.7501 5.46732 13.8667 5.46732 14.0001C5.46732 14.1334 5.41732 14.2501 5.31732 14.3501C5.21732 14.4501 5.10065 14.5001 4.96732 14.5001ZM8.00065 14.5001C7.86732 14.5001 7.75065 14.4501 7.65065 14.3501C7.55065 14.2501 7.50065 14.1334 7.50065 14.0001C7.50065 13.8667 7.55065 13.7501 7.65065 13.6501C7.75065 13.5501 7.86732 13.5001 8.00065 13.5001C8.13398 13.5001 8.25065 13.5501 8.35065 13.6501C8.45065 13.7501 8.50065 13.8667 8.50065 14.0001C8.50065 14.1334 8.45065 14.2501 8.35065 14.3501C8.25065 14.4501 8.13398 14.5001 8.00065 14.5001ZM11.034 14.5001C10.9007 14.5001 10.784 14.4501 10.684 14.3501C10.584 14.2501 10.534 14.1334 10.534 14.0001C10.534 13.8667 10.584 13.7501 10.684 13.6501C10.784 13.5501 10.9007 13.5001 11.034 13.5001C11.1673 13.5001 11.284 13.5501 11.384 13.6501C11.484 13.7501 11.534 13.8667 11.534 14.0001C11.534 14.1334 11.484 14.2501 11.384 14.3501C11.284 14.4501 11.1673 14.5001 11.034 14.5001Z" fill="#6B7280"/>
</svg>
