<svg width="21" height="21" viewBox="0 0 21 21" fill="none" xmlns="http://www.w3.org/2000/svg">
<path d="M6.58203 16.333V14.6663H12.4987C13.3737 14.6663 14.1341 14.3886 14.7799 13.833C15.4258 13.2775 15.7487 12.583 15.7487 11.7497C15.7487 10.9163 15.4258 10.2219 14.7799 9.66634C14.1341 9.11079 13.3737 8.83301 12.4987 8.83301H7.2487L9.41536 10.9997L8.2487 12.1663L4.08203 7.99967L8.2487 3.83301L9.41536 4.99967L7.2487 7.16634H12.4987C13.8459 7.16634 15.0022 7.60384 15.9674 8.47884C16.9327 9.35384 17.4154 10.4441 17.4154 11.7497C17.4154 13.0552 16.9327 14.1455 15.9674 15.0205C15.0022 15.8955 13.8459 16.333 12.4987 16.333H6.58203Z" fill="#3B73B9"/>
</svg>
