<svg width="21" height="21" viewBox="0 0 21 21" fill="none" xmlns="http://www.w3.org/2000/svg">
<path d="M5.5013 7.16699H13.8346V5.50033H5.5013V7.16699ZM5.5013 10.5003H9.45964C9.73741 10.167 10.0395 9.85797 10.3659 9.57324C10.6923 9.28852 11.0499 9.04199 11.4388 8.83366H5.5013V10.5003ZM5.5013 13.8337H8.04297C8.07075 13.542 8.12283 13.2573 8.19922 12.9795C8.27561 12.7017 8.36936 12.4309 8.48047 12.167H5.5013V13.8337ZM3.83464 17.167C3.3763 17.167 2.98394 17.0038 2.65755 16.6774C2.33116 16.351 2.16797 15.9587 2.16797 15.5003V3.83366C2.16797 3.37533 2.33116 2.98296 2.65755 2.65658C2.98394 2.33019 3.3763 2.16699 3.83464 2.16699H15.5013C15.9596 2.16699 16.352 2.33019 16.6784 2.65658C17.0048 2.98296 17.168 3.37533 17.168 3.83366V8.47949C16.9041 8.36838 16.6332 8.27463 16.3555 8.19824C16.0777 8.12185 15.793 8.06977 15.5013 8.04199V3.83366H3.83464V15.5003H8.04297C8.07075 15.792 8.12283 16.0767 8.19922 16.3545C8.27561 16.6323 8.36936 16.9031 8.48047 17.167H3.83464ZM14.668 18.8337C13.6541 18.8337 12.7687 18.5177 12.0117 17.8857C11.2548 17.2538 10.7791 16.4587 10.5846 15.5003H11.8763C12.0569 16.1114 12.4006 16.6114 12.9076 17.0003C13.4145 17.3892 14.0013 17.5837 14.668 17.5837C15.4735 17.5837 16.161 17.2989 16.7305 16.7295C17.2999 16.16 17.5846 15.4725 17.5846 14.667C17.5846 13.8614 17.2999 13.1739 16.7305 12.6045C16.161 12.035 15.4735 11.7503 14.668 11.7503C14.2652 11.7503 13.8902 11.8232 13.543 11.9691C13.1957 12.1149 12.8902 12.3198 12.6263 12.5837H13.8346V13.8337H10.5013V10.5003H11.7513V11.6878C12.1263 11.3267 12.5638 11.0385 13.0638 10.8232C13.5638 10.608 14.0985 10.5003 14.668 10.5003C15.8207 10.5003 16.8034 10.9066 17.6159 11.7191C18.4284 12.5316 18.8346 13.5142 18.8346 14.667C18.8346 15.8198 18.4284 16.8024 17.6159 17.6149C16.8034 18.4274 15.8207 18.8337 14.668 18.8337Z" fill="#3B73B9"/>
</svg>
