<svg width="12" height="10" viewBox="0 0 12 10" fill="none" xmlns="http://www.w3.org/2000/svg">
<mask id="path-1-inside-1_3099_69658" fill="white">
<path d="M10.706 1.66683H1.2942C1.12779 1.66683 0.968194 1.59659 0.850524 1.47157C0.732854 1.34654 0.666748 1.17697 0.666748 1.00016C0.666748 0.823352 0.732854 0.653783 0.850524 0.528758C0.968194 0.403734 1.12779 0.333496 1.2942 0.333496H10.706C10.8724 0.333496 11.032 0.403734 11.1496 0.528758C11.2673 0.653783 11.3334 0.823352 11.3334 1.00016C11.3334 1.17697 11.2673 1.34654 11.1496 1.47157C11.032 1.59659 10.8724 1.66683 10.706 1.66683Z"/>
<path d="M10.706 5.66683H1.2942C1.12779 5.66683 0.968194 5.59659 0.850524 5.47157C0.732854 5.34654 0.666748 5.17697 0.666748 5.00016C0.666748 4.82335 0.732854 4.65378 0.850524 4.52876C0.968194 4.40373 1.12779 4.3335 1.2942 4.3335H10.706C10.8724 4.3335 11.032 4.40373 11.1496 4.52876C11.2673 4.65378 11.3334 4.82335 11.3334 5.00016C11.3334 5.17697 11.2673 5.34654 11.1496 5.47157C11.032 5.59659 10.8724 5.66683 10.706 5.66683Z"/>
<path d="M10.706 9.66683H1.2942C1.12779 9.66683 0.968194 9.59659 0.850524 9.47157C0.732854 9.34654 0.666748 9.17697 0.666748 9.00016C0.666748 8.82335 0.732854 8.65378 0.850524 8.52876C0.968194 8.40373 1.12779 8.3335 1.2942 8.3335H10.706C10.8724 8.3335 11.032 8.40373 11.1496 8.52876C11.2673 8.65378 11.3334 8.82335 11.3334 9.00016C11.3334 9.17697 11.2673 9.34654 11.1496 9.47157C11.032 9.59659 10.8724 9.66683 10.706 9.66683Z"/>
</mask>
<path d="M10.706 1.66683H1.2942C1.12779 1.66683 0.968194 1.59659 0.850524 1.47157C0.732854 1.34654 0.666748 1.17697 0.666748 1.00016C0.666748 0.823352 0.732854 0.653783 0.850524 0.528758C0.968194 0.403734 1.12779 0.333496 1.2942 0.333496H10.706C10.8724 0.333496 11.032 0.403734 11.1496 0.528758C11.2673 0.653783 11.3334 0.823352 11.3334 1.00016C11.3334 1.17697 11.2673 1.34654 11.1496 1.47157C11.032 1.59659 10.8724 1.66683 10.706 1.66683Z" fill="#111928"/>
<path d="M10.706 5.66683H1.2942C1.12779 5.66683 0.968194 5.59659 0.850524 5.47157C0.732854 5.34654 0.666748 5.17697 0.666748 5.00016C0.666748 4.82335 0.732854 4.65378 0.850524 4.52876C0.968194 4.40373 1.12779 4.3335 1.2942 4.3335H10.706C10.8724 4.3335 11.032 4.40373 11.1496 4.52876C11.2673 4.65378 11.3334 4.82335 11.3334 5.00016C11.3334 5.17697 11.2673 5.34654 11.1496 5.47157C11.032 5.59659 10.8724 5.66683 10.706 5.66683Z" fill="#111928"/>
<path d="M10.706 9.66683H1.2942C1.12779 9.66683 0.968194 9.59659 0.850524 9.47157C0.732854 9.34654 0.666748 9.17697 0.666748 9.00016C0.666748 8.82335 0.732854 8.65378 0.850524 8.52876C0.968194 8.40373 1.12779 8.3335 1.2942 8.3335H10.706C10.8724 8.3335 11.032 8.40373 11.1496 8.52876C11.2673 8.65378 11.3334 8.82335 11.3334 9.00016C11.3334 9.17697 11.2673 9.34654 11.1496 9.47157C11.032 9.59659 10.8724 9.66683 10.706 9.66683Z" fill="#111928"/>
<path d="M0.850524 1.47157L1.94282 0.44352L1.94282 0.44352L0.850524 1.47157ZM0.850524 0.528758L1.94282 1.55681H1.94282L0.850524 0.528758ZM1.2942 0.333496V1.8335V0.333496ZM11.1496 0.528758L10.0573 1.55681L11.1496 0.528758ZM0.850524 5.47157L1.94282 4.44352H1.94282L0.850524 5.47157ZM0.850524 4.52876L1.94282 5.55681H1.94282L0.850524 4.52876ZM11.1496 4.52876L10.0573 5.55681L11.1496 4.52876ZM0.850524 9.47157L1.94282 8.44352L1.94282 8.44352L0.850524 9.47157ZM0.850524 8.52876L1.94282 9.5568H1.94282L0.850524 8.52876ZM11.1496 8.52876L10.0573 9.5568L11.1496 8.52876ZM10.706 0.166829H1.2942V3.16683H10.706V0.166829ZM1.2942 0.166829C1.55597 0.166829 1.78718 0.278152 1.94282 0.44352L-0.241776 2.49961C0.149205 2.91503 0.699609 3.16683 1.2942 3.16683V0.166829ZM1.94282 0.44352C2.09556 0.605806 2.16675 0.807502 2.16675 1.00016H-0.833252C-0.833252 1.54645 -0.629855 2.08728 -0.241776 2.49961L1.94282 0.44352ZM2.16675 1.00016C2.16675 1.19282 2.09556 1.39452 1.94282 1.55681L-0.241776 -0.499289C-0.629855 -0.0869546 -0.833252 0.45388 -0.833252 1.00016H2.16675ZM1.94282 1.55681C1.78718 1.72217 1.55597 1.8335 1.2942 1.8335V-1.1665C0.699609 -1.1665 0.149205 -0.914705 -0.241776 -0.499289L1.94282 1.55681ZM1.2942 1.8335H10.706V-1.1665H1.2942V1.8335ZM10.706 1.8335C10.4442 1.8335 10.213 1.72217 10.0573 1.55681L12.2419 -0.499288C11.851 -0.914706 11.3006 -1.1665 10.706 -1.1665V1.8335ZM10.0573 1.55681C9.9046 1.39452 9.83341 1.19282 9.83341 1.00016H12.8334C12.8334 0.453883 12.63 -0.0869522 12.2419 -0.499288L10.0573 1.55681ZM9.83341 1.00016C9.83341 0.807505 9.9046 0.605808 10.0573 0.443521L12.2419 2.49961C12.63 2.08728 12.8334 1.54644 12.8334 1.00016H9.83341ZM10.0573 0.443521C10.213 0.278151 10.4442 0.166829 10.706 0.166829V3.16683C11.3006 3.16683 11.851 2.91503 12.2419 2.49961L10.0573 0.443521ZM10.706 4.16683H1.2942V7.16683H10.706V4.16683ZM1.2942 4.16683C1.55597 4.16683 1.78718 4.27815 1.94282 4.44352L-0.241776 6.49961C0.149205 6.91503 0.699609 7.16683 1.2942 7.16683V4.16683ZM1.94282 4.44352C2.09556 4.60581 2.16675 4.8075 2.16675 5.00016H-0.833252C-0.833252 5.54645 -0.629855 6.08728 -0.241776 6.49961L1.94282 4.44352ZM2.16675 5.00016C2.16675 5.19282 2.09556 5.39452 1.94282 5.55681L-0.241776 3.50071C-0.629855 3.91305 -0.833252 4.45388 -0.833252 5.00016H2.16675ZM1.94282 5.55681C1.78718 5.72217 1.55597 5.8335 1.2942 5.8335V2.8335C0.699609 2.8335 0.149205 3.08529 -0.241776 3.50071L1.94282 5.55681ZM1.2942 5.8335H10.706V2.8335H1.2942V5.8335ZM10.706 5.8335C10.4442 5.8335 10.213 5.72217 10.0573 5.55681L12.2419 3.50071C11.851 3.08529 11.3006 2.8335 10.706 2.8335V5.8335ZM10.0573 5.55681C9.9046 5.39452 9.83341 5.19282 9.83341 5.00016H12.8334C12.8334 4.45388 12.63 3.91305 12.2419 3.50071L10.0573 5.55681ZM9.83341 5.00016C9.83341 4.80751 9.9046 4.60581 10.0573 4.44352L12.2419 6.49961C12.63 6.08728 12.8334 5.54644 12.8334 5.00016H9.83341ZM10.0573 4.44352C10.213 4.27815 10.4442 4.16683 10.706 4.16683V7.16683C11.3006 7.16683 11.851 6.91503 12.2419 6.49961L10.0573 4.44352ZM10.706 8.16683H1.2942V11.1668H10.706V8.16683ZM1.2942 8.16683C1.55596 8.16683 1.78718 8.27815 1.94282 8.44352L-0.241776 10.4996C0.149207 10.915 0.699613 11.1668 1.2942 11.1668V8.16683ZM1.94282 8.44352C2.09556 8.60581 2.16675 8.8075 2.16675 9.00016H-0.833252C-0.833252 9.54644 -0.629856 10.0873 -0.241776 10.4996L1.94282 8.44352ZM2.16675 9.00016C2.16675 9.19282 2.09556 9.39452 1.94282 9.5568L-0.241776 7.50071C-0.629856 7.91305 -0.833252 8.45388 -0.833252 9.00016H2.16675ZM1.94282 9.5568C1.78718 9.72218 1.55596 9.8335 1.2942 9.8335V6.8335C0.699613 6.8335 0.149207 7.08529 -0.241776 7.50071L1.94282 9.5568ZM1.2942 9.8335H10.706V6.8335H1.2942V9.8335ZM10.706 9.8335C10.4442 9.8335 10.213 9.72218 10.0573 9.5568L12.2419 7.50071C11.851 7.08529 11.3005 6.8335 10.706 6.8335V9.8335ZM10.0573 9.5568C9.9046 9.39452 9.83341 9.19282 9.83341 9.00016H12.8334C12.8334 8.45389 12.63 7.91305 12.2419 7.50071L10.0573 9.5568ZM9.83341 9.00016C9.83341 8.80751 9.9046 8.60581 10.0573 8.44352L12.2419 10.4996C12.63 10.0873 12.8334 9.54644 12.8334 9.00016H9.83341ZM10.0573 8.44352C10.213 8.27815 10.4442 8.16683 10.706 8.16683V11.1668C11.3005 11.1668 11.851 10.915 12.2419 10.4996L10.0573 8.44352Z" fill="#111928" mask="url(#path-1-inside-1_3099_69658)"/>
</svg>
