<svg width="12" height="13" viewBox="0 0 12 13" fill="none" xmlns="http://www.w3.org/2000/svg">
<path d="M10.6667 4.50006V1.83339H8V0.500061H12V4.50006H10.6667ZM0 12.5001V8.50006H1.33333V11.1667H4V12.5001H0ZM0 7.16673V5.83339H1.33333V7.16673H0ZM0 4.50006V3.16673H1.33333V4.50006H0ZM0 1.83339V0.500061H1.33333V1.83339H0ZM2.66667 1.83339V0.500061H4V1.83339H2.66667ZM5.33333 12.5001V11.1667H6.66667V12.5001H5.33333ZM5.33333 1.83339V0.500061H6.66667V1.83339H5.33333ZM8 12.5001V11.1667H9.33333V12.5001H8ZM10.6667 12.5001V11.1667H12V12.5001H10.6667ZM10.6667 9.8334V8.50006H12V9.8334H10.6667ZM10.6667 7.16673V5.83339H12V7.16673H10.6667Z" fill="#6B7280"/>
</svg>
