<svg width="21" height="20" viewBox="0 0 21 20" fill="none" xmlns="http://www.w3.org/2000/svg">
<path d="M16.3752 4.09204C15.6112 3.32031 14.7011 2.70843 13.6982 2.29208C12.6952 1.87574 11.6194 1.66326 10.5335 1.66704C5.9835 1.66704 2.27516 5.37537 2.27516 9.92537C2.27516 11.3837 2.6585 12.8004 3.37516 14.0504L2.2085 18.3337L6.5835 17.1837C7.79183 17.842 9.15016 18.192 10.5335 18.192C15.0835 18.192 18.7918 14.4837 18.7918 9.93371C18.7918 7.72537 17.9335 5.65037 16.3752 4.09204ZM10.5335 16.792C9.30016 16.792 8.09183 16.4587 7.0335 15.8337L6.7835 15.6837L4.1835 16.367L4.87516 13.8337L4.7085 13.5754C4.02328 12.4812 3.65945 11.2164 3.6585 9.92537C3.6585 6.14204 6.74183 3.05871 10.5252 3.05871C12.3585 3.05871 14.0835 3.77538 15.3752 5.07538C16.0147 5.71201 16.5216 6.46926 16.8663 7.30323C17.2111 8.1372 17.3869 9.0313 17.3835 9.93371C17.4002 13.717 14.3168 16.792 10.5335 16.792ZM14.3002 11.6587C14.0918 11.5587 13.0752 11.0587 12.8918 10.9837C12.7002 10.917 12.5668 10.8837 12.4252 11.0837C12.2835 11.292 11.8918 11.7587 11.7752 11.892C11.6585 12.0337 11.5335 12.0504 11.3252 11.942C11.1168 11.842 10.4502 11.617 9.66683 10.917C9.05016 10.367 8.64183 9.69204 8.51683 9.48371C8.40016 9.27537 8.50016 9.16704 8.6085 9.05871C8.70016 8.96704 8.81683 8.81704 8.91683 8.70037C9.01683 8.58371 9.0585 8.49204 9.12516 8.35871C9.19183 8.21704 9.1585 8.10038 9.1085 8.00038C9.0585 7.90038 8.64183 6.88371 8.47516 6.46704C8.3085 6.06704 8.1335 6.11704 8.0085 6.10871H7.6085C7.46683 6.10871 7.25016 6.15871 7.0585 6.36704C6.87516 6.57538 6.34183 7.07538 6.34183 8.09204C6.34183 9.10871 7.0835 10.092 7.1835 10.2254C7.2835 10.367 8.64183 12.4504 10.7085 13.342C11.2002 13.5587 11.5835 13.6837 11.8835 13.7754C12.3752 13.9337 12.8252 13.9087 13.1835 13.8587C13.5835 13.8004 14.4085 13.3587 14.5752 12.8754C14.7502 12.392 14.7502 11.9837 14.6918 11.892C14.6335 11.8004 14.5085 11.7587 14.3002 11.6587Z" fill="white"/>
</svg>
